IntelOneMono-Medium.ufo
<glyph name="quotedbl" format="2">
  <advance width="614"/>
  <unicode hex="0022"/>
  <outline>
    <contour>
      <point x="396" y="385" type="line"/>
      <point x="497" y="385" type="line"/>
      <point x="516" y="710" type="line"/>
      <point x="378" y="710" type="line"/>
    </contour>
    <contour>
      <point x="131" y="385" type="line"/>
      <point x="232" y="385" type="line"/>
      <point x="251" y="710" type="line"/>
      <point x="112" y="710" type="line"/>
    </contour>
  </outline>
</glyph>
<glyph name="numbersign" format="2">
  <advance width="614"/>
  <unicode hex="0023"/>
  <outline>
    <contour>
      <point x="148" y="158" type="line"/>
      <point x="37" y="158" type="line"/>
      <point x="37" y="263" type="line"/>
      <point x="166" y="263" type="line"/>
      <point x="190" y="398" type="line"/>
      <point x="69" y="398" type="line"/>
      <point x="69" y="503" type="line"/>
      <point x="208" y="503" type="line"/>
      <point x="237" y="666" type="line"/>
      <point x="313" y="666" type="line"/>
      <point x="283" y="502" type="line"/>
      <point x="393" y="502" type="line"/>
      <point x="423" y="666" type="line"/>
      <point x="498" y="666" type="line"/>
      <point x="469" y="503" type="line"/>
      <point x="577" y="503" type="line"/>
      <point x="577" y="398" type="line"/>
      <point x="450" y="398" type="line"/>
      <point x="426" y="263" type="line"/>
      <point x="546" y="263" type="line"/>
      <point x="546" y="158" type="line"/>
      <point x="407" y="158" type="line"/>
      <point x="377" y="-12" type="line"/>
      <point x="302" y="-12" type="line"/>
      <point x="333" y="159" type="line"/>
      <point x="222" y="159" type="line"/>
      <point x="192" y="-12" type="line"/>
      <point x="118" y="-12" type="line"/>
    </contour>
    <contour>
      <point x="223" y="225" type="line"/>
      <point x="355" y="225" type="line"/>
      <point x="393" y="434" type="line"/>
      <point x="260" y="434" type="line"/>
    </contour>
  </outline>
</glyph>
<glyph name="dollar" format="2">
  <advance width="614"/>
  <unicode hex="0024"/>
  <outline>
    <contour>
      <point x="303" y="93" type="qcurve"/>
      <point x="365" y="93"/>
      <point x="429" y="137"/>
      <point x="429" y="181" type="qcurve"/>
      <point x="429" y="215"/>
      <point x="382" y="255"/>
      <point x="319" y="276" type="qcurve"/>
      <point x="252" y="297" type="line"/>
      <point x="165" y="323"/>
      <point x="86" y="411"/>
      <point x="86" y="481" type="qcurve"/>
      <point x="86" y="550"/>
      <point x="187" y="643"/>
      <point x="275" y="653" type="qcurve"/>
      <point x="275" y="796" type="line"/>
      <point x="352" y="796" type="line"/>
      <point x="352" y="654" type="line"/>
      <point x="386" y="652"/>
      <point x="458" y="641"/>
      <point x="520" y="627" type="qcurve"/>
      <point x="505" y="532" type="line"/>
      <point x="444" y="547"/>
      <point x="351" y="562"/>
      <point x="316" y="562" type="qcurve"/>
      <point x="258" y="562"/>
      <point x="199" y="525"/>
      <point x="199" y="490" type="qcurve"/>
      <point x="199" y="452"/>
      <point x="247" y="410"/>
      <point x="308" y="391" type="qcurve"/>
      <point x="377" y="370" type="line"/>
      <point x="468" y="343"/>
      <point x="542" y="260"/>
      <point x="542" y="188" type="qcurve"/>
      <point x="542" y="111"/>
      <point x="442" y="14"/>
      <point x="352" y="3" type="qcurve"/>
      <point x="352" y="-142" type="line"/>
      <point x="275" y="-142" type="line"/>
      <point x="275" y="1" type="line"/>
      <point x="226" y="3"/>
      <point x="123" y="24"/>
      <point x="62" y="44" type="qcurve"/>
      <point x="85" y="139" type="line"/>
      <point x="156" y="116"/>
      <point x="264" y="93"/>
    </contour>
  </outline>
</glyph>
<glyph name="percent" format="2">
  <advance width="614"/>
  <unicode hex="0025"/>
  <outline>
    <contour>
      <point x="188" y="317" type="qcurve"/>
      <point x="117" y="317"/>
      <point x="42" y="409"/>
      <point x="42" y="494" type="qcurve"/>
      <point x="42" y="579"/>
      <point x="118" y="670"/>
      <point x="189" y="670" type="qcurve"/>
      <point x="260" y="670"/>
      <point x="337" y="579"/>
      <point x="337" y="495" type="qcurve"/>
      <point x="337" y="410"/>
      <point x="260" y="317"/>
    </contour>
    <contour>
      <point x="593" y="654" type="line"/>
      <point x="402" y="377" type="line"/>
      <point x="357" y="377" type="line"/>
      <point x="483" y="660" type="line"/>
      <point x="593" y="660" type="line"/>
    </contour>
    <contour>
      <point x="263" y="494" type="qcurve"/>
      <point x="263" y="549"/>
      <point x="225" y="606"/>
      <point x="188" y="606" type="qcurve"/>
      <point x="151" y="606"/>
      <point x="115" y="551"/>
      <point x="115" y="495" type="qcurve"/>
      <point x="115" y="438"/>
      <point x="152" y="383"/>
      <point x="189" y="383" type="qcurve"/>
      <point x="226" y="383"/>
      <point x="263" y="438"/>
    </contour>
    <contour>
      <point x="425" y="-15" type="qcurve"/>
      <point x="354" y="-15"/>
      <point x="277" y="76"/>
      <point x="277" y="160" type="qcurve"/>
      <point x="277" y="245"/>
      <point x="354" y="338"/>
      <point x="426" y="338" type="qcurve"/>
      <point x="497" y="338"/>
      <point x="572" y="246"/>
      <point x="572" y="161" type="qcurve"/>
      <point x="572" y="76"/>
      <point x="496" y="-15"/>
    </contour>
    <contour>
      <point x="351" y="161" type="qcurve"/>
      <point x="351" y="106"/>
      <point x="389" y="49"/>
      <point x="426" y="49" type="qcurve"/>
      <point x="463" y="49"/>
      <point x="499" y="104"/>
      <point x="499" y="160" type="qcurve"/>
      <point x="499" y="217"/>
      <point x="462" y="272"/>
      <point x="425" y="272" type="qcurve"/>
      <point x="388" y="272"/>
      <point x="351" y="217"/>
    </contour>
    <contour>
      <point x="21" y="1" type="line"/>
      <point x="212" y="278" type="line"/>
      <point x="257" y="278" type="line"/>
      <point x="131" y="-5" type="line"/>
      <point x="21" y="-5" type="line"/>
    </contour>
  </outline>
</glyph>
<glyph name="parenleft" format="2">
  <advance width="614"/>
  <unicode hex="0028"/>
  <outline>
    <contour>
      <point x="108" y="326" type="qcurve"/>
      <point x="108" y="465"/>
      <point x="295" y="708"/>
      <point x="479" y="807" type="qcurve"/>
      <point x="537" y="734" type="line"/>
      <point x="376" y="647"/>
      <point x="222" y="450"/>
      <point x="222" y="329" type="qcurve"/>
      <point x="222" y="208"/>
      <point x="376" y="11"/>
      <point x="537" y="-76" type="qcurve"/>
      <point x="479" y="-149" type="line"/>
      <point x="295" y="-50"/>
      <point x="108" y="190"/>
    </contour>
  </outline>
</glyph>
<glyph name="period" format="2">
  <advance width="614"/>
  <unicode hex="002E"/>
  <outline>
    <contour>
      <point x="410" y="79" type="qcurve"/>
      <point x="410" y="34"/>
      <point x="356" y="-15"/>
      <point x="306" y="-15" type="qcurve"/>
      <point x="255" y="-15"/>
      <point x="204" y="32"/>
      <point x="204" y="78" type="qcurve"/>
      <point x="204" y="123"/>
      <point x="258" y="172"/>
      <point x="307" y="172" type="qcurve"/>
      <point x="359" y="172"/>
      <point x="410" y="126"/>
    </contour>
  </outline>
</glyph>
<glyph name="five" format="2">
  <advance width="614"/>
  <unicode hex="0035"/>
  <outline>
    <contour>
      <point x="349" y="422" type="qcurve"/>
      <point x="433" y="422"/>
      <point x="539" y="318"/>
      <point x="539" y="233" type="qcurve"/>
      <point x="539" y="128"/>
      <point x="376" y="15"/>
      <point x="206" y="0" type="qcurve"/>
      <point x="90" y="-10" type="line"/>
      <point x="79" y="88" type="line"/>
      <point x="198" y="99" type="line"/>
      <point x="319" y="110"/>
      <point x="425" y="173"/>
      <point x="425" y="236" type="qcurve"/>
      <point x="425" y="281"/>
      <point x="368" y="335"/>
      <point x="322" y="335" type="qcurve"/>
      <point x="287" y="335"/>
      <point x="215" y="311"/>
      <point x="179" y="288" type="qcurve"/>
      <point x="100" y="302" type="line"/>
      <point x="97" y="307" type="line"/>
      <point x="120" y="655" type="line"/>
      <point x="500" y="655" type="line"/>
      <point x="500" y="561" type="line"/>
      <point x="214" y="561" type="line"/>
      <point x="199" y="379" type="line"/>
      <point x="232" y="401"/>
      <point x="307" y="422"/>
    </contour>
  </outline>
</glyph>
<glyph name="seven" format="2">
  <advance width="614"/>
  <unicode hex="0037"/>
  <outline>
    <contour>
      <point x="535" y="559" type="line"/>
      <point x="268" y="0" type="line"/>
      <point x="137" y="0" type="line"/>
      <point x="137" y="2" type="line"/>
      <point x="423" y="554" type="line"/>
      <point x="423" y="560" type="line"/>
      <point x="60" y="560" type="line"/>
      <point x="60" y="655" type="line"/>
      <point x="535" y="655" type="line"/>
    </contour>
  </outline>
</glyph>
<glyph name="eight" format="2">
  <advance width="614"/>
  <unicode hex="0038"/>
  <outline>
    <contour>
      <point x="545" y="174" type="qcurve"/>
      <point x="545" y="89"/>
      <point x="412" y="-15"/>
      <point x="306" y="-15" type="qcurve"/>
      <point x="201" y="-15"/>
      <point x="69" y="88"/>
      <point x="69" y="172" type="qcurve"/>
      <point x="69" y="229"/>
      <point x="146" y="316"/>
      <point x="214" y="336" type="qcurve"/>
      <point x="214" y="341" type="line"/>
      <point x="155" y="359"/>
      <point x="88" y="437"/>
      <point x="88" y="489" type="qcurve"/>
      <point x="88" y="570"/>
      <point x="211" y="670"/>
      <point x="309" y="670" type="qcurve"/>
      <point x="406" y="670"/>
      <point x="526" y="572"/>
      <point x="526" y="491" type="qcurve"/>
      <point x="526" y="439"/>
      <point x="460" y="360"/>
      <point x="400" y="341" type="qcurve"/>
      <point x="400" y="336" type="line"/>
      <point x="468" y="317"/>
      <point x="545" y="231"/>
    </contour>
    <contour>
      <point x="196" y="478" type="qcurve"/>
      <point x="196" y="432"/>
      <point x="259" y="374"/>
      <point x="307" y="374" type="qcurve"/>
      <point x="355" y="374"/>
      <point x="418" y="433"/>
      <point x="418" y="480" type="qcurve"/>
      <point x="418" y="527"/>
      <point x="358" y="582"/>
      <point x="308" y="582" type="qcurve"/>
      <point x="258" y="582"/>
      <point x="196" y="525"/>
    </contour>
    <contour>
      <point x="178" y="183" type="qcurve"/>
      <point x="178" y="133"/>
      <point x="249" y="72"/>
      <point x="307" y="72" type="qcurve"/>
      <point x="364" y="72"/>
      <point x="436" y="134"/>
      <point x="436" y="185" type="qcurve"/>
      <point x="436" y="235"/>
      <point x="364" y="297"/>
      <point x="307" y="297" type="qcurve"/>
      <point x="250" y="297"/>
      <point x="178" y="234"/>
    </contour>
  </outline>
</glyph>
<glyph name="nine" format="2">
  <advance width="614"/>
  <unicode hex="0039"/>
  <outline>
    <contour>
      <point x="546" y="430" type="qcurve"/>
      <point x="546" y="336"/>
      <point x="465" y="176"/>
      <point x="373" y="86" type="qcurve"/>
      <point x="285" y="0" type="line"/>
      <point x="137" y="0" type="line"/>
      <point x="136" y="2" type="line"/>
      <point x="274" y="128" type="line"/>
      <point x="305" y="156"/>
      <point x="353" y="210"/>
      <point x="371" y="237" type="qcurve"/>
      <point x="349" y="231"/>
      <point x="306" y="225"/>
      <point x="283" y="225" type="qcurve"/>
      <point x="182" y="225"/>
      <point x="68" y="339"/>
      <point x="68" y="441" type="qcurve"/>
      <point x="68" y="542"/>
      <point x="205" y="670"/>
      <point x="314" y="670" type="qcurve"/>
      <point x="418" y="670"/>
      <point x="546" y="538"/>
    </contour>
    <contour>
      <point x="412" y="318" type="qcurve"/>
      <point x="422" y="344"/>
      <point x="432" y="398"/>
      <point x="432" y="426" type="qcurve"/>
      <point x="432" y="495"/>
      <point x="364" y="578"/>
      <point x="309" y="578" type="qcurve"/>
      <point x="252" y="578"/>
      <point x="183" y="502"/>
      <point x="183" y="439" type="qcurve"/>
      <point x="183" y="375"/>
      <point x="251" y="304"/>
      <point x="313" y="304" type="qcurve"/>
      <point x="339" y="304"/>
      <point x="388" y="311"/>
    </contour>
  </outline>
</glyph>
<glyph name="colon" format="2">
  <advance width="614"/>
  <unicode hex="003A"/>
  <outline>
    <contour>
      <point x="410" y="396" type="qcurve"/>
      <point x="410" y="353"/>
      <point x="356" y="308"/>
      <point x="306" y="308" type="qcurve"/>
      <point x="257" y="308"/>
      <point x="204" y="353"/>
      <point x="204" y="396" type="qcurve"/>
      <point x="204" y="437"/>
      <point x="259" y="484"/>
      <point x="307" y="484" type="qcurve"/>
      <point x="359" y="484"/>
      <point x="410" y="440"/>
    </contour>
    <contour>
      <point x="410" y="72" type="qcurve"/>
      <point x="410" y="30"/>
      <point x="356" y="-15"/>
      <point x="306" y="-15" type="qcurve"/>
      <point x="257" y="-15"/>
      <point x="204" y="31"/>
      <point x="204" y="74" type="qcurve"/>
      <point x="204" y="114"/>
      <point x="259" y="161"/>
      <point x="307" y="161" type="qcurve"/>
      <point x="359" y="161"/>
      <point x="410" y="117"/>
    </contour>
  </outline>
</glyph>
<glyph name="semicolon" format="2">
  <advance width="614"/>
  <unicode hex="003B"/>
  <outline>
    <contour>
      <point x="423" y="396" type="qcurve"/>
      <point x="423" y="353"/>
      <point x="369" y="308"/>
      <point x="319" y="308" type="qcurve"/>
      <point x="270" y="308"/>
      <point x="217" y="353"/>
      <point x="217" y="396" type="qcurve"/>
      <point x="217" y="437"/>
      <point x="272" y="484"/>
      <point x="321" y="484" type="qcurve"/>
      <point x="372" y="484"/>
      <point x="423" y="440"/>
    </contour>
    <contour>
      <point x="212" y="-161" type="qcurve"/>
      <point x="108" y="-161" type="line"/>
      <point x="108" y="-159" type="line"/>
      <point x="179" y="-59"/>
      <point x="225" y="53"/>
      <point x="234" y="145" type="qcurve"/>
      <point x="405" y="145" type="line"/>
      <point x="388" y="44"/>
      <point x="310" y="-83"/>
    </contour>
  </outline>
</glyph>
<glyph name="less" format="2">
  <advance width="614"/>
  <unicode hex="003C"/>
  <outline>
    <contour>
      <point x="541" y="171" type="line"/>
      <point x="541" y="67" type="line"/>
      <point x="64" y="270" type="line"/>
      <point x="64" y="373" type="line"/>
      <point x="541" y="575" type="line"/>
      <point x="541" y="470" type="line"/>
      <point x="170" y="321" type="line"/>
    </contour>
  </outline>
</glyph>
<glyph name="greater" format="2">
  <advance width="614"/>
  <unicode hex="003E"/>
  <outline>
    <contour>
      <point x="551" y="373" type="line"/>
      <point x="551" y="270" type="line"/>
      <point x="73" y="67" type="line"/>
      <point x="73" y="171" type="line"/>
      <point x="445" y="321" type="line"/>
      <point x="73" y="470" type="line"/>
      <point x="73" y="575" type="line"/>
    </contour>
  </outline>
</glyph>
<glyph name="question" format="2">
  <advance width="614"/>
  <unicode hex="003F"/>
  <outline>
    <contour>
      <point x="293" y="258" type="qcurve"/>
      <point x="218" y="258" type="line"/>
      <point x="209" y="299"/>
      <point x="202" y="344"/>
      <point x="202" y="359" type="qcurve"/>
      <point x="202" y="378"/>
      <point x="226" y="403"/>
      <point x="259" y="419" type="qcurve"/>
      <point x="341" y="459" type="line"/>
      <point x="393" y="485"/>
      <point x="430" y="521"/>
      <point x="430" y="550" type="qcurve"/>
      <point x="430" y="590"/>
      <point x="375" y="631"/>
      <point x="321" y="631" type="qcurve"/>
      <point x="276" y="631"/>
      <point x="164" y="607"/>
      <point x="86" y="581" type="qcurve"/>
      <point x="64" y="678" type="line"/>
      <point x="153" y="705"/>
      <point x="268" y="725"/>
      <point x="332" y="725" type="qcurve"/>
      <point x="437" y="725"/>
      <point x="545" y="636"/>
      <point x="545" y="550" type="qcurve"/>
      <point x="545" y="495"/>
      <point x="491" y="425"/>
      <point x="414" y="386" type="qcurve"/>
      <point x="339" y="350" type="line"/>
      <point x="316" y="338"/>
      <point x="302" y="311"/>
    </contour>
    <contour>
      <point x="349" y="59" type="qcurve"/>
      <point x="349" y="21"/>
      <point x="300" y="-15"/>
      <point x="249" y="-15" type="qcurve"/>
      <point x="199" y="-15"/>
      <point x="152" y="21"/>
      <point x="152" y="60" type="qcurve"/>
      <point x="152" y="97"/>
      <point x="202" y="135"/>
      <point x="251" y="135" type="qcurve"/>
      <point x="302" y="135"/>
      <point x="349" y="99"/>
    </contour>
  </outline>
</glyph>
<glyph name="at" format="2">
  <advance width="614"/>
  <unicode hex="0040"/>
  <outline>
    <contour>
      <point x="483" y="-11" type="qcurve"/>
      <point x="492" y="-60" type="line"/>
      <point x="444" y="-71"/>
      <point x="375" y="-79"/>
      <point x="341" y="-79" type="qcurve"/>
      <point x="192" y="-79"/>
      <point x="60" y="107"/>
      <point x="60" y="315" type="qcurve"/>
      <point x="60" y="526"/>
      <point x="191" y="725"/>
      <point x="334" y="725" type="qcurve"/>
      <point x="415" y="725"/>
      <point x="506" y="668"/>
      <point x="529" y="604" type="qcurve"/>
      <point x="545" y="562"/>
      <point x="560" y="440"/>
      <point x="560" y="358" type="qcurve"/>
      <point x="560" y="236"/>
      <point x="479" y="129"/>
      <point x="382" y="129" type="qcurve"/>
      <point x="294" y="129"/>
      <point x="212" y="222"/>
      <point x="212" y="323" type="qcurve"/>
      <point x="212" y="422"/>
      <point x="304" y="515"/>
      <point x="402" y="515" type="qcurve"/>
      <point x="496" y="515" type="line"/>
      <point x="484" y="603"/>
      <point x="413" y="674"/>
      <point x="328" y="674" type="qcurve"/>
      <point x="214" y="674"/>
      <point x="115" y="505"/>
      <point x="115" y="320" type="qcurve"/>
      <point x="115" y="136"/>
      <point x="222" y="-28"/>
      <point x="346" y="-28" type="qcurve"/>
      <point x="377" y="-28"/>
      <point x="445" y="-20"/>
    </contour>
    <contour>
      <point x="291" y="322" type="qcurve"/>
      <point x="291" y="258"/>
      <point x="336" y="200"/>
      <point x="386" y="200" type="qcurve"/>
      <point x="453" y="200"/>
      <point x="505" y="269"/>
      <point x="505" y="356" type="qcurve"/>
      <point x="505" y="375"/>
      <point x="504" y="416"/>
      <point x="503" y="444" type="qcurve"/>
      <point x="400" y="444" type="line"/>
      <point x="342" y="444"/>
      <point x="291" y="387"/>
    </contour>
  </outline>
</glyph>
<glyph name="A" format="2">
  <advance width="614"/>
  <unicode hex="0041"/>
  <outline>
    <contour>
      <point x="195" y="155" type="line"/>
      <point x="147" y="0" type="line"/>
      <point x="35" y="0" type="line"/>
      <point x="237" y="655" type="line"/>
      <point x="377" y="655" type="line"/>
      <point x="579" y="0" type="line"/>
      <point x="461" y="0" type="line"/>
      <point x="413" y="155" type="line"/>
    </contour>
    <contour>
      <point x="304" y="538" type="line"/>
      <point x="219" y="244" type="line"/>
      <point x="388" y="244" type="line"/>
    </contour>
  </outline>
</glyph>
<glyph name="D" format="2">
  <advance width="614"/>
  <unicode hex="0044"/>
  <outline>
    <contour>
      <point x="85" y="0" type="line"/>
      <point x="85" y="655" type="line"/>
      <point x="199" y="655" type="line"/>
      <point x="375" y="655"/>
      <point x="565" y="489"/>
      <point x="565" y="335" type="qcurve"/>
      <point x="565" y="174"/>
      <point x="362" y="0"/>
      <point x="172" y="0" type="qcurve"/>
    </contour>
    <contour>
      <point x="450" y="333" type="qcurve"/>
      <point x="450" y="440"/>
      <point x="339" y="557"/>
      <point x="234" y="560" type="qcurve"/>
      <point x="197" y="562" type="line"/>
      <point x="197" y="94" type="line"/>
      <point x="212" y="95" type="line"/>
      <point x="333" y="100"/>
      <point x="450" y="217"/>
    </contour>
  </outline>
</glyph>
<glyph name="E" format="2">
  <advance width="614"/>
  <unicode hex="0045"/>
  <outline>
    <contour>
      <point x="93" y="0" type="line"/>
      <point x="93" y="655" type="line"/>
      <point x="538" y="655" type="line"/>
      <point x="538" y="561" type="line"/>
      <point x="206" y="561" type="line"/>
      <point x="206" y="377" type="line"/>
      <point x="494" y="377" type="line"/>
      <point x="494" y="284" type="line"/>
      <point x="206" y="284" type="line"/>
      <point x="206" y="94" type="line"/>
      <point x="542" y="94" type="line"/>
      <point x="542" y="0" type="line"/>
    </contour>
  </outline>
</glyph>
<glyph name="I" format="2">
  <advance width="614"/>
  <unicode hex="0049"/>
  <outline>
    <contour>
      <point x="123" y="0" type="line"/>
      <point x="123" y="59" type="line"/>
      <point x="252" y="83" type="line"/>
      <point x="252" y="572" type="line"/>
      <point x="123" y="596" type="line"/>
      <point x="123" y="655" type="line"/>
      <point x="491" y="655" type="line"/>
      <point x="491" y="596" type="line"/>
      <point x="364" y="572" type="line"/>
      <point x="364" y="83" type="line"/>
      <point x="491" y="59" type="line"/>
      <point x="491" y="0" type="line"/>
    </contour>
  </outline>
</glyph>
<glyph name="N" format="2">
  <advance width="614"/>
  <unicode hex="004E"/>
  <outline>
    <contour>
      <point x="181" y="483" type="line"/>
      <point x="187" y="0" type="line"/>
      <point x="83" y="0" type="line"/>
      <point x="83" y="655" type="line"/>
      <point x="207" y="655" type="line"/>
      <point x="433" y="180" type="line"/>
      <point x="427" y="655" type="line"/>
      <point x="531" y="655" type="line"/>
      <point x="531" y="0" type="line"/>
      <point x="411" y="0" type="line"/>
    </contour>
  </outline>
</glyph>
<glyph name="P" format="2">
  <advance width="614"/>
  <unicode hex="0050"/>
  <outline>
    <contour>
      <point x="88" y="0" type="line"/>
      <point x="88" y="655" type="line"/>
      <point x="314" y="655" type="line"/>
      <point x="436" y="655"/>
      <point x="572" y="542"/>
      <point x="572" y="441" type="qcurve"/>
      <point x="572" y="336"/>
      <point x="433" y="222"/>
      <point x="305" y="222" type="qcurve"/>
      <point x="201" y="222" type="line"/>
      <point x="201" y="0" type="line"/>
    </contour>
    <contour>
      <point x="458" y="439" type="qcurve"/>
      <point x="458" y="498"/>
      <point x="387" y="561"/>
      <point x="319" y="561" type="qcurve"/>
      <point x="201" y="561" type="line"/>
      <point x="201" y="313" type="line"/>
      <point x="312" y="313" type="line"/>
      <point x="382" y="313"/>
      <point x="458" y="379"/>
    </contour>
  </outline>
</glyph>
<glyph name="Q" format="2">
  <advance width="614"/>
  <unicode hex="0051"/>
  <outline>
    <contour>
      <point x="477" y="61" type="qcurve"/>
      <point x="616" y="-110" type="line"/>
      <point x="518" y="-173" type="line"/>
      <point x="407" y="9" type="line"/>
      <point x="384" y="-2"/>
      <point x="334" y="-13"/>
      <point x="306" y="-13" type="qcurve"/>
      <point x="184" y="-13"/>
      <point x="53" y="161"/>
      <point x="53" y="325" type="qcurve"/>
      <point x="53" y="491"/>
      <point x="186" y="670"/>
      <point x="308" y="670" type="qcurve"/>
      <point x="430" y="670"/>
      <point x="561" y="494"/>
      <point x="561" y="328" type="qcurve"/>
      <point x="561" y="242"/>
      <point x="518" y="106"/>
    </contour>
    <contour>
      <point x="307" y="576" type="qcurve"/>
      <point x="236" y="576"/>
      <point x="168" y="454"/>
      <point x="168" y="327" type="qcurve"/>
      <point x="168" y="201"/>
      <point x="237" y="78"/>
      <point x="307" y="78" type="qcurve"/>
      <point x="381" y="78"/>
      <point x="446" y="196"/>
      <point x="446" y="326" type="qcurve"/>
      <point x="446" y="452"/>
      <point x="377" y="576"/>
    </contour>
  </outline>
</glyph>
<glyph name="R" format="2">
  <advance width="614"/>
  <unicode hex="0052"/>
  <outline>
    <contour>
      <point x="443" y="182" type="qcurve"/>
      <point x="590" y="4" type="line"/>
      <point x="590" y="0" type="line"/>
      <point x="449" y="0" type="line"/>
      <point x="327" y="165" type="line"/>
      <point x="292" y="213"/>
      <point x="242" y="245"/>
      <point x="200" y="250" type="qcurve"/>
      <point x="200" y="0" type="line"/>
      <point x="88" y="0" type="line"/>
      <point x="88" y="655" type="line"/>
      <point x="331" y="655" type="line"/>
      <point x="434" y="655"/>
      <point x="546" y="559"/>
      <point x="546" y="471" type="qcurve"/>
      <point x="546" y="387"/>
      <point x="442" y="295"/>
      <point x="332" y="278" type="qcurve"/>
      <point x="332" y="272" type="line"/>
      <point x="367" y="256"/>
      <point x="414" y="217"/>
    </contour>
    <contour>
      <point x="433" y="461" type="qcurve"/>
      <point x="433" y="513"/>
      <point x="373" y="565"/>
      <point x="313" y="565" type="qcurve"/>
      <point x="200" y="565" type="line"/>
      <point x="200" y="327" type="line"/>
      <point x="236" y="332" type="line"/>
      <point x="341" y="345"/>
      <point x="433" y="403"/>
    </contour>
  </outline>
</glyph>
<glyph name="W" format="2">
  <advance width="614"/>
  <unicode hex="0057"/>
  <outline>
    <contour>
      <point x="572" y="655" type="line"/>
      <point x="488" y="0" type="line"/>
      <point x="384" y="0" type="line"/>
      <point x="305" y="330" type="line"/>
      <point x="227" y="0" type="line"/>
      <point x="126" y="0" type="line"/>
      <point x="42" y="655" type="line"/>
      <point x="149" y="655" type="line"/>
      <point x="200" y="171" type="line"/>
      <point x="296" y="531" type="line"/>
      <point x="320" y="531" type="line"/>
      <point x="415" y="172" type="line"/>
      <point x="467" y="655" type="line"/>
    </contour>
  </outline>
</glyph>
<glyph name="Y" format="2">
  <advance width="614"/>
  <unicode hex="0059"/>
  <outline>
    <contour>
      <point x="461" y="655" type="line"/>
      <point x="585" y="655" type="line"/>
      <point x="363" y="280" type="line"/>
      <point x="363" y="0" type="line"/>
      <point x="251" y="0" type="line"/>
      <point x="251" y="277" type="line"/>
      <point x="29" y="655" type="line"/>
      <point x="157" y="655" type="line"/>
      <point x="309" y="384" type="line"/>
    </contour>
  </outline>
</glyph>
<glyph name="Z" format="2">
  <advance width="614"/>
  <unicode hex="005A"/>
  <outline>
    <contour>
      <point x="554" y="0" type="line"/>
      <point x="61" y="0" type="line"/>
      <point x="61" y="77" type="line"/>
      <point x="391" y="552" type="line"/>
      <point x="391" y="557" type="line"/>
      <point x="74" y="557" type="line"/>
      <point x="74" y="655" type="line"/>
      <point x="541" y="655" type="line"/>
      <point x="541" y="577" type="line"/>
      <point x="206" y="101" type="line"/>
      <point x="206" y="97" type="line"/>
      <point x="554" y="97" type="line"/>
    </contour>
  </outline>
</glyph>
<glyph name="asciicircum" format="2">
  <advance width="614"/>
  <unicode hex="005E"/>
  <outline>
    <contour>
      <point x="155" y="271" type="line"/>
      <point x="42" y="271" type="line"/>
      <point x="239" y="655" type="line"/>
      <point x="374" y="655" type="line"/>
      <point x="572" y="271" type="line"/>
      <point x="456" y="271" type="line"/>
      <point x="306" y="582" type="line"/>
    </contour>
  </outline>
</glyph>
<glyph name="grave" format="2">
  <advance width="614"/>
  <unicode hex="0060"/>
  <outline>
    <contour>
      <point x="444" y="385" type="line"/>
      <point x="339" y="385" type="line"/>
      <point x="136" y="710" type="line"/>
      <point x="302" y="710" type="line"/>
    </contour>
  </outline>
</glyph>
<glyph name="a" format="2">
  <advance width="614"/>
  <unicode hex="0061"/>
  <outline>
    <contour>
      <point x="502" y="324" type="qcurve"/>
      <point x="502" y="131" type="line"/>
      <point x="502" y="104"/>
      <point x="517" y="84"/>
      <point x="539" y="83" type="qcurve"/>
      <point x="584" y="79" type="line"/>
      <point x="575" y="-5" type="line"/>
      <point x="512" y="-1" type="line"/>
      <point x="464" y="1"/>
      <point x="411" y="30"/>
      <point x="400" y="59" type="qcurve"/>
      <point x="390" y="59" type="line"/>
      <point x="347" y="25"/>
      <point x="253" y="-9"/>
      <point x="201" y="-9" type="qcurve"/>
      <point x="134" y="-9"/>
      <point x="57" y="64"/>
      <point x="57" y="128" type="qcurve"/>
      <point x="57" y="199"/>
      <point x="133" y="265"/>
      <point x="225" y="276" type="qcurve"/>
      <point x="395" y="294" type="line"/>
      <point x="395" y="323" type="line"/>
      <point x="395" y="363"/>
      <point x="347" y="391"/>
      <point x="284" y="391" type="qcurve"/>
      <point x="255" y="391"/>
      <point x="165" y="383"/>
      <point x="113" y="375" type="qcurve"/>
      <point x="102" y="464" type="line"/>
      <point x="154" y="472"/>
      <point x="251" y="480"/>
      <point x="289" y="480" type="qcurve"/>
      <point x="404" y="480"/>
      <point x="502" y="409"/>
    </contour>
    <contour>
      <point x="166" y="135" type="qcurve"/>
      <point x="166" y="106"/>
      <point x="199" y="75"/>
      <point x="230" y="75" type="qcurve"/>
      <point x="267" y="75"/>
      <point x="344" y="108"/>
      <point x="395" y="144" type="qcurve"/>
      <point x="395" y="225" type="line"/>
      <point x="251" y="206" type="line"/>
      <point x="205" y="200"/>
      <point x="166" y="169"/>
    </contour>
  </outline>
</glyph>
<glyph name="b" format="2">
  <advance width="614"/>
  <unicode hex="0062"/>
  <outline>
    <contour>
      <point x="85" y="710" type="line"/>
      <point x="197" y="710" type="line"/>
      <point x="197" y="412" type="line"/>
      <point x="234" y="448"/>
      <point x="310" y="482"/>
      <point x="355" y="482" type="qcurve"/>
      <point x="445" y="482"/>
      <point x="562" y="351"/>
      <point x="562" y="245" type="qcurve"/>
      <point x="562" y="134"/>
      <point x="417" y="-8"/>
      <point x="301" y="-8" type="qcurve"/>
      <point x="263" y="-8"/>
      <point x="193" y="9"/>
      <point x="161" y="26" type="qcurve"/>
      <point x="105" y="-1" type="line"/>
      <point x="85" y="-1" type="line"/>
    </contour>
    <contour>
      <point x="446" y="238" type="qcurve"/>
      <point x="446" y="306"/>
      <point x="374" y="389"/>
      <point x="317" y="389" type="qcurve"/>
      <point x="286" y="389"/>
      <point x="231" y="362"/>
      <point x="197" y="331" type="qcurve"/>
      <point x="197" y="114" type="line"/>
      <point x="221" y="99"/>
      <point x="266" y="85"/>
      <point x="290" y="85" type="qcurve"/>
      <point x="360" y="85"/>
      <point x="446" y="171"/>
    </contour>
  </outline>
</glyph>
<glyph name="c" format="2">
  <advance width="614"/>
  <unicode hex="0063"/>
  <outline>
    <contour>
      <point x="332" y="390" type="qcurve"/>
      <point x="265" y="390"/>
      <point x="180" y="304"/>
      <point x="180" y="237" type="qcurve"/>
      <point x="180" y="167"/>
      <point x="261" y="80"/>
      <point x="324" y="80" type="qcurve"/>
      <point x="365" y="80"/>
      <point x="447" y="106"/>
      <point x="503" y="137" type="qcurve"/>
      <point x="552" y="60" type="line"/>
      <point x="485" y="20"/>
      <point x="377" y="-14"/>
      <point x="315" y="-14" type="qcurve"/>
      <point x="201" y="-14"/>
      <point x="63" y="123"/>
      <point x="63" y="237" type="qcurve"/>
      <point x="63" y="341"/>
      <point x="216" y="484"/>
      <point x="328" y="484" type="qcurve"/>
      <point x="389" y="484"/>
      <point x="489" y="449"/>
      <point x="549" y="410" type="qcurve"/>
      <point x="497" y="329" type="line"/>
      <point x="447" y="362"/>
      <point x="374" y="390"/>
    </contour>
  </outline>
</glyph>
<glyph name="d" format="2">
  <advance width="614"/>
  <unicode hex="0064"/>
  <outline>
    <contour>
      <point x="259" y="-10" type="qcurve"/>
      <point x="168" y="-10"/>
      <point x="52" y="121"/>
      <point x="52" y="227" type="qcurve"/>
      <point x="52" y="336"/>
      <point x="187" y="477"/>
      <point x="292" y="477" type="qcurve"/>
      <point x="330" y="477"/>
      <point x="389" y="459"/>
      <point x="417" y="439" type="qcurve"/>
      <point x="417" y="710" type="line"/>
      <point x="529" y="710" type="line"/>
      <point x="529" y="0" type="line"/>
      <point x="433" y="0" type="line"/>
      <point x="424" y="67" type="line"/>
      <point x="386" y="27"/>
      <point x="307" y="-10"/>
    </contour>
    <contour>
      <point x="313" y="386" type="qcurve"/>
      <point x="247" y="386"/>
      <point x="168" y="302"/>
      <point x="168" y="233" type="qcurve"/>
      <point x="168" y="165"/>
      <point x="240" y="83"/>
      <point x="297" y="83" type="qcurve"/>
      <point x="328" y="83"/>
      <point x="383" y="110"/>
      <point x="417" y="141" type="qcurve"/>
      <point x="417" y="346" type="line"/>
      <point x="390" y="366"/>
      <point x="340" y="386"/>
    </contour>
  </outline>
</glyph>
<glyph name="e" format="2">
  <advance width="614"/>
  <unicode hex="0065"/>
  <outline>
    <contour>
      <point x="369" y="79" type="qcurve"/>
      <point x="457" y="77" type="line"/>
      <point x="453" y="-10" type="line"/>
      <point x="333" y="-8" type="line"/>
      <point x="198" y="-6"/>
      <point x="67" y="111"/>
      <point x="67" y="229" type="qcurve"/>
      <point x="67" y="340"/>
      <point x="207" y="486"/>
      <point x="316" y="486" type="qcurve"/>
      <point x="423" y="486"/>
      <point x="548" y="357"/>
      <point x="548" y="245" type="qcurve"/>
      <point x="548" y="232"/>
      <point x="545" y="207"/>
      <point x="543" y="197" type="qcurve"/>
      <point x="177" y="197" type="line"/>
      <point x="186" y="136"/>
      <point x="274" y="82"/>
    </contour>
    <contour>
      <point x="317" y="400" type="qcurve"/>
      <point x="262" y="400"/>
      <point x="188" y="334"/>
      <point x="178" y="276" type="qcurve"/>
      <point x="439" y="276" type="line"/>
      <point x="435" y="336"/>
      <point x="371" y="400"/>
    </contour>
  </outline>
</glyph>
<glyph name="f" format="2">
  <advance width="614"/>
  <unicode hex="0066"/>
  <outline>
    <contour>
      <point x="225" y="365" type="line"/>
      <point x="72" y="365" type="line"/>
      <point x="72" y="460" type="line"/>
      <point x="225" y="460" type="line"/>
      <point x="225" y="512" type="line"/>
      <point x="225" y="618"/>
      <point x="308" y="703"/>
      <point x="419" y="711" type="qcurve"/>
      <point x="551" y="720" type="line"/>
      <point x="558" y="624" type="line"/>
      <point x="429" y="616" type="line"/>
      <point x="375" y="612"/>
      <point x="333" y="570"/>
      <point x="333" y="519" type="qcurve"/>
      <point x="333" y="460" type="line"/>
      <point x="517" y="460" type="line"/>
      <point x="517" y="365" type="line"/>
      <point x="336" y="365" type="line"/>
      <point x="336" y="0" type="line"/>
      <point x="225" y="0" type="line"/>
    </contour>
  </outline>
</glyph>
<glyph name="g" format="2">
  <advance width="614"/>
  <unicode hex="0067"/>
  <outline>
    <contour>
      <point x="255" y="14" type="qcurve"/>
      <point x="168" y="14"/>
      <point x="52" y="140"/>
      <point x="52" y="240" type="qcurve"/>
      <point x="52" y="346"/>
      <point x="197" y="482"/>
      <point x="313" y="482" type="qcurve"/>
      <point x="348" y="482"/>
      <point x="417" y="466"/>
      <point x="448" y="451" type="qcurve"/>
      <point x="513" y="475" type="line"/>
      <point x="530" y="475" type="line"/>
      <point x="530" y="1" type="line"/>
      <point x="530" y="-121"/>
      <point x="427" y="-225"/>
      <point x="304" y="-231" type="qcurve"/>
      <point x="136" y="-239" type="line"/>
      <point x="132" y="-144" type="line"/>
      <point x="292" y="-135" type="line"/>
      <point x="360" y="-131"/>
      <point x="418" y="-70"/>
      <point x="418" y="-2" type="qcurve"/>
      <point x="418" y="84" type="line"/>
      <point x="382" y="47"/>
      <point x="305" y="14"/>
    </contour>
    <contour>
      <point x="325" y="388" type="qcurve"/>
      <point x="254" y="388"/>
      <point x="168" y="308"/>
      <point x="168" y="247" type="qcurve"/>
      <point x="168" y="184"/>
      <point x="240" y="107"/>
      <point x="297" y="107" type="qcurve"/>
      <point x="328" y="107"/>
      <point x="384" y="134"/>
      <point x="418" y="164" type="qcurve"/>
      <point x="418" y="360" type="line"/>
      <point x="395" y="374"/>
      <point x="349" y="388"/>
    </contour>
  </outline>
</glyph>
<glyph name="l" format="2">
  <advance width="614"/>
  <unicode hex="006C"/>
  <outline>
    <contour>
      <point x="230" y="182" type="qcurve"/>
      <point x="230" y="615" type="line"/>
      <point x="58" y="615" type="line"/>
      <point x="58" y="710" type="line"/>
      <point x="341" y="710" type="line"/>
      <point x="341" y="192" type="line"/>
      <point x="341" y="142"/>
      <point x="380" y="99"/>
      <point x="429" y="96" type="qcurve"/>
      <point x="538" y="90" type="line"/>
      <point x="533" y="-6" type="line"/>
      <point x="409" y="0" type="line"/>
      <point x="307" y="5"/>
      <point x="230" y="84"/>
    </contour>
  </outline>
</glyph>
<glyph name="p" format="2">
  <advance width="614"/>
  <unicode hex="0070"/>
  <outline>
    <contour>
      <point x="197" y="-230" type="line"/>
      <point x="85" y="-230" type="line"/>
      <point x="85" y="471" type="line"/>
      <point x="181" y="471" type="line"/>
      <point x="190" y="399" type="line"/>
      <point x="231" y="442"/>
      <point x="310" y="480"/>
      <point x="359" y="480" type="qcurve"/>
      <point x="447" y="480"/>
      <point x="562" y="348"/>
      <point x="562" y="244" type="qcurve"/>
      <point x="562" y="135"/>
      <point x="432" y="-6"/>
      <point x="334" y="-6" type="qcurve"/>
      <point x="294" y="-6"/>
      <point x="229" y="20"/>
      <point x="197" y="48" type="qcurve"/>
    </contour>
    <contour>
      <point x="446" y="237" type="qcurve"/>
      <point x="446" y="305"/>
      <point x="374" y="388"/>
      <point x="317" y="388" type="qcurve"/>
      <point x="286" y="388"/>
      <point x="231" y="361"/>
      <point x="197" y="330" type="qcurve"/>
      <point x="197" y="126" type="line"/>
      <point x="224" y="105"/>
      <point x="273" y="85"/>
      <point x="299" y="85" type="qcurve"/>
      <point x="366" y="85"/>
      <point x="446" y="169"/>
    </contour>
  </outline>
</glyph>
<glyph name="q" format="2">
  <advance width="614"/>
  <unicode hex="0071"/>
  <outline>
    <contour>
      <point x="259" y="-11" type="qcurve"/>
      <point x="168" y="-11"/>
      <point x="52" y="120"/>
      <point x="52" y="226" type="qcurve"/>
      <point x="52" y="337"/>
      <point x="197" y="479"/>
      <point x="313" y="479" type="qcurve"/>
      <point x="350" y="479"/>
      <point x="420" y="462"/>
      <point x="453" y="445" type="qcurve"/>
      <point x="509" y="471" type="line"/>
      <point x="529" y="471" type="line"/>
      <point x="529" y="-230" type="line"/>
      <point x="417" y="-230" type="line"/>
      <point x="417" y="59" type="line"/>
      <point x="381" y="23"/>
      <point x="305" y="-11"/>
    </contour>
    <contour>
      <point x="324" y="385" type="qcurve"/>
      <point x="254" y="385"/>
      <point x="168" y="299"/>
      <point x="168" y="232" type="qcurve"/>
      <point x="168" y="165"/>
      <point x="240" y="82"/>
      <point x="297" y="82" type="qcurve"/>
      <point x="328" y="82"/>
      <point x="383" y="109"/>
      <point x="417" y="140" type="qcurve"/>
      <point x="417" y="357" type="line"/>
      <point x="392" y="371"/>
      <point x="347" y="385"/>
    </contour>
  </outline>
</glyph>
<glyph name="t" format="2">
  <advance width="614"/>
  <unicode hex="0074"/>
  <outline>
    <contour>
      <point x="209" y="186" type="qcurve"/>
      <point x="209" y="376" type="line"/>
      <point x="57" y="376" type="line"/>
      <point x="57" y="471" type="line"/>
      <point x="210" y="471" type="line"/>
      <point x="210" y="639" type="line"/>
      <point x="319" y="639" type="line"/>
      <point x="319" y="471" type="line"/>
      <point x="517" y="471" type="line"/>
      <point x="517" y="376" type="line"/>
      <point x="321" y="376" type="line"/>
      <point x="321" y="200" type="line"/>
      <point x="321" y="142"/>
      <point x="356" y="100"/>
      <point x="407" y="97" type="qcurve"/>
      <point x="543" y="89" type="line"/>
      <point x="535" y="-7" type="line"/>
      <point x="381" y="0" type="line"/>
      <point x="279" y="5"/>
      <point x="209" y="81"/>
    </contour>
  </outline>
</glyph>
<glyph name="v" format="2">
  <advance width="614"/>
  <unicode hex="0076"/>
  <outline>
    <contour>
      <point x="239" y="0" type="line"/>
      <point x="46" y="471" type="line"/>
      <point x="170" y="471" type="line"/>
      <point x="310" y="98" type="line"/>
      <point x="450" y="471" type="line"/>
      <point x="568" y="471" type="line"/>
      <point x="376" y="0" type="line"/>
    </contour>
  </outline>
</glyph>
<glyph name="w" format="2">
  <advance width="614"/>
  <unicode hex="0077"/>
  <outline>
    <contour>
      <point x="578" y="471" type="line"/>
      <point x="486" y="0" type="line"/>
      <point x="380" y="0" type="line"/>
      <point x="305" y="224" type="line"/>
      <point x="230" y="0" type="line"/>
      <point x="127" y="0" type="line"/>
      <point x="37" y="471" type="line"/>
      <point x="144" y="471" type="line"/>
      <point x="201" y="127" type="line"/>
      <point x="300" y="411" type="line"/>
      <point x="315" y="411" type="line"/>
      <point x="414" y="131" type="line"/>
      <point x="471" y="471" type="line"/>
    </contour>
  </outline>
</glyph>
<glyph name="x" format="2">
  <advance width="614"/>
  <unicode hex="0078"/>
  <outline>
    <contour>
      <point x="181" y="0" type="line"/>
      <point x="51" y="0" type="line"/>
      <point x="237" y="242" type="line"/>
      <point x="63" y="471" type="line"/>
      <point x="199" y="471" type="line"/>
      <point x="308" y="312" type="line"/>
      <point x="418" y="471" type="line"/>
      <point x="549" y="471" type="line"/>
      <point x="375" y="242" type="line"/>
      <point x="564" y="0" type="line"/>
      <point x="429" y="0" type="line"/>
      <point x="305" y="179" type="line"/>
    </contour>
  </outline>
</glyph>
<glyph name="braceleft" format="2">
  <advance width="614"/>
  <unicode hex="007B"/>
  <outline>
    <contour>
      <point x="185" y="-11" type="qcurve"/>
      <point x="185" y="12"/>
      <point x="210" y="59"/>
      <point x="237" y="88" type="qcurve"/>
      <point x="286" y="140" type="line"/>
      <point x="302" y="158"/>
      <point x="315" y="178"/>
      <point x="315" y="187" type="qcurve"/>
      <point x="315" y="204"/>
      <point x="263" y="229"/>
      <point x="200" y="247" type="qcurve"/>
      <point x="175" y="255"/>
      <point x="109" y="272"/>
      <point x="68" y="282" type="qcurve"/>
      <point x="68" y="380" type="line"/>
      <point x="109" y="390"/>
      <point x="175" y="407"/>
      <point x="200" y="415" type="qcurve"/>
      <point x="263" y="433"/>
      <point x="315" y="458"/>
      <point x="315" y="475" type="qcurve"/>
      <point x="315" y="484"/>
      <point x="303" y="503"/>
      <point x="286" y="522" type="qcurve"/>
      <point x="237" y="574" type="line"/>
      <point x="210" y="603"/>
      <point x="185" y="650"/>
      <point x="185" y="673" type="qcurve"/>
      <point x="185" y="715"/>
      <point x="245" y="760"/>
      <point x="311" y="770" type="qcurve"/>
      <point x="551" y="805" type="line"/>
      <point x="565" y="711" type="line"/>
      <point x="345" y="680" type="line"/>
      <point x="326" y="677"/>
      <point x="310" y="666"/>
      <point x="310" y="655" type="qcurve"/>
      <point x="310" y="648"/>
      <point x="322" y="629"/>
      <point x="338" y="611" type="qcurve"/>
      <point x="387" y="559" type="line"/>
      <point x="417" y="527"/>
      <point x="442" y="487"/>
      <point x="442" y="468" type="qcurve"/>
      <point x="442" y="436"/>
      <point x="385" y="396"/>
      <point x="321" y="376" type="qcurve"/>
      <point x="290" y="367"/>
      <point x="211" y="347"/>
      <point x="161" y="337" type="qcurve"/>
      <point x="161" y="325" type="line"/>
      <point x="211" y="315"/>
      <point x="290" y="295"/>
      <point x="320" y="285" type="qcurve"/>
      <point x="385" y="265"/>
      <point x="442" y="225"/>
      <point x="442" y="194" type="qcurve"/>
      <point x="442" y="175"/>
      <point x="417" y="135"/>
      <point x="387" y="103" type="qcurve"/>
      <point x="338" y="51" type="line"/>
      <point x="323" y="34"/>
      <point x="310" y="15"/>
      <point x="310" y="7" type="qcurve"/>
      <point x="310" y="-4"/>
      <point x="326" y="-15"/>
      <point x="345" y="-18" type="qcurve"/>
      <point x="565" y="-49" type="line"/>
      <point x="551" y="-143" type="line"/>
      <point x="311" y="-108" type="line"/>
      <point x="245" y="-98"/>
      <point x="185" y="-53"/>
    </contour>
  </outline>
</glyph>
<glyph name="braceright" format="2">
  <advance width="614"/>
  <unicode hex="007D"/>
  <outline>
    <contour>
      <point x="429" y="-11" type="qcurve"/>
      <point x="429" y="-53"/>
      <point x="369" y="-98"/>
      <point x="303" y="-108" type="qcurve"/>
      <point x="63" y="-143" type="line"/>
      <point x="49" y="-49" type="line"/>
      <point x="269" y="-18" type="line"/>
      <point x="288" y="-15"/>
      <point x="304" y="-4"/>
      <point x="304" y="7" type="qcurve"/>
      <point x="304" y="15"/>
      <point x="291" y="34"/>
      <point x="276" y="51" type="qcurve"/>
      <point x="227" y="103" type="line"/>
      <point x="197" y="135"/>
      <point x="172" y="175"/>
      <point x="172" y="194" type="qcurve"/>
      <point x="172" y="225"/>
      <point x="229" y="265"/>
      <point x="294" y="285" type="qcurve"/>
      <point x="324" y="295"/>
      <point x="403" y="315"/>
      <point x="453" y="325" type="qcurve"/>
      <point x="453" y="337" type="line"/>
      <point x="403" y="347"/>
      <point x="324" y="367"/>
      <point x="294" y="377" type="qcurve"/>
      <point x="229" y="397"/>
      <point x="172" y="437"/>
      <point x="172" y="468" type="qcurve"/>
      <point x="172" y="487"/>
      <point x="197" y="527"/>
      <point x="227" y="559" type="qcurve"/>
      <point x="276" y="611" type="line"/>
      <point x="291" y="628"/>
      <point x="304" y="647"/>
      <point x="304" y="655" type="qcurve"/>
      <point x="304" y="666"/>
      <point x="288" y="677"/>
      <point x="269" y="680" type="qcurve"/>
      <point x="49" y="711" type="line"/>
      <point x="63" y="805" type="line"/>
      <point x="303" y="770" type="line"/>
      <point x="369" y="760"/>
      <point x="429" y="715"/>
      <point x="429" y="673" type="qcurve"/>
      <point x="429" y="650"/>
      <point x="404" y="603"/>
      <point x="377" y="574" type="qcurve"/>
      <point x="328" y="522" type="line"/>
      <point x="312" y="504"/>
      <point x="299" y="484"/>
      <point x="299" y="475" type="qcurve"/>
      <point x="299" y="458"/>
      <point x="351" y="433"/>
      <point x="414" y="415" type="qcurve"/>
      <point x="439" y="407"/>
      <point x="505" y="390"/>
      <point x="546" y="380" type="qcurve"/>
      <point x="546" y="282" type="line"/>
      <point x="505" y="272"/>
      <point x="439" y="255"/>
      <point x="414" y="247" type="qcurve"/>
      <point x="351" y="229"/>
      <point x="299" y="204"/>
      <point x="299" y="187" type="qcurve"/>
      <point x="299" y="178"/>
      <point x="312" y="158"/>
      <point x="328" y="140" type="qcurve"/>
      <point x="377" y="88" type="line"/>
      <point x="404" y="59"/>
      <point x="429" y="12"/>
    </contour>
  </outline>
</glyph>
<glyph name="exclamdown" format="2">
  <advance width="614"/>
  <unicode hex="00A1"/>
  <outline>
    <contour>
      <point x="214" y="651" type="qcurve"/>
      <point x="214" y="688"/>
      <point x="263" y="725"/>
      <point x="313" y="725" type="qcurve"/>
      <point x="363" y="725"/>
      <point x="410" y="689"/>
      <point x="410" y="650" type="qcurve"/>
      <point x="410" y="613"/>
      <point x="360" y="575"/>
      <point x="311" y="575" type="qcurve"/>
      <point x="260" y="575"/>
      <point x="214" y="611"/>
    </contour>
    <contour>
      <point x="271" y="452" type="line"/>
      <point x="344" y="452" type="line"/>
      <point x="412" y="0" type="line"/>
      <point x="202" y="0" type="line"/>
    </contour>
  </outline>
</glyph>
<glyph name="sterling" format="2">
  <advance width="614"/>
  <unicode hex="00A3"/>
  <outline>
    <contour>
      <point x="557" y="0" type="line"/>
      <point x="66" y="0" type="line"/>
      <point x="66" y="89" type="line"/>
      <point x="140" y="156"/>
      <point x="213" y="229"/>
      <point x="225" y="249" type="qcurve"/>
      <point x="78" y="249" type="line"/>
      <point x="78" y="315" type="line"/>
      <point x="221" y="315" type="line"/>
      <point x="213" y="325"/>
      <point x="186" y="351"/>
      <point x="166" y="369" type="qcurve"/>
      <point x="124" y="406"/>
      <point x="93" y="463"/>
      <point x="93" y="502" type="qcurve"/>
      <point x="93" y="573"/>
      <point x="212" y="670"/>
      <point x="305" y="670" type="qcurve"/>
      <point x="370" y="670"/>
      <point x="484" y="620"/>
      <point x="558" y="559" type="qcurve"/>
      <point x="497" y="481" type="line"/>
      <point x="431" y="537"/>
      <point x="354" y="576"/>
      <point x="313" y="576" type="qcurve"/>
      <point x="267" y="576"/>
      <point x="208" y="531"/>
      <point x="208" y="498" type="qcurve"/>
      <point x="208" y="473"/>
      <point x="230" y="435"/>
      <point x="258" y="408" type="qcurve"/>
      <point x="286" y="382"/>
      <point x="318" y="342"/>
      <point x="325" y="323" type="qcurve"/>
      <point x="504" y="323" type="line"/>
      <point x="504" y="256" type="line"/>
      <point x="327" y="256" type="line"/>
      <point x="321" y="227"/>
      <point x="263" y="154"/>
      <point x="200" y="94" type="qcurve"/>
      <point x="557" y="94" type="line"/>
    </contour>
  </outline>
</glyph>
<glyph name="section" format="2">
  <advance width="614"/>
  <unicode hex="00A7"/>
  <outline>
    <contour>
      <point x="53" y="192" type="qcurve"/>
      <point x="53" y="250"/>
      <point x="122" y="329"/>
      <point x="205" y="372" type="qcurve"/>
      <point x="151" y="398"/>
      <point x="103" y="465"/>
      <point x="103" y="514" type="qcurve"/>
      <point x="103" y="588"/>
      <point x="216" y="668"/>
      <point x="322" y="668" type="qcurve"/>
      <point x="369" y="668"/>
      <point x="457" y="657"/>
      <point x="525" y="643" type="qcurve"/>
      <point x="511" y="547" type="line"/>
      <point x="449" y="562"/>
      <point x="357" y="575"/>
      <point x="320" y="575" type="qcurve"/>
      <point x="266" y="575"/>
      <point x="215" y="550"/>
      <point x="215" y="522" type="qcurve"/>
      <point x="215" y="500"/>
      <point x="246" y="473"/>
      <point x="287" y="455" type="qcurve"/>
      <point x="410" y="403" type="line"/>
      <point x="491" y="369"/>
      <point x="561" y="293"/>
      <point x="561" y="236" type="qcurve"/>
      <point x="561" y="178"/>
      <point x="492" y="99"/>
      <point x="409" y="56" type="qcurve"/>
      <point x="463" y="30"/>
      <point x="511" y="-37"/>
      <point x="511" y="-86" type="qcurve"/>
      <point x="511" y="-160"/>
      <point x="399" y="-240"/>
      <point x="292" y="-240" type="qcurve"/>
      <point x="245" y="-240"/>
      <point x="157" y="-229"/>
      <point x="89" y="-215" type="qcurve"/>
      <point x="103" y="-119" type="line"/>
      <point x="165" y="-133"/>
      <point x="257" y="-147"/>
      <point x="294" y="-147" type="qcurve"/>
      <point x="348" y="-147"/>
      <point x="399" y="-122"/>
      <point x="399" y="-93" type="qcurve"/>
      <point x="399" y="-72"/>
      <point x="368" y="-44"/>
      <point x="327" y="-27" type="qcurve"/>
      <point x="204" y="25" type="line"/>
      <point x="123" y="59"/>
      <point x="53" y="135"/>
    </contour>
    <contour>
      <point x="166" y="215" type="qcurve"/>
      <point x="166" y="183"/>
      <point x="209" y="143"/>
      <point x="262" y="120" type="qcurve"/>
      <point x="330" y="91" type="line"/>
      <point x="393" y="126"/>
      <point x="448" y="180"/>
      <point x="448" y="213" type="qcurve"/>
      <point x="448" y="245"/>
      <point x="405" y="286"/>
      <point x="352" y="308" type="qcurve"/>
      <point x="284" y="337" type="line"/>
      <point x="221" y="301"/>
      <point x="166" y="248"/>
    </contour>
  </outline>
</glyph>
<glyph name="copyright" format="2">
  <advance width="614"/>
  <unicode hex="00A9"/>
  <outline>
    <contour>
      <point x="307" y="725" type="qcurve"/>
      <point x="438" y="725"/>
      <point x="557" y="533"/>
      <point x="557" y="328" type="qcurve"/>
      <point x="557" y="123"/>
      <point x="437" y="-70"/>
      <point x="307" y="-70" type="qcurve"/>
      <point x="177" y="-70"/>
      <point x="57" y="123"/>
      <point x="57" y="328" type="qcurve"/>
      <point x="57" y="532"/>
      <point x="177" y="725"/>
    </contour>
    <contour>
      <point x="307" y="680" type="qcurve"/>
      <point x="199" y="680"/>
      <point x="106" y="513"/>
      <point x="106" y="328" type="qcurve"/>
      <point x="106" y="143"/>
      <point x="199" y="-25"/>
      <point x="307" y="-25" type="qcurve"/>
      <point x="415" y="-25"/>
      <point x="508" y="143"/>
      <point x="508" y="328" type="qcurve"/>
      <point x="508" y="513"/>
      <point x="415" y="680"/>
    </contour>
    <contour>
      <point x="310" y="97" type="qcurve"/>
      <point x="248" y="97"/>
      <point x="179" y="217"/>
      <point x="179" y="326" type="qcurve"/>
      <point x="179" y="430"/>
      <point x="257" y="558"/>
      <point x="319" y="558" type="qcurve"/>
      <point x="360" y="558"/>
      <point x="413" y="514"/>
      <point x="443" y="460" type="qcurve"/>
      <point x="392" y="424" type="line"/>
      <point x="368" y="464"/>
      <point x="339" y="492"/>
      <point x="319" y="492" type="qcurve"/>
      <point x="288" y="492"/>
      <point x="250" y="403"/>
      <point x="250" y="328" type="qcurve"/>
      <point x="250" y="249"/>
      <point x="285" y="163"/>
      <point x="316" y="163" type="qcurve"/>
      <point x="341" y="163"/>
      <point x="376" y="191"/>
      <point x="397" y="222" type="qcurve"/>
      <point x="445" y="187" type="line"/>
      <point x="415" y="140"/>
      <point x="354" y="97"/>
    </contour>
  </outline>
</glyph>
<glyph name="degree" format="2">
  <advance width="614"/>
  <unicode hex="00B0"/>
  <outline>
    <contour>
      <point x="307" y="288" type="qcurve"/>
      <point x="214" y="288"/>
      <point x="98" y="399"/>
      <point x="98" y="489" type="qcurve"/>
      <point x="98" y="579"/>
      <point x="215" y="692"/>
      <point x="308" y="692" type="qcurve"/>
      <point x="401" y="692"/>
      <point x="516" y="581"/>
      <point x="516" y="490" type="qcurve"/>
      <point x="516" y="400"/>
      <point x="400" y="288"/>
    </contour>
    <contour>
      <point x="426" y="489" type="qcurve"/>
      <point x="426" y="543"/>
      <point x="359" y="613"/>
      <point x="307" y="613" type="qcurve"/>
      <point x="254" y="613"/>
      <point x="189" y="545"/>
      <point x="189" y="490" type="qcurve"/>
      <point x="189" y="435"/>
      <point x="255" y="366"/>
      <point x="308" y="366" type="qcurve"/>
      <point x="360" y="366"/>
      <point x="426" y="434"/>
    </contour>
  </outline>
</glyph>
<glyph name="plusminus" format="2">
  <advance width="614"/>
  <unicode hex="00B1"/>
  <outline>
    <contour>
      <point x="255" y="385" type="line"/>
      <point x="66" y="385" type="line"/>
      <point x="66" y="476" type="line"/>
      <point x="255" y="476" type="line"/>
      <point x="255" y="655" type="line"/>
      <point x="358" y="655" type="line"/>
      <point x="358" y="476" type="line"/>
      <point x="547" y="476" type="line"/>
      <point x="547" y="385" type="line"/>
      <point x="358" y="385" type="line"/>
      <point x="358" y="205" type="line"/>
      <point x="255" y="205" type="line"/>
    </contour>
    <contour>
      <point x="547" y="91" type="line"/>
      <point x="547" y="0" type="line"/>
      <point x="66" y="0" type="line"/>
      <point x="66" y="91" type="line"/>
    </contour>
  </outline>
</glyph>
<glyph name="mu" format="2">
  <advance width="614"/>
  <unicode hex="00B5"/>
  <outline>
    <contour>
      <point x="251" y="-9" type="qcurve"/>
      <point x="230" y="-9"/>
      <point x="192" y="7"/>
      <point x="176" y="23" type="qcurve"/>
      <point x="201" y="-213" type="line"/>
      <point x="201" y="-230" type="line"/>
      <point x="84" y="-230" type="line"/>
      <point x="84" y="471" type="line"/>
      <point x="196" y="471" type="line"/>
      <point x="196" y="166" type="line"/>
      <point x="196" y="130"/>
      <point x="227" y="96"/>
      <point x="260" y="96" type="qcurve"/>
      <point x="288" y="96"/>
      <point x="358" y="137"/>
      <point x="414" y="187" type="qcurve"/>
      <point x="414" y="471" type="line"/>
      <point x="526" y="471" type="line"/>
      <point x="526" y="0" type="line"/>
      <point x="427" y="0" type="line"/>
      <point x="420" y="92" type="line"/>
      <point x="359" y="32"/>
      <point x="289" y="-9"/>
    </contour>
  </outline>
</glyph>
<glyph name="multiply" format="2">
  <advance width="614"/>
  <unicode hex="00D7"/>
  <outline>
    <contour>
      <point x="305" y="265" type="line"/>
      <point x="135" y="90" type="line"/>
      <point x="67" y="158" type="line"/>
      <point x="242" y="328" type="line"/>
      <point x="68" y="496" type="line"/>
      <point x="139" y="567" type="line"/>
      <point x="308" y="394" type="line"/>
      <point x="479" y="569" type="line"/>
      <point x="547" y="502" type="line"/>
      <point x="371" y="331" type="line"/>
      <point x="546" y="162" type="line"/>
      <point x="474" y="92" type="line"/>
    </contour>
  </outline>
</glyph>
<glyph name="Oslash" format="2">
  <advance width="614"/>
  <unicode hex="00D8"/>
  <outline>
    <contour>
      <point x="561" y="328" type="qcurve"/>
      <point x="561" y="163"/>
      <point x="428" y="-15"/>
      <point x="306" y="-15" type="qcurve"/>
      <point x="270" y="-15"/>
      <point x="203" y="5"/>
      <point x="174" y="25" type="qcurve"/>
      <point x="123" y="-71" type="line"/>
      <point x="32" y="-71" type="line"/>
      <point x="122" y="76" type="line"/>
      <point x="88" y="122"/>
      <point x="53" y="249"/>
      <point x="53" y="326" type="qcurve"/>
      <point x="53" y="491"/>
      <point x="186" y="670"/>
      <point x="308" y="670" type="qcurve"/>
      <point x="344" y="670"/>
      <point x="410" y="650"/>
      <point x="438" y="630" type="qcurve"/>
      <point x="489" y="726" type="line"/>
      <point x="582" y="726" type="line"/>
      <point x="491" y="579" type="line"/>
      <point x="525" y="533"/>
      <point x="561" y="405"/>
    </contour>
    <contour>
      <point x="307" y="576" type="qcurve"/>
      <point x="236" y="576"/>
      <point x="168" y="454"/>
      <point x="168" y="328" type="qcurve"/>
      <point x="168" y="197"/>
      <point x="233" y="79"/>
      <point x="307" y="79" type="qcurve"/>
      <point x="378" y="79"/>
      <point x="446" y="201"/>
      <point x="446" y="326" type="qcurve"/>
      <point x="446" y="456"/>
      <point x="380" y="576"/>
    </contour>
  </outline>
</glyph>
<glyph name="ae" format="2">
  <advance width="614"/>
  <unicode hex="00E6"/>
  <outline>
    <contour>
      <point x="473" y="77" type="qcurve"/>
      <point x="517" y="74" type="line"/>
      <point x="513" y="-10" type="line"/>
      <point x="448" y="-8" type="line"/>
      <point x="391" y="-7"/>
      <point x="313" y="27"/>
      <point x="290" y="59" type="qcurve"/>
      <point x="269" y="59" type="line"/>
      <point x="231" y="23"/>
      <point x="167" y="-9"/>
      <point x="133" y="-9" type="qcurve"/>
      <point x="80" y="-9"/>
      <point x="21" y="63"/>
      <point x="21" y="128" type="qcurve"/>
      <point x="21" y="193"/>
      <point x="88" y="261"/>
      <point x="166" y="276" type="qcurve"/>
      <point x="248" y="292" type="line"/>
      <point x="248" y="323" type="line"/>
      <point x="248" y="365"/>
      <point x="221" y="396"/>
      <point x="184" y="396" type="qcurve"/>
      <point x="163" y="396"/>
      <point x="110" y="390"/>
      <point x="75" y="383" type="qcurve"/>
      <point x="65" y="469" type="line"/>
      <point x="101" y="475"/>
      <point x="171" y="482"/>
      <point x="201" y="482" type="qcurve"/>
      <point x="248" y="482"/>
      <point x="308" y="451"/>
      <point x="323" y="419" type="qcurve"/>
      <point x="347" y="450"/>
      <point x="404" y="482"/>
      <point x="436" y="482" type="qcurve"/>
      <point x="508" y="482"/>
      <point x="594" y="354"/>
      <point x="594" y="245" type="qcurve"/>
      <point x="594" y="233"/>
      <point x="592" y="209"/>
      <point x="590" y="197" type="qcurve"/>
      <point x="350" y="197" type="line"/>
      <point x="355" y="134"/>
      <point x="411" y="80"/>
    </contour>
    <contour>
      <point x="429" y="399" type="qcurve"/>
      <point x="399" y="399"/>
      <point x="357" y="333"/>
      <point x="351" y="276" type="qcurve"/>
      <point x="493" y="276" type="line"/>
      <point x="490" y="335"/>
      <point x="457" y="399"/>
    </contour>
    <contour>
      <point x="128" y="135" type="qcurve"/>
      <point x="128" y="107"/>
      <point x="151" y="75"/>
      <point x="171" y="75" type="qcurve"/>
      <point x="188" y="75"/>
      <point x="222" y="92"/>
      <point x="261" y="121" type="qcurve"/>
      <point x="254" y="142"/>
      <point x="248" y="192"/>
      <point x="248" y="222" type="qcurve"/>
      <point x="195" y="208" type="line"/>
      <point x="158" y="198"/>
      <point x="128" y="167"/>
    </contour>
  </outline>
</glyph>
<glyph name="divide" format="2">
  <advance width="614"/>
  <unicode hex="00F7"/>
  <outline>
    <contour>
      <point x="393" y="546" type="qcurve"/>
      <point x="393" y="512"/>
      <point x="350" y="477"/>
      <point x="307" y="477" type="qcurve"/>
      <point x="265" y="477"/>
      <point x="223" y="511"/>
      <point x="223" y="545" type="qcurve"/>
      <point x="223" y="578"/>
      <point x="267" y="614"/>
      <point x="308" y="614" type="qcurve"/>
      <point x="350" y="614"/>
      <point x="393" y="580"/>
    </contour>
    <contour>
      <point x="547" y="283" type="line"/>
      <point x="66" y="283" type="line"/>
      <point x="66" y="374" type="line"/>
      <point x="547" y="374" type="line"/>
    </contour>
    <contour>
      <point x="393" y="113" type="qcurve"/>
      <point x="393" y="79"/>
      <point x="350" y="45"/>
      <point x="307" y="45" type="qcurve"/>
      <point x="265" y="45"/>
      <point x="223" y="78"/>
      <point x="223" y="112" type="qcurve"/>
      <point x="223" y="145"/>
      <point x="267" y="181"/>
      <point x="308" y="181" type="qcurve"/>
      <point x="350" y="181"/>
      <point x="393" y="147"/>
    </contour>
  </outline>
</glyph>
<glyph name="aogonek" format="2">
  <advance width="614"/>
  <unicode hex="0105"/>
  <outline>
    <contour>
      <point x="352" y="-156" type="qcurve"/>
      <point x="352" y="-129"/>
      <point x="397" y="-52"/>
      <point x="449" y="10" type="qcurve"/>
      <point x="430" y="17"/>
      <point x="406" y="41"/>
      <point x="400" y="59" type="qcurve"/>
      <point x="390" y="59" type="line"/>
      <point x="347" y="25"/>
      <point x="253" y="-9"/>
      <point x="201" y="-9" type="qcurve"/>
      <point x="134" y="-9"/>
      <point x="57" y="64"/>
      <point x="57" y="128" type="qcurve"/>
      <point x="57" y="199"/>
      <point x="133" y="265"/>
      <point x="225" y="276" type="qcurve"/>
      <point x="395" y="294" type="line"/>
      <point x="395" y="323" type="line"/>
      <point x="395" y="363"/>
      <point x="347" y="391"/>
      <point x="284" y="391" type="qcurve"/>
      <point x="255" y="391"/>
      <point x="165" y="383"/>
      <point x="113" y="375" type="qcurve"/>
      <point x="102" y="464" type="line"/>
      <point x="154" y="472"/>
      <point x="251" y="480"/>
      <point x="289" y="480" type="qcurve"/>
      <point x="404" y="480"/>
      <point x="502" y="409"/>
      <point x="502" y="324" type="qcurve"/>
      <point x="502" y="131" type="line"/>
      <point x="502" y="104"/>
      <point x="517" y="84"/>
      <point x="539" y="83" type="qcurve"/>
      <point x="584" y="79" type="line"/>
      <point x="575" y="-5" type="line"/>
      <point x="550" y="-4"/>
      <point x="527" y="-3"/>
      <point x="498" y="0" type="qcurve"/>
      <point x="467" y="-44"/>
      <point x="438" y="-100"/>
      <point x="438" y="-119" type="qcurve"/>
      <point x="438" y="-138"/>
      <point x="458" y="-155"/>
      <point x="481" y="-156" type="qcurve"/>
      <point x="548" y="-160" type="line"/>
      <point x="540" y="-234" type="line"/>
      <point x="445" y="-230" type="line"/>
      <point x="397" y="-228"/>
      <point x="352" y="-192"/>
    </contour>
    <contour>
      <point x="166" y="135" type="qcurve"/>
      <point x="166" y="106"/>
      <point x="199" y="75"/>
      <point x="230" y="75" type="qcurve"/>
      <point x="267" y="75"/>
      <point x="344" y="108"/>
      <point x="395" y="144" type="qcurve"/>
      <point x="395" y="225" type="line"/>
      <point x="251" y="206" type="line"/>
      <point x="205" y="200"/>
      <point x="166" y="169"/>
    </contour>
  </outline>
</glyph>
<glyph name="eogonek" format="2">
  <advance width="614"/>
  <unicode hex="0119"/>
  <outline>
    <contour>
      <point x="301" y="-156" type="qcurve"/>
      <point x="301" y="-128"/>
      <point x="344" y="-60"/>
      <point x="392" y="-9" type="qcurve"/>
      <point x="333" y="-8" type="line"/>
      <point x="198" y="-6"/>
      <point x="67" y="111"/>
      <point x="67" y="229" type="qcurve"/>
      <point x="67" y="340"/>
      <point x="207" y="486"/>
      <point x="316" y="486" type="qcurve"/>
      <point x="423" y="486"/>
      <point x="548" y="357"/>
      <point x="548" y="245" type="qcurve"/>
      <point x="548" y="232"/>
      <point x="545" y="207"/>
      <point x="543" y="197" type="qcurve"/>
      <point x="177" y="197" type="line"/>
      <point x="186" y="136"/>
      <point x="274" y="82"/>
      <point x="369" y="79" type="qcurve"/>
      <point x="457" y="77" type="line"/>
      <point x="453" y="-10" type="line"/>
      <point x="417" y="-54"/>
      <point x="386" y="-104"/>
      <point x="386" y="-119" type="qcurve"/>
      <point x="386" y="-138"/>
      <point x="406" y="-155"/>
      <point x="430" y="-156" type="qcurve"/>
      <point x="496" y="-160" type="line"/>
      <point x="488" y="-234" type="line"/>
      <point x="393" y="-230" type="line"/>
      <point x="345" y="-228"/>
      <point x="301" y="-192"/>
    </contour>
    <contour>
      <point x="317" y="400" type="qcurve"/>
      <point x="262" y="400"/>
      <point x="188" y="334"/>
      <point x="178" y="276" type="qcurve"/>
      <point x="439" y="276" type="line"/>
      <point x="435" y="336"/>
      <point x="371" y="400"/>
    </contour>
  </outline>
</glyph>
<glyph name="hbar" format="2">
  <advance width="614"/>
  <unicode hex="0127"/>
  <outline>
    <contour>
      <point x="368" y="589" type="line"/>
      <point x="368" y="523" type="line"/>
      <point x="213" y="523" type="line"/>
      <point x="213" y="332" type="line"/>
      <point x="273" y="387"/>
      <point x="351" y="428"/>
      <point x="391" y="428" type="qcurve"/>
      <point x="460" y="428"/>
      <point x="530" y="350"/>
      <point x="530" y="274" type="qcurve"/>
      <point x="530" y="0" type="line"/>
      <point x="418" y="0" type="line"/>
      <point x="418" y="254" type="line"/>
      <point x="418" y="289"/>
      <point x="387" y="323"/>
      <point x="354" y="323" type="qcurve"/>
      <point x="330" y="323"/>
      <point x="271" y="286"/>
      <point x="213" y="232" type="qcurve"/>
      <point x="213" y="0" type="line"/>
      <point x="101" y="0" type="line"/>
      <point x="101" y="523" type="line"/>
      <point x="20" y="523" type="line"/>
      <point x="20" y="589" type="line"/>
      <point x="101" y="589" type="line"/>
      <point x="101" y="710" type="line"/>
      <point x="213" y="710" type="line"/>
      <point x="213" y="589" type="line"/>
    </contour>
  </outline>
</glyph>
<glyph name="Lslash" format="2">
  <advance width="614"/>
  <unicode hex="0141"/>
  <outline>
    <contour>
      <point x="118" y="246" type="line"/>
      <point x="37" y="190" type="line"/>
      <point x="37" y="268" type="line"/>
      <point x="118" y="325" type="line"/>
      <point x="118" y="655" type="line"/>
      <point x="231" y="655" type="line"/>
      <point x="231" y="397" type="line"/>
      <point x="420" y="529" type="line"/>
      <point x="420" y="450" type="line"/>
      <point x="231" y="317" type="line"/>
      <point x="231" y="93" type="line"/>
      <point x="548" y="93" type="line"/>
      <point x="548" y="0" type="line"/>
      <point x="118" y="0" type="line"/>
    </contour>
  </outline>
</glyph>
<glyph name="Eng" format="2">
  <advance width="614"/>
  <unicode hex="014A"/>
  <outline>
    <contour>
      <point x="181" y="485" type="line"/>
      <point x="187" y="0" type="line"/>
      <point x="83" y="0" type="line"/>
      <point x="83" y="655" type="line"/>
      <point x="207" y="655" type="line"/>
      <point x="432" y="187" type="line"/>
      <point x="427" y="655" type="line"/>
      <point x="531" y="655" type="line"/>
      <point x="531" y="-24" type="line"/>
      <point x="531" y="-131"/>
      <point x="441" y="-223"/>
      <point x="328" y="-230" type="qcurve"/>
      <point x="208" y="-237" type="line"/>
      <point x="204" y="-150" type="line"/>
      <point x="320" y="-141" type="line"/>
      <point x="378" y="-137"/>
      <point x="431" y="-90"/>
      <point x="434" y="-41" type="qcurve"/>
    </contour>
  </outline>
</glyph>
<glyph name="OE" format="2">
  <advance width="614"/>
  <unicode hex="0152"/>
  <outline>
    <contour>
      <point x="581" y="0" type="line"/>
      <point x="290" y="0" type="line"/>
      <point x="163" y="0"/>
      <point x="27" y="166"/>
      <point x="27" y="320" type="qcurve"/>
      <point x="27" y="482"/>
      <point x="176" y="655"/>
      <point x="318" y="655" type="qcurve"/>
      <point x="581" y="655" type="line"/>
      <point x="581" y="566" type="line"/>
      <point x="402" y="566" type="line"/>
      <point x="402" y="374" type="line"/>
      <point x="562" y="374" type="line"/>
      <point x="562" y="287" type="line"/>
      <point x="402" y="287" type="line"/>
      <point x="402" y="89" type="line"/>
      <point x="581" y="89" type="line"/>
    </contour>
    <contour>
      <point x="135" y="322" type="qcurve"/>
      <point x="135" y="210"/>
      <point x="197" y="91"/>
      <point x="256" y="89" type="qcurve"/>
      <point x="295" y="87" type="line"/>
      <point x="295" y="567" type="line"/>
      <point x="278" y="566" type="line"/>
      <point x="206" y="563"/>
      <point x="135" y="442"/>
    </contour>
  </outline>
</glyph>
<glyph name="oe" format="2">
  <advance width="614"/>
  <unicode hex="0153"/>
  <outline>
    <contour>
      <point x="307" y="69" type="qcurve"/>
      <point x="286" y="29"/>
      <point x="226" y="-14"/>
      <point x="191" y="-14" type="qcurve"/>
      <point x="115" y="-14"/>
      <point x="21" y="124"/>
      <point x="21" y="236" type="qcurve"/>
      <point x="21" y="344"/>
      <point x="119" y="484"/>
      <point x="195" y="484" type="qcurve"/>
      <point x="232" y="484"/>
      <point x="293" y="435"/>
      <point x="313" y="390" type="qcurve"/>
      <point x="337" y="435"/>
      <point x="402" y="484"/>
      <point x="439" y="484" type="qcurve"/>
      <point x="510" y="484"/>
      <point x="594" y="355"/>
      <point x="594" y="245" type="qcurve"/>
      <point x="594" y="233"/>
      <point x="592" y="209"/>
      <point x="590" y="197" type="qcurve"/>
      <point x="356" y="197" type="line"/>
      <point x="361" y="134"/>
      <point x="413" y="80"/>
      <point x="472" y="77" type="qcurve"/>
      <point x="517" y="74" type="line"/>
      <point x="513" y="-10" type="line"/>
      <point x="447" y="-8" type="line"/>
      <point x="397" y="-7"/>
      <point x="327" y="31"/>
    </contour>
    <contour>
      <point x="132" y="236" type="qcurve"/>
      <point x="132" y="159"/>
      <point x="167" y="74"/>
      <point x="199" y="74" type="qcurve"/>
      <point x="228" y="74"/>
      <point x="261" y="158"/>
      <point x="261" y="235" type="qcurve"/>
      <point x="261" y="310"/>
      <point x="228" y="397"/>
      <point x="199" y="397" type="qcurve"/>
      <point x="168" y="397"/>
      <point x="132" y="311"/>
    </contour>
    <contour>
      <point x="432" y="401" type="qcurve"/>
      <point x="403" y="401"/>
      <point x="362" y="334"/>
      <point x="357" y="276" type="qcurve"/>
      <point x="493" y="276" type="line"/>
      <point x="491" y="335"/>
      <point x="458" y="401"/>
    </contour>
  </outline>
</glyph>
<glyph name="scedilla" format="2">
  <advance width="614"/>
  <unicode hex="015F"/>
  <outline>
    <contour>
      <point x="530" y="136" type="qcurve"/>
      <point x="530" y="72"/>
      <point x="421" y="-6"/>
      <point x="322" y="-12" type="qcurve"/>
      <point x="306" y="-63" type="line"/>
      <point x="385" y="-71"/>
      <point x="455" y="-112"/>
      <point x="455" y="-152" type="qcurve"/>
      <point x="455" y="-192"/>
      <point x="408" y="-235"/>
      <point x="354" y="-248" type="qcurve"/>
      <point x="326" y="-255"/>
      <point x="250" y="-266"/>
      <point x="201" y="-270" type="qcurve"/>
      <point x="184" y="-209" type="line"/>
      <point x="292" y="-199"/>
      <point x="375" y="-177"/>
      <point x="375" y="-154" type="qcurve"/>
      <point x="375" y="-134"/>
      <point x="314" y="-117"/>
      <point x="242" y="-114" type="qcurve"/>
      <point x="236" y="-104" type="line"/>
      <point x="267" y="-13" type="line"/>
      <point x="223" y="-12"/>
      <point x="139" y="-3"/>
      <point x="87" y="6" type="qcurve"/>
      <point x="99" y="98" type="line"/>
      <point x="154" y="88"/>
      <point x="259" y="76"/>
      <point x="294" y="76" type="qcurve"/>
      <point x="356" y="76"/>
      <point x="416" y="103"/>
      <point x="416" y="130" type="qcurve"/>
      <point x="416" y="152"/>
      <point x="383" y="176"/>
      <point x="341" y="186" type="qcurve"/>
      <point x="246" y="206" type="line"/>
      <point x="164" y="224"/>
      <point x="96" y="283"/>
      <point x="96" y="342" type="qcurve"/>
      <point x="96" y="411"/>
      <point x="213" y="484"/>
      <point x="327" y="484" type="qcurve"/>
      <point x="363" y="484"/>
      <point x="461" y="475"/>
      <point x="506" y="467" type="qcurve"/>
      <point x="495" y="375" type="line"/>
      <point x="445" y="384"/>
      <point x="356" y="394"/>
      <point x="324" y="394" type="qcurve"/>
      <point x="265" y="394"/>
      <point x="210" y="373"/>
      <point x="210" y="349" type="qcurve"/>
      <point x="210" y="328"/>
      <point x="241" y="307"/>
      <point x="283" y="296" type="qcurve"/>
      <point x="376" y="276" type="line"/>
      <point x="461" y="257"/>
      <point x="530" y="197"/>
    </contour>
  </outline>
</glyph>
<glyph name="Tcedilla" format="2">
  <advance width="614"/>
  <unicode hex="0162"/>
  <outline>
    <contour>
      <point x="251" y="561" type="line"/>
      <point x="45" y="561" type="line"/>
      <point x="45" y="655" type="line"/>
      <point x="569" y="655" type="line"/>
      <point x="569" y="561" type="line"/>
      <point x="363" y="561" type="line"/>
      <point x="363" y="0" type="line"/>
      <point x="331" y="0" type="line"/>
      <point x="313" y="-57" type="line"/>
      <point x="391" y="-65"/>
      <point x="462" y="-106"/>
      <point x="462" y="-146" type="qcurve"/>
      <point x="462" y="-186"/>
      <point x="415" y="-229"/>
      <point x="361" y="-242" type="qcurve"/>
      <point x="333" y="-249"/>
      <point x="257" y="-260"/>
      <point x="208" y="-264" type="qcurve"/>
      <point x="191" y="-203" type="line"/>
      <point x="298" y="-194"/>
      <point x="383" y="-171"/>
      <point x="383" y="-148" type="qcurve"/>
      <point x="383" y="-128"/>
      <point x="322" y="-111"/>
      <point x="249" y="-108" type="qcurve"/>
      <point x="243" y="-98" type="line"/>
      <point x="276" y="0" type="line"/>
      <point x="251" y="0" type="line"/>
    </contour>
  </outline>
</glyph>
<glyph name="tbar" format="2">
  <advance width="614"/>
  <unicode hex="0167"/>
  <outline>
    <contour>
      <point x="209" y="212" type="line"/>
      <point x="104" y="212" type="line"/>
      <point x="104" y="277" type="line"/>
      <point x="209" y="277" type="line"/>
      <point x="209" y="382" type="line"/>
      <point x="57" y="382" type="line"/>
      <point x="57" y="471" type="line"/>
      <point x="210" y="471" type="line"/>
      <point x="210" y="639" type="line"/>
      <point x="319" y="639" type="line"/>
      <point x="319" y="471" type="line"/>
      <point x="517" y="471" type="line"/>
      <point x="517" y="382" type="line"/>
      <point x="321" y="382" type="line"/>
      <point x="321" y="277" type="line"/>
      <point x="457" y="277" type="line"/>
      <point x="457" y="212" type="line"/>
      <point x="321" y="212" type="line"/>
      <point x="321" y="193" type="line"/>
      <point x="321" y="136"/>
      <point x="355" y="94"/>
      <point x="406" y="91" type="qcurve"/>
      <point x="542" y="83" type="line"/>
      <point x="535" y="-7" type="line"/>
      <point x="381" y="0" type="line"/>
      <point x="279" y="5"/>
      <point x="209" y="81"/>
      <point x="209" y="186" type="qcurve"/>
    </contour>
  </outline>
</glyph>
<glyph name="Uogonek" format="2">
  <advance width="614"/>
  <unicode hex="0172"/>
  <outline>
    <contour>
      <point x="203" y="-161" type="qcurve"/>
      <point x="203" y="-135"/>
      <point x="241" y="-68"/>
      <point x="284" y="-15" type="qcurve"/>
      <point x="178" y="-10"/>
      <point x="73" y="112"/>
      <point x="73" y="230" type="qcurve"/>
      <point x="73" y="655" type="line"/>
      <point x="186" y="655" type="line"/>
      <point x="186" y="229" type="line"/>
      <point x="186" y="158"/>
      <point x="246" y="87"/>
      <point x="307" y="87" type="qcurve"/>
      <point x="369" y="87"/>
      <point x="429" y="157"/>
      <point x="429" y="229" type="qcurve"/>
      <point x="429" y="655" type="line"/>
      <point x="541" y="655" type="line"/>
      <point x="541" y="230" type="line"/>
      <point x="541" y="116"/>
      <point x="443" y="-4"/>
      <point x="343" y="-13" type="qcurve"/>
      <point x="315" y="-52"/>
      <point x="288" y="-104"/>
      <point x="288" y="-124" type="qcurve"/>
      <point x="288" y="-143"/>
      <point x="308" y="-160"/>
      <point x="332" y="-161" type="qcurve"/>
      <point x="398" y="-165" type="line"/>
      <point x="390" y="-239" type="line"/>
      <point x="295" y="-235" type="line"/>
      <point x="247" y="-233"/>
      <point x="203" y="-197"/>
    </contour>
  </outline>
</glyph>
<glyph name="Schwa" format="2">
  <advance width="614"/>
  <unicode hex="018F"/>
  <outline>
    <contour>
      <point x="259" y="665" type="qcurve"/>
      <point x="414" y="665"/>
      <point x="557" y="504"/>
      <point x="557" y="328" type="qcurve"/>
      <point x="557" y="157"/>
      <point x="427" y="-15"/>
      <point x="299" y="-15" type="qcurve"/>
      <point x="176" y="-15"/>
      <point x="57" y="145"/>
      <point x="57" y="311" type="qcurve"/>
      <point x="57" y="324"/>
      <point x="60" y="358"/>
      <point x="63" y="381" type="qcurve"/>
      <point x="441" y="381" type="line"/>
      <point x="434" y="484"/>
      <point x="350" y="571"/>
      <point x="254" y="571" type="qcurve"/>
      <point x="226" y="571"/>
      <point x="174" y="567"/>
      <point x="149" y="562" type="qcurve"/>
      <point x="140" y="655" type="line"/>
      <point x="174" y="660"/>
      <point x="231" y="665"/>
    </contour>
    <contour>
      <point x="298" y="79" type="qcurve"/>
      <point x="373" y="79"/>
      <point x="439" y="179"/>
      <point x="442" y="293" type="qcurve"/>
      <point x="170" y="293" type="line"/>
      <point x="173" y="183"/>
      <point x="233" y="79"/>
    </contour>
  </outline>
</glyph>
<glyph name="Ohorn" format="2">
  <advance width="614"/>
  <unicode hex="01A0"/>
  <outline>
    <contour>
      <point x="53" y="321" type="qcurve"/>
      <point x="53" y="481"/>
      <point x="186" y="655"/>
      <point x="307" y="655" type="qcurve"/>
      <point x="420" y="655" type="line"/>
      <point x="475" y="655"/>
      <point x="516" y="700"/>
      <point x="519" y="768" type="qcurve"/>
      <point x="621" y="768" type="line"/>
      <point x="619" y="677"/>
      <point x="560" y="590"/>
      <point x="500" y="590" type="qcurve"/>
      <point x="487" y="590"/>
      <point x="457" y="594"/>
      <point x="439" y="599" type="qcurve"/>
      <point x="436" y="592" type="line"/>
      <point x="501" y="552"/>
      <point x="561" y="423"/>
      <point x="561" y="323" type="qcurve"/>
      <point x="561" y="160"/>
      <point x="428" y="-15"/>
      <point x="306" y="-15" type="qcurve"/>
      <point x="184" y="-15"/>
      <point x="53" y="158"/>
    </contour>
    <contour>
      <point x="307" y="561" type="qcurve"/>
      <point x="236" y="561"/>
      <point x="168" y="444"/>
      <point x="168" y="323" type="qcurve"/>
      <point x="168" y="200"/>
      <point x="237" y="79"/>
      <point x="307" y="79" type="qcurve"/>
      <point x="378" y="79"/>
      <point x="446" y="198"/>
      <point x="446" y="321" type="qcurve"/>
      <point x="446" y="442"/>
      <point x="377" y="561"/>
    </contour>
  </outline>
</glyph>
<glyph name="ohorn" format="2">
  <advance width="614"/>
  <unicode hex="01A1"/>
  <outline>
    <contour>
      <point x="488" y="407" type="qcurve"/>
      <point x="479" y="407"/>
      <point x="457" y="409"/>
      <point x="443" y="412" type="qcurve"/>
      <point x="441" y="405" type="line"/>
      <point x="501" y="369"/>
      <point x="558" y="281"/>
      <point x="558" y="226" type="qcurve"/>
      <point x="558" y="120"/>
      <point x="416" y="-15"/>
      <point x="305" y="-15" type="qcurve"/>
      <point x="194" y="-15"/>
      <point x="56" y="122"/>
      <point x="56" y="233" type="qcurve"/>
      <point x="56" y="337"/>
      <point x="198" y="471"/>
      <point x="309" y="471" type="qcurve"/>
      <point x="423" y="471" type="line"/>
      <point x="469" y="471"/>
      <point x="503" y="516"/>
      <point x="506" y="583" type="qcurve"/>
      <point x="610" y="583" type="line"/>
      <point x="607" y="493"/>
      <point x="548" y="407"/>
    </contour>
    <contour>
      <point x="172" y="233" type="qcurve"/>
      <point x="172" y="160"/>
      <point x="244" y="78"/>
      <point x="307" y="78" type="qcurve"/>
      <point x="371" y="78"/>
      <point x="442" y="159"/>
      <point x="442" y="232" type="qcurve"/>
      <point x="442" y="304"/>
      <point x="370" y="386"/>
      <point x="307" y="386" type="qcurve"/>
      <point x="244" y="386"/>
      <point x="172" y="305"/>
    </contour>
  </outline>
</glyph>
<glyph name="Uhorn" format="2">
  <advance width="614"/>
  <unicode hex="01AF"/>
  <outline>
    <contour>
      <point x="307" y="87" type="qcurve"/>
      <point x="369" y="87"/>
      <point x="429" y="157"/>
      <point x="429" y="229" type="qcurve"/>
      <point x="429" y="655" type="line"/>
      <point x="476" y="655" type="line"/>
      <point x="531" y="655"/>
      <point x="571" y="700"/>
      <point x="574" y="768" type="qcurve"/>
      <point x="676" y="768" type="line"/>
      <point x="674" y="675"/>
      <point x="609" y="588"/>
      <point x="541" y="588" type="qcurve"/>
      <point x="541" y="230" type="line"/>
      <point x="541" y="106"/>
      <point x="424" y="-15"/>
      <point x="304" y="-15" type="qcurve"/>
      <point x="188" y="-15"/>
      <point x="73" y="107"/>
      <point x="73" y="230" type="qcurve"/>
      <point x="73" y="655" type="line"/>
      <point x="186" y="655" type="line"/>
      <point x="186" y="229" type="line"/>
      <point x="186" y="158"/>
      <point x="246" y="87"/>
    </contour>
  </outline>
</glyph>
<glyph name="oogonek" format="2">
  <advance width="614"/>
  <unicode hex="01EB"/>
  <outline>
    <contour>
      <point x="200" y="-161" type="qcurve"/>
      <point x="200" y="-135"/>
      <point x="238" y="-67"/>
      <point x="282" y="-14" type="qcurve"/>
      <point x="180" y="-6"/>
      <point x="56" y="130"/>
      <point x="56" y="236" type="qcurve"/>
      <point x="56" y="345"/>
      <point x="198" y="486"/>
      <point x="309" y="486" type="qcurve"/>
      <point x="419" y="486"/>
      <point x="558" y="346"/>
      <point x="558" y="235" type="qcurve"/>
      <point x="558" y="135"/>
      <point x="438" y="-2"/>
      <point x="340" y="-13" type="qcurve"/>
      <point x="312" y="-52"/>
      <point x="285" y="-104"/>
      <point x="285" y="-124" type="qcurve"/>
      <point x="285" y="-143"/>
      <point x="305" y="-160"/>
      <point x="329" y="-161" type="qcurve"/>
      <point x="395" y="-165" type="line"/>
      <point x="387" y="-239" type="line"/>
      <point x="292" y="-235" type="line"/>
      <point x="244" y="-233"/>
      <point x="200" y="-197"/>
    </contour>
    <contour>
      <point x="172" y="236" type="qcurve"/>
      <point x="172" y="162"/>
      <point x="244" y="78"/>
      <point x="307" y="78" type="qcurve"/>
      <point x="371" y="78"/>
      <point x="442" y="160"/>
      <point x="442" y="235" type="qcurve"/>
      <point x="442" y="308"/>
      <point x="370" y="392"/>
      <point x="307" y="392" type="qcurve"/>
      <point x="244" y="392"/>
      <point x="172" y="309"/>
    </contour>
  </outline>
</glyph>
<glyph name="dotlessj" format="2">
  <advance width="614"/>
  <unicode hex="0237"/>
  <outline>
    <contour>
      <point x="440" y="471" type="line"/>
      <point x="440" y="-24" type="line"/>
      <point x="440" y="-133"/>
      <point x="352" y="-224"/>
      <point x="237" y="-230" type="qcurve"/>
      <point x="104" y="-237" type="line"/>
      <point x="100" y="-141" type="line"/>
      <point x="229" y="-132" type="line"/>
      <point x="284" y="-128"/>
      <point x="328" y="-83"/>
      <point x="328" y="-31" type="qcurve"/>
      <point x="328" y="376" type="line"/>
      <point x="113" y="376" type="line"/>
      <point x="113" y="471" type="line"/>
    </contour>
  </outline>
</glyph>
<glyph name="ringhalfleft" format="2">
  <advance width="614"/>
  <unicode hex="02BF"/>
  <outline>
    <contour>
      <point x="154" y="523" type="qcurve"/>
      <point x="154" y="619"/>
      <point x="291" y="725"/>
      <point x="418" y="725" type="qcurve"/>
      <point x="418" y="639" type="line"/>
      <point x="334" y="639"/>
      <point x="255" y="584"/>
      <point x="255" y="523" type="qcurve"/>
      <point x="255" y="459"/>
      <point x="334" y="401"/>
      <point x="418" y="401" type="qcurve"/>
      <point x="418" y="315" type="line"/>
      <point x="291" y="315"/>
      <point x="154" y="424"/>
    </contour>
  </outline>
</glyph>
<glyph name="gravecmb" format="2">
  <unicode hex="0300"/>
  <outline>
    <contour>
      <point x="-125" y="752" type="line"/>
      <point x="95" y="606" type="line"/>
      <point x="58" y="546" type="line"/>
      <point x="-171" y="678" type="line"/>
    </contour>
  </outline>
</glyph>
<glyph name="acutecmb" format="2">
  <unicode hex="0301"/>
  <outline>
    <contour>
      <point x="-58" y="547" type="line"/>
      <point x="-95" y="607" type="line"/>
      <point x="125" y="752" type="line"/>
      <point x="171" y="678" type="line"/>
    </contour>
  </outline>
</glyph>
<glyph name="circumflexcmb" format="2">
  <unicode hex="0302"/>
  <outline>
    <contour>
      <point x="-146" y="547" type="line"/>
      <point x="-186" y="593" type="line"/>
      <point x="-26" y="752" type="line"/>
      <point x="26" y="752" type="line"/>
      <point x="186" y="593" type="line"/>
      <point x="146" y="547" type="line"/>
      <point x="0" y="666" type="line"/>
    </contour>
  </outline>
</glyph>
<glyph name="brevecmb" format="2">
  <unicode hex="0306"/>
  <outline>
    <contour>
      <point x="0" y="624" type="qcurve"/>
      <point x="42" y="624"/>
      <point x="101" y="683"/>
      <point x="123" y="745" type="qcurve"/>
      <point x="191" y="722" type="line"/>
      <point x="168" y="635"/>
      <point x="72" y="547"/>
      <point x="0" y="547" type="qcurve"/>
      <point x="-72" y="547"/>
      <point x="-168" y="635"/>
      <point x="-191" y="722" type="qcurve"/>
      <point x="-123" y="745" type="line"/>
      <point x="-101" y="683"/>
      <point x="-42" y="624"/>
    </contour>
  </outline>
</glyph>
<glyph name="dotaccentcmb" format="2">
  <unicode hex="0307"/>
  <outline>
    <contour>
      <point x="70" y="633" type="qcurve"/>
      <point x="70" y="602"/>
      <point x="33" y="567"/>
      <point x="0" y="567" type="qcurve"/>
      <point x="-33" y="567"/>
      <point x="-69" y="601"/>
      <point x="-69" y="633" type="qcurve"/>
      <point x="-69" y="663"/>
      <point x="-31" y="700"/>
      <point x="1" y="700" type="qcurve"/>
      <point x="35" y="700"/>
      <point x="70" y="666"/>
    </contour>
  </outline>
</glyph>
<glyph name="dieresiscmb" format="2">
  <unicode hex="0308"/>
  <outline>
    <contour>
      <point x="-51" y="629" type="qcurve"/>
      <point x="-51" y="599"/>
      <point x="-85" y="567"/>
      <point x="-117" y="567" type="qcurve"/>
      <point x="-148" y="567"/>
      <point x="-182" y="599"/>
      <point x="-182" y="629" type="qcurve"/>
      <point x="-182" y="658"/>
      <point x="-146" y="693"/>
      <point x="-116" y="693" type="qcurve"/>
      <point x="-84" y="693"/>
      <point x="-51" y="660"/>
    </contour>
    <contour>
      <point x="182" y="629" type="qcurve"/>
      <point x="182" y="599"/>
      <point x="147" y="567"/>
      <point x="115" y="567" type="qcurve"/>
      <point x="84" y="567"/>
      <point x="51" y="599"/>
      <point x="51" y="629" type="qcurve"/>
      <point x="51" y="658"/>
      <point x="86" y="693"/>
      <point x="116" y="693" type="qcurve"/>
      <point x="148" y="693"/>
      <point x="182" y="660"/>
    </contour>
  </outline>
</glyph>
<glyph name="hookcmb" format="2">
  <unicode hex="0309"/>
  <outline>
    <contour>
      <point x="115" y="668" type="qcurve"/>
      <point x="115" y="622"/>
      <point x="8" y="560"/>
      <point x="-94" y="547" type="qcurve"/>
      <point x="-118" y="594" type="line"/>
      <point x="-118" y="596" type="line"/>
      <point x="-48" y="608"/>
      <point x="17" y="637"/>
      <point x="17" y="656" type="qcurve"/>
      <point x="17" y="677"/>
      <point x="-51" y="703"/>
      <point x="-128" y="714" type="qcurve"/>
      <point x="-128" y="717" type="line"/>
      <point x="-83" y="773" type="line"/>
      <point x="22" y="760"/>
      <point x="115" y="712"/>
    </contour>
  </outline>
</glyph>
<glyph name="ringcmb" format="2">
  <unicode hex="030A"/>
  <outline>
    <contour>
      <point x="149" y="678" type="qcurve"/>
      <point x="149" y="618"/>
      <point x="67" y="547"/>
      <point x="-1" y="547" type="qcurve"/>
      <point x="-68" y="547"/>
      <point x="-149" y="617"/>
      <point x="-149" y="677" type="qcurve"/>
      <point x="-149" y="736"/>
      <point x="-66" y="807"/>
      <point x="1" y="807" type="qcurve"/>
      <point x="68" y="807"/>
      <point x="149" y="737"/>
    </contour>
    <contour>
      <point x="-78" y="676" type="qcurve"/>
      <point x="-78" y="644"/>
      <point x="-39" y="612"/>
      <point x="0" y="612" type="qcurve"/>
      <point x="39" y="612"/>
      <point x="77" y="645"/>
      <point x="77" y="679" type="qcurve"/>
      <point x="77" y="711"/>
      <point x="38" y="742"/>
      <point x="-1" y="742" type="qcurve"/>
      <point x="-39" y="742"/>
      <point x="-78" y="709"/>
    </contour>
  </outline>
</glyph>
<glyph name="dotbelowcmb" format="2">
  <unicode hex="0323"/>
  <outline>
    <contour>
      <point x="70" y="-163" type="qcurve"/>
      <point x="70" y="-195"/>
      <point x="33" y="-230"/>
      <point x="0" y="-230" type="qcurve"/>
      <point x="-33" y="-230"/>
      <point x="-69" y="-195"/>
      <point x="-69" y="-163" type="qcurve"/>
      <point x="-69" y="-133"/>
      <point x="-31" y="-96"/>
      <point x="1" y="-96" type="qcurve"/>
      <point x="34" y="-96"/>
      <point x="70" y="-130"/>
    </contour>
  </outline>
</glyph>
<glyph name="uni0326" format="2">
  <unicode hex="0326"/>
  <outline>
    <contour>
      <point x="115" y="-182" type="qcurve"/>
      <point x="115" y="-227"/>
      <point x="7" y="-290"/>
      <point x="-94" y="-303" type="qcurve"/>
      <point x="-118" y="-255" type="line"/>
      <point x="-118" y="-253" type="line"/>
      <point x="-47" y="-240"/>
      <point x="17" y="-213"/>
      <point x="17" y="-193" type="qcurve"/>
      <point x="17" y="-172"/>
      <point x="-52" y="-146"/>
      <point x="-128" y="-135" type="qcurve"/>
      <point x="-128" y="-132" type="line"/>
      <point x="-83" y="-76" type="line"/>
      <point x="22" y="-90"/>
      <point x="115" y="-138"/>
    </contour>
  </outline>
</glyph>
<glyph name="cedillacmb" format="2">
  <unicode hex="0327"/>
  <outline>
    <contour>
      <point x="-62" y="-99" type="line"/>
      <point x="-21" y="21" type="line"/>
      <point x="33" y="21" type="line"/>
      <point x="8" y="-58" type="line"/>
      <point x="87" y="-66"/>
      <point x="157" y="-107"/>
      <point x="157" y="-147" type="qcurve"/>
      <point x="157" y="-187"/>
      <point x="110" y="-230"/>
      <point x="56" y="-243" type="qcurve"/>
      <point x="28" y="-250"/>
      <point x="-48" y="-261"/>
      <point x="-97" y="-265" type="qcurve"/>
      <point x="-114" y="-204" type="line"/>
      <point x="-6" y="-194"/>
      <point x="77" y="-172"/>
      <point x="77" y="-149" type="qcurve"/>
      <point x="77" y="-129"/>
      <point x="16" y="-112"/>
      <point x="-56" y="-109" type="qcurve"/>
    </contour>
  </outline>
</glyph>
<glyph name="endash" format="2">
  <advance width="614"/>
  <unicode hex="2013"/>
  <outline>
    <contour>
      <point x="80" y="274" type="line"/>
      <point x="80" y="384" type="line"/>
      <point x="534" y="384" type="line"/>
      <point x="534" y="274" type="line"/>
    </contour>
  </outline>
</glyph>
<glyph name="emdash" format="2">
  <advance width="614"/>
  <unicode hex="2014"/>
  <outline>
    <contour>
      <point x="50" y="274" type="line"/>
      <point x="50" y="384" type="line"/>
      <point x="564" y="384" type="line"/>
      <point x="564" y="274" type="line"/>
    </contour>
  </outline>
</glyph>
<glyph name="quoteleft" format="2">
  <advance width="614"/>
  <unicode hex="2018"/>
  <outline>
    <contour>
      <point x="365" y="710" type="qcurve"/>
      <point x="470" y="710" type="line"/>
      <point x="470" y="708" type="line"/>
      <point x="402" y="618"/>
      <point x="350" y="494"/>
      <point x="343" y="410" type="qcurve"/>
      <point x="173" y="410" type="line"/>
      <point x="187" y="506"/>
      <point x="272" y="641"/>
    </contour>
  </outline>
</glyph>
<glyph name="quotedblleft" format="2">
  <advance width="614"/>
  <unicode hex="201C"/>
  <outline>
    <contour>
      <point x="230" y="710" type="qcurve"/>
      <point x="321" y="710" type="line"/>
      <point x="321" y="708" type="line"/>
      <point x="254" y="607"/>
      <point x="209" y="496"/>
      <point x="195" y="405" type="qcurve"/>
      <point x="49" y="405" type="line"/>
      <point x="73" y="514"/>
      <point x="148" y="641"/>
    </contour>
    <contour>
      <point x="486" y="710" type="qcurve"/>
      <point x="577" y="710" type="line"/>
      <point x="577" y="708" type="line"/>
      <point x="512" y="609"/>
      <point x="466" y="498"/>
      <point x="452" y="405" type="qcurve"/>
      <point x="306" y="405" type="line"/>
      <point x="330" y="515"/>
      <point x="405" y="641"/>
    </contour>
  </outline>
</glyph>
<glyph name="dagger" format="2">
  <advance width="614"/>
  <unicode hex="2020"/>
  <outline>
    <contour>
      <point x="539" y="527" type="qcurve"/>
      <point x="539" y="425" type="line"/>
      <point x="519" y="425"/>
      <point x="472" y="432"/>
      <point x="424" y="442" type="qcurve"/>
      <point x="386" y="451"/>
      <point x="348" y="458"/>
      <point x="332" y="459" type="qcurve"/>
      <point x="333" y="420"/>
      <point x="339" y="329"/>
      <point x="347" y="237" type="qcurve"/>
      <point x="357" y="139"/>
      <point x="363" y="41"/>
      <point x="363" y="0" type="qcurve"/>
      <point x="251" y="0" type="line"/>
      <point x="251" y="41"/>
      <point x="257" y="139"/>
      <point x="268" y="236" type="qcurve"/>
      <point x="277" y="328"/>
      <point x="283" y="420"/>
      <point x="284" y="459" type="qcurve"/>
      <point x="267" y="458"/>
      <point x="227" y="451"/>
      <point x="187" y="442" type="qcurve"/>
      <point x="139" y="431"/>
      <point x="94" y="425"/>
      <point x="75" y="425" type="qcurve"/>
      <point x="75" y="527" type="line"/>
      <point x="94" y="527"/>
      <point x="139" y="521"/>
      <point x="187" y="511" type="qcurve"/>
      <point x="226" y="503"/>
      <point x="266" y="497"/>
      <point x="283" y="496" type="qcurve"/>
      <point x="282" y="513"/>
      <point x="276" y="553"/>
      <point x="267" y="593" type="qcurve"/>
      <point x="257" y="641"/>
      <point x="251" y="690"/>
      <point x="251" y="710" type="qcurve"/>
      <point x="363" y="710" type="line"/>
      <point x="363" y="690"/>
      <point x="357" y="643"/>
      <point x="348" y="595" type="qcurve"/>
      <point x="340" y="554"/>
      <point x="334" y="513"/>
      <point x="333" y="496" type="qcurve"/>
      <point x="348" y="497"/>
      <point x="385" y="503"/>
      <point x="422" y="511" type="qcurve"/>
      <point x="470" y="521"/>
      <point x="519" y="527"/>
    </contour>
  </outline>
</glyph>
<glyph name="bullet" format="2">
  <advance width="614"/>
  <unicode hex="2022"/>
  <outline>
    <contour>
      <point x="160" y="332" type="qcurve"/>
      <point x="160" y="398"/>
      <point x="239" y="476"/>
      <point x="308" y="476" type="qcurve"/>
      <point x="379" y="476"/>
      <point x="455" y="402"/>
      <point x="455" y="332" type="qcurve"/>
      <point x="455" y="266"/>
      <point x="377" y="189"/>
      <point x="308" y="189" type="qcurve"/>
      <point x="236" y="189"/>
      <point x="160" y="262"/>
    </contour>
  </outline>
</glyph>
<glyph name="twodotleader" format="2">
  <advance width="614"/>
  <unicode hex="2025"/>
  <outline>
    <contour>
      <point x="237" y="79" type="qcurve"/>
      <point x="237" y="33"/>
      <point x="193" y="-15"/>
      <point x="152" y="-15" type="qcurve"/>
      <point x="111" y="-15"/>
      <point x="70" y="32"/>
      <point x="70" y="78" type="qcurve"/>
      <point x="70" y="123"/>
      <point x="114" y="172"/>
      <point x="154" y="172" type="qcurve"/>
      <point x="196" y="172"/>
      <point x="237" y="126"/>
    </contour>
    <contour>
      <point x="544" y="79" type="qcurve"/>
      <point x="544" y="33"/>
      <point x="501" y="-15"/>
      <point x="460" y="-15" type="qcurve"/>
      <point x="419" y="-15"/>
      <point x="377" y="32"/>
      <point x="377" y="78" type="qcurve"/>
      <point x="377" y="123"/>
      <point x="420" y="172"/>
      <point x="460" y="172" type="qcurve"/>
      <point x="502" y="172"/>
      <point x="544" y="126"/>
    </contour>
  </outline>
</glyph>
<glyph name="ellipsis" format="2">
  <advance width="614"/>
  <unicode hex="2026"/>
  <outline>
    <contour>
      <point x="371" y="67" type="qcurve"/>
      <point x="371" y="25"/>
      <point x="340" y="-15"/>
      <point x="307" y="-15" type="qcurve"/>
      <point x="274" y="-15"/>
      <point x="243" y="25"/>
      <point x="243" y="67" type="qcurve"/>
      <point x="243" y="105"/>
      <point x="277" y="147"/>
      <point x="309" y="147" type="qcurve"/>
      <point x="341" y="147"/>
      <point x="371" y="108"/>
    </contour>
    <contour>
      <point x="576" y="67" type="qcurve"/>
      <point x="576" y="25"/>
      <point x="545" y="-15"/>
      <point x="512" y="-15" type="qcurve"/>
      <point x="479" y="-15"/>
      <point x="448" y="25"/>
      <point x="448" y="67" type="qcurve"/>
      <point x="448" y="105"/>
      <point x="482" y="147"/>
      <point x="514" y="147" type="qcurve"/>
      <point x="546" y="147"/>
      <point x="576" y="108"/>
    </contour>
    <contour>
      <point x="166" y="67" type="qcurve"/>
      <point x="166" y="25"/>
      <point x="135" y="-15"/>
      <point x="102" y="-15" type="qcurve"/>
      <point x="69" y="-15"/>
      <point x="38" y="25"/>
      <point x="38" y="67" type="qcurve"/>
      <point x="38" y="105"/>
      <point x="72" y="147"/>
      <point x="104" y="147" type="qcurve"/>
      <point x="136" y="147"/>
      <point x="166" y="108"/>
    </contour>
  </outline>
</glyph>
<glyph name="guilsinglleft" format="2">
  <advance width="614"/>
  <unicode hex="2039"/>
  <outline>
    <contour>
      <point x="450" y="95" type="line"/>
      <point x="450" y="-15" type="line"/>
      <point x="144" y="189" type="line"/>
      <point x="144" y="281" type="line"/>
      <point x="450" y="484" type="line"/>
      <point x="450" y="376" type="line"/>
      <point x="279" y="238" type="line"/>
    </contour>
  </outline>
</glyph>
<glyph name="guilsinglright" format="2">
  <advance width="614"/>
  <unicode hex="203A"/>
  <outline>
    <contour>
      <point x="164" y="374" type="line"/>
      <point x="164" y="484" type="line"/>
      <point x="470" y="280" type="line"/>
      <point x="470" y="188" type="line"/>
      <point x="164" y="-15" type="line"/>
      <point x="164" y="93" type="line"/>
      <point x="335" y="231" type="line"/>
    </contour>
  </outline>
</glyph>
<glyph name="dong" format="2">
  <advance width="614"/>
  <unicode hex="20AB"/>
  <outline>
    <contour>
      <point x="248" y="-10" type="qcurve"/>
      <point x="162" y="-10"/>
      <point x="52" y="107"/>
      <point x="52" y="201" type="qcurve"/>
      <point x="52" y="294"/>
      <point x="181" y="415"/>
      <point x="279" y="415" type="qcurve"/>
      <point x="316" y="415"/>
      <point x="373" y="397"/>
      <point x="402" y="376" type="qcurve"/>
      <point x="402" y="498" type="line"/>
      <point x="247" y="498" type="line"/>
      <point x="247" y="563" type="line"/>
      <point x="402" y="563" type="line"/>
      <point x="402" y="655" type="line"/>
      <point x="515" y="655" type="line"/>
      <point x="515" y="563" type="line"/>
      <point x="595" y="563" type="line"/>
      <point x="595" y="498" type="line"/>
      <point x="515" y="498" type="line"/>
      <point x="515" y="0" type="line"/>
      <point x="418" y="0" type="line"/>
      <point x="409" y="67" type="line"/>
      <point x="372" y="27"/>
      <point x="295" y="-10"/>
    </contour>
    <contour>
      <point x="295" y="333" type="qcurve"/>
      <point x="237" y="333"/>
      <point x="168" y="264"/>
      <point x="168" y="207" type="qcurve"/>
      <point x="168" y="151"/>
      <point x="232" y="83"/>
      <point x="283" y="83" type="qcurve"/>
      <point x="313" y="83"/>
      <point x="368" y="110"/>
      <point x="402" y="140" type="qcurve"/>
      <point x="402" y="291" type="line"/>
      <point x="374" y="313"/>
      <point x="323" y="333"/>
    </contour>
    <contour>
      <point x="507" y="-169" type="line"/>
      <point x="74" y="-169" type="line"/>
      <point x="74" y="-96" type="line"/>
      <point x="507" y="-96" type="line"/>
    </contour>
  </outline>
</glyph>
<glyph name="Euro" format="2">
  <advance width="614"/>
  <unicode hex="20AC"/>
  <outline>
    <contour>
      <point x="133" y="216" type="qcurve"/>
      <point x="45" y="216" type="line"/>
      <point x="45" y="283" type="line"/>
      <point x="132" y="283" type="line"/>
      <point x="132" y="372" type="line"/>
      <point x="45" y="372" type="line"/>
      <point x="45" y="439" type="line"/>
      <point x="134" y="439" type="line"/>
      <point x="144" y="544"/>
      <point x="279" y="668"/>
      <point x="386" y="668" type="qcurve"/>
      <point x="429" y="668"/>
      <point x="509" y="652"/>
      <point x="563" y="633" type="qcurve"/>
      <point x="544" y="539" type="line"/>
      <point x="492" y="558"/>
      <point x="416" y="575"/>
      <point x="383" y="575" type="qcurve"/>
      <point x="319" y="575"/>
      <point x="251" y="506"/>
      <point x="246" y="436" type="qcurve"/>
      <point x="434" y="436" type="line"/>
      <point x="434" y="372" type="line"/>
      <point x="245" y="372" type="line"/>
      <point x="245" y="283" type="line"/>
      <point x="434" y="283" type="line"/>
      <point x="434" y="219" type="line"/>
      <point x="246" y="219" type="line"/>
      <point x="250" y="149"/>
      <point x="318" y="78"/>
      <point x="381" y="78" type="qcurve"/>
      <point x="416" y="78"/>
      <point x="495" y="96"/>
      <point x="548" y="115" type="qcurve"/>
      <point x="567" y="22" type="line"/>
      <point x="514" y="2"/>
      <point x="429" y="-15"/>
      <point x="383" y="-15" type="qcurve"/>
      <point x="273" y="-15"/>
      <point x="142" y="107"/>
    </contour>
  </outline>
</glyph>
<glyph name="peso" format="2">
  <advance width="614"/>
  <unicode hex="20B1"/>
  <outline>
    <contour>
      <point x="103" y="409" type="line"/>
      <point x="19" y="409" type="line"/>
      <point x="19" y="474" type="line"/>
      <point x="103" y="474" type="line"/>
      <point x="103" y="655" type="line"/>
      <point x="283" y="655" type="line"/>
      <point x="386" y="655"/>
      <point x="512" y="559"/>
      <point x="523" y="474" type="qcurve"/>
      <point x="600" y="474" type="line"/>
      <point x="600" y="409" type="line"/>
      <point x="523" y="409" type="line"/>
      <point x="512" y="322"/>
      <point x="376" y="222"/>
      <point x="270" y="222" type="qcurve"/>
      <point x="216" y="222" type="line"/>
      <point x="216" y="0" type="line"/>
      <point x="103" y="0" type="line"/>
    </contour>
    <contour>
      <point x="410" y="439" type="qcurve"/>
      <point x="410" y="499"/>
      <point x="347" y="561"/>
      <point x="287" y="561" type="qcurve"/>
      <point x="216" y="561" type="line"/>
      <point x="216" y="313" type="line"/>
      <point x="281" y="313" type="line"/>
      <point x="343" y="313"/>
      <point x="410" y="379"/>
    </contour>
  </outline>
</glyph>
<glyph name="uni20BA" format="2">
  <advance width="614"/>
  <unicode hex="20BA"/>
  <outline>
    <contour>
      <point x="110" y="183" type="line"/>
      <point x="26" y="132" type="line"/>
      <point x="26" y="205" type="line"/>
      <point x="110" y="254" type="line"/>
      <point x="110" y="350" type="line"/>
      <point x="26" y="301" type="line"/>
      <point x="26" y="375" type="line"/>
      <point x="110" y="424" type="line"/>
      <point x="110" y="655" type="line"/>
      <point x="223" y="655" type="line"/>
      <point x="223" y="483" type="line"/>
      <point x="410" y="592" type="line"/>
      <point x="410" y="517" type="line"/>
      <point x="223" y="409" type="line"/>
      <point x="223" y="314" type="line"/>
      <point x="410" y="421" type="line"/>
      <point x="410" y="348" type="line"/>
      <point x="223" y="242" type="line"/>
      <point x="223" y="93" type="line"/>
      <point x="280" y="93" type="line"/>
      <point x="362" y="93"/>
      <point x="456" y="185"/>
      <point x="469" y="278" type="qcurve"/>
      <point x="573" y="261" type="line"/>
      <point x="555" y="131"/>
      <point x="409" y="0"/>
      <point x="282" y="0" type="qcurve"/>
      <point x="110" y="0" type="line"/>
    </contour>
  </outline>
</glyph>
<glyph name="published" format="2">
  <advance width="614"/>
  <unicode hex="2117"/>
  <outline>
    <contour>
      <point x="307" y="725" type="qcurve"/>
      <point x="438" y="725"/>
      <point x="557" y="533"/>
      <point x="557" y="328" type="qcurve"/>
      <point x="557" y="123"/>
      <point x="437" y="-70"/>
      <point x="307" y="-70" type="qcurve"/>
      <point x="177" y="-70"/>
      <point x="57" y="123"/>
      <point x="57" y="328" type="qcurve"/>
      <point x="57" y="532"/>
      <point x="177" y="725"/>
    </contour>
    <contour>
      <point x="307" y="680" type="qcurve"/>
      <point x="200" y="680"/>
      <point x="106" y="512"/>
      <point x="106" y="328" type="qcurve"/>
      <point x="106" y="144"/>
      <point x="200" y="-25"/>
      <point x="307" y="-25" type="qcurve"/>
      <point x="415" y="-25"/>
      <point x="508" y="143"/>
      <point x="508" y="328" type="qcurve"/>
      <point x="508" y="513"/>
      <point x="415" y="680"/>
    </contour>
    <contour>
      <point x="209" y="105" type="line"/>
      <point x="209" y="550" type="line"/>
      <point x="310" y="550" type="line"/>
      <point x="380" y="550"/>
      <point x="441" y="479"/>
      <point x="441" y="399" type="qcurve"/>
      <point x="441" y="322"/>
      <point x="373" y="251"/>
      <point x="299" y="251" type="qcurve"/>
      <point x="280" y="251" type="line"/>
      <point x="280" y="105" type="line"/>
    </contour>
    <contour>
      <point x="370" y="397" type="qcurve"/>
      <point x="370" y="446"/>
      <point x="344" y="485"/>
      <point x="308" y="485" type="qcurve"/>
      <point x="280" y="485" type="line"/>
      <point x="280" y="318" type="line"/>
      <point x="304" y="318" type="line"/>
      <point x="342" y="318"/>
      <point x="370" y="353"/>
    </contour>
  </outline>
</glyph>
<glyph name="servicemark" format="2">
  <advance width="614"/>
  <unicode hex="2120"/>
  <outline>
    <contour>
      <point x="142" y="447" type="qcurve"/>
      <point x="166" y="447"/>
      <point x="192" y="467"/>
      <point x="192" y="486" type="qcurve"/>
      <point x="192" y="501"/>
      <point x="172" y="521"/>
      <point x="149" y="530" type="qcurve"/>
      <point x="115" y="543" type="line"/>
      <point x="78" y="556"/>
      <point x="44" y="599"/>
      <point x="44" y="634" type="qcurve"/>
      <point x="44" y="671"/>
      <point x="98" y="717"/>
      <point x="145" y="717" type="qcurve"/>
      <point x="167" y="717"/>
      <point x="209" y="710"/>
      <point x="239" y="701" type="qcurve"/>
      <point x="229" y="650" type="line"/>
      <point x="204" y="659"/>
      <point x="162" y="667"/>
      <point x="145" y="667" type="qcurve"/>
      <point x="123" y="667"/>
      <point x="99" y="650"/>
      <point x="99" y="635" type="qcurve"/>
      <point x="99" y="619"/>
      <point x="116" y="601"/>
      <point x="138" y="593" type="qcurve"/>
      <point x="173" y="580" type="line"/>
      <point x="215" y="565"/>
      <point x="248" y="524"/>
      <point x="248" y="487" type="qcurve"/>
      <point x="248" y="444"/>
      <point x="192" y="397"/>
      <point x="142" y="397" type="qcurve"/>
      <point x="115" y="397"/>
      <point x="62" y="409"/>
      <point x="32" y="421" type="qcurve"/>
      <point x="45" y="472" type="line"/>
      <point x="73" y="460"/>
      <point x="125" y="447"/>
    </contour>
    <contour>
      <point x="490" y="710" type="line"/>
      <point x="557" y="710" type="line"/>
      <point x="568" y="404" type="line"/>
      <point x="513" y="404" type="line"/>
      <point x="512" y="662" type="line"/>
      <point x="446" y="500" type="line"/>
      <point x="425" y="500" type="line"/>
      <point x="357" y="659" type="line"/>
      <point x="357" y="404" type="line"/>
      <point x="301" y="404" type="line"/>
      <point x="313" y="710" type="line"/>
      <point x="380" y="710" type="line"/>
      <point x="436" y="582" type="line"/>
    </contour>
  </outline>
</glyph>
<glyph name="notequal" format="2">
  <advance width="614"/>
  <unicode hex="2260"/>
  <outline>
    <contour>
      <point x="192" y="179" type="line"/>
      <point x="87" y="179" type="line"/>
      <point x="87" y="270" type="line"/>
      <point x="237" y="266" type="line"/>
      <point x="272" y="334" type="line"/>
      <point x="299" y="392" type="line"/>
      <point x="87" y="387" type="line"/>
      <point x="87" y="478" type="line"/>
      <point x="339" y="478" type="line"/>
      <point x="411" y="633" type="line"/>
      <point x="501" y="633" type="line"/>
      <point x="420" y="478" type="line"/>
      <point x="527" y="478" type="line"/>
      <point x="527" y="387" type="line"/>
      <point x="375" y="391" type="line"/>
      <point x="344" y="333" type="line"/>
      <point x="313" y="265" type="line"/>
      <point x="527" y="270" type="line"/>
      <point x="527" y="179" type="line"/>
      <point x="274" y="179" type="line"/>
      <point x="206" y="28" type="line"/>
      <point x="115" y="28" type="line"/>
    </contour>
  </outline>
</glyph>
<glyph name="lessequal" format="2">
  <advance width="614"/>
  <unicode hex="2264"/>
  <outline>
    <contour>
      <point x="521" y="303" type="line"/>
      <point x="521" y="198" type="line"/>
      <point x="84" y="384" type="line"/>
      <point x="84" y="486" type="line"/>
      <point x="521" y="669" type="line"/>
      <point x="521" y="565" type="line"/>
      <point x="191" y="434" type="line"/>
    </contour>
    <contour>
      <point x="521" y="0" type="line"/>
      <point x="84" y="0" type="line"/>
      <point x="84" y="91" type="line"/>
      <point x="521" y="91" type="line"/>
    </contour>
  </outline>
</glyph>
<glyph name="greaterequal" format="2">
  <advance width="614"/>
  <unicode hex="2265"/>
  <outline>
    <contour>
      <point x="528" y="384" type="line"/>
      <point x="91" y="198" type="line"/>
      <point x="91" y="303" type="line"/>
      <point x="421" y="434" type="line"/>
      <point x="91" y="565" type="line"/>
      <point x="91" y="669" type="line"/>
      <point x="528" y="486" type="line"/>
    </contour>
    <contour>
      <point x="528" y="91" type="line"/>
      <point x="528" y="0" type="line"/>
      <point x="91" y="0" type="line"/>
      <point x="91" y="91" type="line"/>
    </contour>
  </outline>
</glyph>
<glyph name="lighttrpldashvertbxd" format="2">
  <advance width="614"/>
  <unicode hex="2506"/>
  <outline>
    <contour>
      <point x="363" y="552" type="line"/>
      <point x="251" y="552" type="line"/>
      <point x="251" y="774" type="line"/>
      <point x="363" y="774" type="line"/>
    </contour>
    <contour>
      <point x="363" y="219" type="line"/>
      <point x="251" y="219" type="line"/>
      <point x="251" y="441" type="line"/>
      <point x="363" y="441" type="line"/>
    </contour>
    <contour>
      <point x="363" y="-114" type="line"/>
      <point x="251" y="-114" type="line"/>
      <point x="251" y="108" type="line"/>
      <point x="363" y="108" type="line"/>
    </contour>
  </outline>
</glyph>
<glyph name="heavytrpldashvertbxd" format="2">
  <advance width="614"/>
  <unicode hex="2507"/>
  <outline>
    <contour>
      <point x="403" y="552" type="line"/>
      <point x="211" y="552" type="line"/>
      <point x="211" y="774" type="line"/>
      <point x="403" y="774" type="line"/>
    </contour>
    <contour>
      <point x="403" y="219" type="line"/>
      <point x="211" y="219" type="line"/>
      <point x="211" y="441" type="line"/>
      <point x="403" y="441" type="line"/>
    </contour>
    <contour>
      <point x="403" y="-114" type="line"/>
      <point x="211" y="-114" type="line"/>
      <point x="211" y="108" type="line"/>
      <point x="403" y="108" type="line"/>
    </contour>
  </outline>
</glyph>
<glyph name="heavyquaddashhorzbxd" format="2">
  <advance width="614"/>
  <unicode hex="2509"/>
  <outline>
    <contour>
      <point x="134" y="234" type="line"/>
      <point x="19" y="234" type="line"/>
      <point x="19" y="426" type="line"/>
      <point x="134" y="426" type="line"/>
    </contour>
    <contour>
      <point x="288" y="234" type="line"/>
      <point x="173" y="234" type="line"/>
      <point x="173" y="426" type="line"/>
      <point x="288" y="426" type="line"/>
    </contour>
    <contour>
      <point x="441" y="234" type="line"/>
      <point x="326" y="234" type="line"/>
      <point x="326" y="426" type="line"/>
      <point x="441" y="426" type="line"/>
    </contour>
    <contour>
      <point x="595" y="234" type="line"/>
      <point x="480" y="234" type="line"/>
      <point x="480" y="426" type="line"/>
      <point x="595" y="426" type="line"/>
    </contour>
  </outline>
</glyph>
<glyph name="heavyvertrightbxd" format="2">
  <advance width="614"/>
  <unicode hex="2523"/>
  <outline>
    <contour>
      <point x="403" y="-420" type="line"/>
      <point x="211" y="-420" type="line"/>
      <point x="211" y="1080" type="line"/>
      <point x="403" y="1080" type="line"/>
      <point x="403" y="426" type="line"/>
      <point x="634" y="426" type="line"/>
      <point x="634" y="234" type="line"/>
      <point x="403" y="234" type="line"/>
    </contour>
  </outline>
</glyph>
<glyph name="uplightleftdnheavybxd" format="2">
  <advance width="614"/>
  <unicode hex="252A"/>
  <outline>
    <contour>
      <point x="211" y="234" type="line"/>
      <point x="-20" y="234" type="line"/>
      <point x="-20" y="426" type="line"/>
      <point x="251" y="426" type="line"/>
      <point x="251" y="1080" type="line"/>
      <point x="363" y="1080" type="line"/>
      <point x="363" y="426" type="line"/>
      <point x="403" y="426" type="line"/>
      <point x="403" y="-420" type="line"/>
      <point x="211" y="-420" type="line"/>
    </contour>
  </outline>
</glyph>
<glyph name="heavydnhorzbxd" format="2">
  <advance width="614"/>
  <unicode hex="2533"/>
  <outline>
    <contour>
      <point x="211" y="234" type="line"/>
      <point x="-20" y="234" type="line"/>
      <point x="-20" y="426" type="line"/>
      <point x="634" y="426" type="line"/>
      <point x="634" y="234" type="line"/>
      <point x="403" y="234" type="line"/>
      <point x="403" y="-420" type="line"/>
      <point x="211" y="-420" type="line"/>
    </contour>
  </outline>
</glyph>
<glyph name="vertlighthorzheavybxd" format="2">
  <advance width="614"/>
  <unicode hex="253F"/>
  <outline>
    <contour>
      <point x="251" y="234" type="line"/>
      <point x="-20" y="234" type="line"/>
      <point x="-20" y="426" type="line"/>
      <point x="251" y="426" type="line"/>
      <point x="251" y="1080" type="line"/>
      <point x="363" y="1080" type="line"/>
      <point x="363" y="426" type="line"/>
      <point x="634" y="426" type="line"/>
      <point x="634" y="234" type="line"/>
      <point x="363" y="234" type="line"/>
      <point x="363" y="-420" type="line"/>
      <point x="251" y="-420" type="line"/>
    </contour>
  </outline>
</glyph>
<glyph name="lightdbldashhorzbxd" format="2">
  <advance width="614"/>
  <unicode hex="254C"/>
  <outline>
    <contour>
      <point x="230" y="274" type="line"/>
      <point x="77" y="274" type="line"/>
      <point x="77" y="386" type="line"/>
      <point x="230" y="386" type="line"/>
    </contour>
    <contour>
      <point x="537" y="274" type="line"/>
      <point x="384" y="274" type="line"/>
      <point x="384" y="386" type="line"/>
      <point x="537" y="386" type="line"/>
    </contour>
  </outline>
</glyph>
<glyph name="heavydbldashhorzbxd" format="2">
  <advance width="614"/>
  <unicode hex="254D"/>
  <outline>
    <contour>
      <point x="230" y="234" type="line"/>
      <point x="77" y="234" type="line"/>
      <point x="77" y="426" type="line"/>
      <point x="230" y="426" type="line"/>
    </contour>
    <contour>
      <point x="537" y="234" type="line"/>
      <point x="384" y="234" type="line"/>
      <point x="384" y="426" type="line"/>
      <point x="537" y="426" type="line"/>
    </contour>
  </outline>
</glyph>
<glyph name="heavydbldashvertbxd" format="2">
  <advance width="614"/>
  <unicode hex="254F"/>
  <outline>
    <contour>
      <point x="403" y="455" type="line"/>
      <point x="211" y="455" type="line"/>
      <point x="211" y="705" type="line"/>
      <point x="403" y="705" type="line"/>
    </contour>
    <contour>
      <point x="403" y="-45" type="line"/>
      <point x="211" y="-45" type="line"/>
      <point x="211" y="205" type="line"/>
      <point x="403" y="205" type="line"/>
    </contour>
  </outline>
</glyph>
<glyph name="dblvertbxd" format="2">
  <advance width="614"/>
  <unicode hex="2551"/>
  <outline>
    <contour>
      <point x="251" y="-420" type="line"/>
      <point x="139" y="-420" type="line"/>
      <point x="139" y="1080" type="line"/>
      <point x="251" y="1080" type="line"/>
    </contour>
    <contour>
      <point x="476" y="-420" type="line"/>
      <point x="363" y="-420" type="line"/>
      <point x="363" y="1080" type="line"/>
      <point x="476" y="1080" type="line"/>
    </contour>
  </outline>
</glyph>
<glyph name="dbldnrightbxd" format="2">
  <advance width="614"/>
  <unicode hex="2554"/>
  <outline>
    <contour>
      <point x="251" y="-420" type="line"/>
      <point x="139" y="-420" type="line"/>
      <point x="139" y="499" type="line"/>
      <point x="634" y="499" type="line"/>
      <point x="634" y="386" type="line"/>
      <point x="251" y="386" type="line"/>
    </contour>
    <contour>
      <point x="476" y="-420" type="line"/>
      <point x="363" y="-420" type="line"/>
      <point x="363" y="274" type="line"/>
      <point x="634" y="274" type="line"/>
      <point x="634" y="162" type="line"/>
      <point x="476" y="162" type="line"/>
    </contour>
  </outline>
</glyph>
<glyph name="dndblleftsngbxd" format="2">
  <advance width="614"/>
  <unicode hex="2556"/>
  <outline>
    <contour>
      <point x="139" y="274" type="line"/>
      <point x="-20" y="274" type="line"/>
      <point x="-20" y="386" type="line"/>
      <point x="476" y="386" type="line"/>
      <point x="476" y="-420" type="line"/>
      <point x="363" y="-420" type="line"/>
      <point x="363" y="274" type="line"/>
      <point x="251" y="274" type="line"/>
      <point x="251" y="-420" type="line"/>
      <point x="139" y="-420" type="line"/>
    </contour>
  </outline>
</glyph>
<glyph name="vertdblhorzsngbxd" format="2">
  <advance width="614"/>
  <unicode hex="256B"/>
  <outline>
    <contour>
      <point x="139" y="274" type="line"/>
      <point x="-20" y="274" type="line"/>
      <point x="-20" y="386" type="line"/>
      <point x="139" y="386" type="line"/>
      <point x="139" y="1080" type="line"/>
      <point x="251" y="1080" type="line"/>
      <point x="251" y="386" type="line"/>
      <point x="363" y="386" type="line"/>
      <point x="363" y="1080" type="line"/>
      <point x="476" y="1080" type="line"/>
      <point x="476" y="386" type="line"/>
      <point x="634" y="386" type="line"/>
      <point x="634" y="274" type="line"/>
      <point x="476" y="274" type="line"/>
      <point x="476" y="-420" type="line"/>
      <point x="363" y="-420" type="line"/>
      <point x="363" y="274" type="line"/>
      <point x="251" y="274" type="line"/>
      <point x="251" y="-420" type="line"/>
      <point x="139" y="-420" type="line"/>
    </contour>
  </outline>
</glyph>
<glyph name="lightdiagcrossbxd" format="2">
  <advance width="614"/>
  <unicode hex="2573"/>
  <outline>
    <contour>
      <point x="0" y="-360" type="line"/>
      <point x="0" y="-290" type="line"/>
      <point x="252" y="330" type="line"/>
      <point x="0" y="950" type="line"/>
      <point x="0" y="1020" type="line"/>
      <point x="82" y="1020" type="line"/>
      <point x="307" y="466" type="line"/>
      <point x="532" y="1020" type="line"/>
      <point x="614" y="1020" type="line"/>
      <point x="614" y="950" type="line"/>
      <point x="362" y="330" type="line"/>
      <point x="614" y="-290" type="line"/>
      <point x="614" y="-360" type="line"/>
      <point x="532" y="-360" type="line"/>
      <point x="307" y="194" type="line"/>
      <point x="82" y="-360" type="line"/>
    </contour>
  </outline>
</glyph>
<glyph name="heavydnbxd" format="2">
  <advance width="614"/>
  <unicode hex="257B"/>
  <outline>
    <contour>
      <point x="403" y="-420" type="line"/>
      <point x="211" y="-420" type="line"/>
      <point x="211" y="386" type="line"/>
      <point x="403" y="386" type="line"/>
    </contour>
  </outline>
</glyph>
<glyph name="lightupheavydnbxd" format="2">
  <advance width="614"/>
  <unicode hex="257D"/>
  <outline>
    <contour>
      <point x="403" y="-420" type="line"/>
      <point x="211" y="-420" type="line"/>
      <point x="211" y="386" type="line"/>
      <point x="251" y="386" type="line"/>
      <point x="251" y="1080" type="line"/>
      <point x="363" y="1080" type="line"/>
      <point x="363" y="386" type="line"/>
      <point x="403" y="386" type="line"/>
    </contour>
  </outline>
</glyph>
<glyph name="uni2610" format="2">
  <advance width="614"/>
  <unicode hex="2610"/>
  <outline>
    <contour>
      <point x="564" y="70" type="line"/>
      <point x="50" y="70" type="line"/>
      <point x="50" y="585" type="line"/>
      <point x="564" y="585" type="line"/>
    </contour>
    <contour>
      <point x="123" y="522" type="line"/>
      <point x="123" y="133" type="line"/>
      <point x="491" y="133" type="line"/>
      <point x="491" y="522" type="line"/>
    </contour>
  </outline>
</glyph>
<glyph name="uni2611" format="2">
  <advance width="614"/>
  <unicode hex="2611"/>
  <outline>
    <contour>
      <point x="464" y="732" type="line"/>
      <point x="538" y="732" type="line"/>
      <point x="485" y="585" type="line"/>
      <point x="564" y="585" type="line"/>
      <point x="564" y="70" type="line"/>
      <point x="50" y="70" type="line"/>
      <point x="50" y="585" type="line"/>
      <point x="415" y="585" type="line"/>
    </contour>
    <contour>
      <point x="463" y="524" type="line"/>
      <point x="344" y="194" type="line"/>
      <point x="279" y="194" type="line"/>
      <point x="172" y="433" type="line"/>
      <point x="245" y="433" type="line"/>
      <point x="311" y="275" type="line"/>
      <point x="394" y="524" type="line"/>
      <point x="121" y="524" type="line"/>
      <point x="121" y="131" type="line"/>
      <point x="493" y="131" type="line"/>
      <point x="493" y="524" type="line"/>
    </contour>
  </outline>
</glyph>
<glyph name="uni2713" format="2">
  <advance width="614"/>
  <unicode hex="2713"/>
  <outline>
    <contour>
      <point x="415" y="598" type="line"/>
      <point x="534" y="598" type="line"/>
      <point x="370" y="55" type="line"/>
      <point x="200" y="55" type="line"/>
      <point x="68" y="359" type="line"/>
      <point x="190" y="359" type="line"/>
      <point x="282" y="129" type="line"/>
    </contour>
  </outline>
</glyph>
<glyph name="uniE0A0" format="2">
  <advance width="614"/>
  <unicode hex="E0A0"/>
  <outline>
    <contour>
      <point x="36" y="226" type="line"/>
      <point x="36" y="1020" type="line"/>
      <point x="135" y="1020" type="line"/>
      <point x="135" y="305" type="line"/>
    </contour>
    <contour>
      <point x="40" y="-360" type="line"/>
      <point x="40" y="-198" type="line" smooth="yes"/>
      <point x="40" y="-103"/>
      <point x="54" y="3"/>
      <point x="71" y="39" type="qcurve" smooth="yes"/>
      <point x="90" y="78"/>
      <point x="164" y="144"/>
      <point x="250" y="194" type="qcurve" smooth="yes"/>
      <point x="320" y="233"/>
      <point x="363.0" y="302.0"/>
      <point x="363" y="396" type="qcurve" smooth="yes"/>
      <point x="363" y="525" type="line"/>
      <point x="211" y="525" type="line"/>
      <point x="211" y="529" type="line"/>
      <point x="410" y="747" type="line"/>
      <point x="414" y="747" type="line"/>
      <point x="613" y="529" type="line"/>
      <point x="613" y="525" type="line"/>
      <point x="461" y="525" type="line"/>
      <point x="461.0" y="350" type="line" smooth="yes"/>
      <point x="461.0" y="265.0"/>
      <point x="396" y="170"/>
      <point x="281" y="102" type="qcurve" smooth="yes"/>
      <point x="218" y="65"/>
      <point x="164" y="11"/>
      <point x="153" y="-24" type="qcurve" smooth="yes"/>
      <point x="145" y="-50"/>
      <point x="138.0" y="-125.0"/>
      <point x="138" y="-209" type="qcurve" smooth="yes"/>
      <point x="138" y="-360" type="line"/>
    </contour>
  </outline>
</glyph>
<glyph name="ampersand_ampersand.liga" format="2">
  <advance width="614"/>
  <outline>
    <contour>
      <point x="-246" y="669" type="qcurve" smooth="yes"/>
      <point x="-221" y="669"/>
      <point x="-148" y="661"/>
      <point x="-95" y="652" type="qcurve"/>
      <point x="-108" y="566" type="line"/>
      <point x="-150" y="574"/>
      <point x="-214" y="581"/>
      <point x="-242" y="581" type="qcurve" smooth="yes"/>
      <point x="-281" y="581"/>
      <point x="-326" y="549"/>
      <point x="-326" y="521" type="qcurve" smooth="yes"/>
      <point x="-326" y="503"/>
      <point x="-309" y="460"/>
      <point x="-288" y="426" type="qcurve" smooth="yes"/>
      <point x="-192" y="273" type="line"/>
      <point x="-130" y="423" type="line"/>
      <point x="-46" y="390" type="line"/>
      <point x="-134" y="191" type="line"/>
      <point x="-18" y="-1" type="line"/>
      <point x="-138" y="-1" type="line"/>
      <point x="-192" y="97" type="line"/>
      <point x="-229" y="37"/>
      <point x="-308" y="-11"/>
      <point x="-373" y="-11" type="qcurve" smooth="yes"/>
      <point x="-452" y="-11"/>
      <point x="-546" y="85"/>
      <point x="-546" y="168" type="qcurve" smooth="yes"/>
      <point x="-546" y="252"/>
      <point x="-469" y="339"/>
      <point x="-371" y="369" type="qcurve"/>
      <point x="-403" y="419"/>
      <point x="-428" y="486"/>
      <point x="-428" y="519" type="qcurve" smooth="yes"/>
      <point x="-428" y="585"/>
      <point x="-328" y="669"/>
    </contour>
    <contour>
      <point x="310" y="669" type="qcurve" smooth="yes"/>
      <point x="336" y="669"/>
      <point x="407" y="661"/>
      <point x="461" y="652" type="qcurve"/>
      <point x="449" y="566" type="line"/>
      <point x="406" y="574"/>
      <point x="342" y="581"/>
      <point x="314" y="581" type="qcurve" smooth="yes"/>
      <point x="277" y="581"/>
      <point x="234" y="549"/>
      <point x="234" y="521" type="qcurve" smooth="yes"/>
      <point x="234" y="503"/>
      <point x="251" y="463"/>
      <point x="271" y="435" type="qcurve" smooth="yes"/>
      <point x="385" y="264" type="line"/>
      <point x="455" y="423" type="line"/>
      <point x="539" y="390" type="line"/>
      <point x="443" y="186" type="line"/>
      <point x="565" y="-1" type="line"/>
      <point x="445" y="-1" type="line"/>
      <point x="385" y="95" type="line"/>
      <point x="348" y="36"/>
      <point x="268" y="-11"/>
      <point x="202" y="-11" type="qcurve" smooth="yes"/>
      <point x="123" y="-11"/>
      <point x="29" y="85"/>
      <point x="29" y="168" type="qcurve" smooth="yes"/>
      <point x="29" y="251"/>
      <point x="103" y="335"/>
      <point x="196" y="365" type="qcurve"/>
      <point x="157" y="427"/>
      <point x="132" y="490"/>
      <point x="132" y="519" type="qcurve" smooth="yes"/>
      <point x="132" y="585"/>
      <point x="230" y="669"/>
    </contour>
    <contour>
      <point x="-443" y="180" type="qcurve" smooth="yes"/>
      <point x="-443" y="133"/>
      <point x="-397" y="83"/>
      <point x="-355" y="83" type="qcurve" smooth="yes"/>
      <point x="-313" y="83"/>
      <point x="-265" y="120"/>
      <point x="-242" y="167" type="qcurve"/>
      <point x="-328" y="302" type="line"/>
      <point x="-394" y="281"/>
      <point x="-443" y="234"/>
    </contour>
    <contour>
      <point x="133" y="180" type="qcurve" smooth="yes"/>
      <point x="133" y="133"/>
      <point x="178" y="83"/>
      <point x="220" y="83" type="qcurve" smooth="yes"/>
      <point x="262" y="83"/>
      <point x="312" y="119"/>
      <point x="335" y="162" type="qcurve"/>
      <point x="241" y="299" type="line"/>
      <point x="179" y="279"/>
      <point x="133" y="233"/>
    </contour>
  </outline>
</glyph>
<glyph name="asciitilde_asciitilde.liga" format="2">
  <advance width="614"/>
  <outline>
    <contour>
      <point x="118" y="335" type="qcurve" smooth="yes"/>
      <point x="102" y="335"/>
      <point x="66" y="315"/>
      <point x="25" y="286" type="qcurve" smooth="yes"/>
      <point x="-37" y="242"/>
      <point x="-97" y="212"/>
      <point x="-122" y="212" type="qcurve" smooth="yes"/>
      <point x="-147" y="212"/>
      <point x="-200" y="240"/>
      <point x="-260" y="283" type="qcurve" smooth="yes"/>
      <point x="-303" y="314"/>
      <point x="-337" y="334"/>
      <point x="-351" y="334" type="qcurve" smooth="yes"/>
      <point x="-367" y="334"/>
      <point x="-400" y="281"/>
      <point x="-433" y="209" type="qcurve"/>
      <point x="-516" y="246" type="line"/>
      <point x="-470" y="350"/>
      <point x="-398" y="440"/>
      <point x="-355" y="440" type="qcurve" smooth="yes"/>
      <point x="-335" y="440"/>
      <point x="-286" y="416"/>
      <point x="-223" y="373" type="qcurve" smooth="yes"/>
      <point x="-177" y="341"/>
      <point x="-134" y="318"/>
      <point x="-116" y="318" type="qcurve" smooth="yes"/>
      <point x="-98" y="318"/>
      <point x="-59" y="338"/>
      <point x="-19" y="367" type="qcurve" smooth="yes"/>
      <point x="45" y="413"/>
      <point x="100" y="441"/>
      <point x="124" y="441" type="qcurve" smooth="yes"/>
      <point x="149" y="441"/>
      <point x="204" y="413"/>
      <point x="262" y="370" type="qcurve" smooth="yes"/>
      <point x="304" y="340"/>
      <point x="340" y="319"/>
      <point x="353" y="319" type="qcurve" smooth="yes"/>
      <point x="369" y="319"/>
      <point x="402" y="372"/>
      <point x="436" y="444" type="qcurve"/>
      <point x="518" y="407" type="line"/>
      <point x="472" y="303"/>
      <point x="400" y="213"/>
      <point x="357" y="213" type="qcurve" smooth="yes"/>
      <point x="337" y="213"/>
      <point x="288" y="237"/>
      <point x="225" y="280" type="qcurve" smooth="yes"/>
      <point x="179" y="312"/>
      <point x="136" y="335"/>
    </contour>
  </outline>
</glyph>
<glyph name="asciitilde_asciitilde_greater" format="2">
  <advance width="614"/>
  <outline>
    <contour>
      <point x="117" y="366" type="qcurve" smooth="yes"/>
      <point x="145" y="343"/>
      <point x="174" y="326"/>
      <point x="188" y="326" type="qcurve" smooth="yes"/>
      <point x="202" y="326"/>
      <point x="273" y="345"/>
      <point x="349" y="369" type="qcurve"/>
      <point x="89" y="597" type="line"/>
      <point x="154" y="665" type="line"/>
      <point x="534" y="329" type="line"/>
      <point x="534" y="325" type="line"/>
      <point x="154" y="-11" type="line"/>
      <point x="89" y="57" type="line"/>
      <point x="344" y="280" type="line"/>
      <point x="270" y="253"/>
      <point x="195" y="230"/>
      <point x="177" y="230" type="qcurve" smooth="yes"/>
      <point x="156" y="230"/>
      <point x="113" y="251"/>
      <point x="77" y="280" type="qcurve" smooth="yes"/>
      <point x="44" y="306"/>
      <point x="9" y="326"/>
      <point x="-6" y="326" type="qcurve" smooth="yes"/>
      <point x="-21" y="326"/>
      <point x="-55" y="308"/>
      <point x="-89" y="282" type="qcurve" smooth="yes"/>
      <point x="-142" y="241"/>
      <point x="-197" y="212"/>
      <point x="-223" y="212" type="qcurve" smooth="yes"/>
      <point x="-245" y="212"/>
      <point x="-299" y="241"/>
      <point x="-347" y="278" type="qcurve" smooth="yes"/>
      <point x="-381" y="304"/>
      <point x="-419" y="326"/>
      <point x="-436" y="326" type="qcurve" smooth="yes"/>
      <point x="-451" y="326"/>
      <point x="-485" y="308"/>
      <point x="-519" y="282" type="qcurve" smooth="yes"/>
      <point x="-572" y="242"/>
      <point x="-627" y="212"/>
      <point x="-653" y="212" type="qcurve" smooth="yes"/>
      <point x="-676" y="212"/>
      <point x="-733" y="244"/>
      <point x="-783" y="283" type="qcurve" smooth="yes"/>
      <point x="-827" y="316"/>
      <point x="-855" y="334"/>
      <point x="-866" y="334" type="qcurve" smooth="yes"/>
      <point x="-881" y="334"/>
      <point x="-911" y="285"/>
      <point x="-945" y="209" type="qcurve"/>
      <point x="-1028" y="246" type="line"/>
      <point x="-982" y="352"/>
      <point x="-915" y="440"/>
      <point x="-875" y="440" type="qcurve" smooth="yes"/>
      <point x="-851" y="440"/>
      <point x="-803" y="415"/>
      <point x="-746" y="373" type="qcurve" smooth="yes"/>
      <point x="-705" y="342"/>
      <point x="-664" y="318"/>
      <point x="-648" y="318" type="qcurve" smooth="yes"/>
      <point x="-631" y="318"/>
      <point x="-598" y="336"/>
      <point x="-563" y="363" type="qcurve" smooth="yes"/>
      <point x="-508" y="404"/>
      <point x="-455" y="432"/>
      <point x="-431" y="432" type="qcurve" smooth="yes"/>
      <point x="-408" y="432"/>
      <point x="-354" y="402"/>
      <point x="-307" y="366" type="qcurve" smooth="yes"/>
      <point x="-273" y="340"/>
      <point x="-235" y="318"/>
      <point x="-218" y="318" type="qcurve" smooth="yes"/>
      <point x="-201" y="318"/>
      <point x="-168" y="336"/>
      <point x="-133" y="363" type="qcurve" smooth="yes"/>
      <point x="-78" y="404"/>
      <point x="-25" y="432"/>
      <point x="-1" y="432" type="qcurve" smooth="yes"/>
      <point x="18" y="432"/>
      <point x="68" y="404"/>
    </contour>
  </outline>
</glyph>
<glyph name="asciitilde_at.liga" format="2">
  <advance width="614"/>
  <outline>
    <contour>
      <point x="98" y="612" type="qcurve" smooth="yes"/>
      <point x="77" y="587"/>
      <point x="36" y="505"/>
      <point x="8" y="430" type="qcurve" smooth="yes"/>
      <point x="-35" y="310"/>
      <point x="-100" y="215"/>
      <point x="-147" y="215" type="qcurve" smooth="yes"/>
      <point x="-172" y="215"/>
      <point x="-231" y="245"/>
      <point x="-282" y="284" type="qcurve" smooth="yes"/>
      <point x="-331" y="321"/>
      <point x="-365" y="343"/>
      <point x="-378" y="343" type="qcurve" smooth="yes"/>
      <point x="-392" y="343"/>
      <point x="-418" y="293"/>
      <point x="-450" y="207" type="qcurve"/>
      <point x="-537" y="233" type="line"/>
      <point x="-500" y="354"/>
      <point x="-435" y="449"/>
      <point x="-383" y="449" type="qcurve" smooth="yes"/>
      <point x="-360" y="449"/>
      <point x="-316" y="426"/>
      <point x="-252" y="378" type="qcurve" smooth="yes"/>
      <point x="-198" y="337"/>
      <point x="-155" y="312"/>
      <point x="-137" y="312" type="qcurve" smooth="yes"/>
      <point x="-117" y="312"/>
      <point x="-83" y="366"/>
      <point x="-46" y="456" type="qcurve" smooth="yes"/>
      <point x="-11" y="542"/>
      <point x="41" y="635"/>
      <point x="68" y="662" type="qcurve" smooth="yes"/>
      <point x="103" y="697"/>
      <point x="202" y="725"/>
      <point x="290" y="725" type="qcurve" smooth="yes"/>
      <point x="371" y="725"/>
      <point x="462" y="668"/>
      <point x="485" y="604" type="qcurve" smooth="yes"/>
      <point x="501" y="562"/>
      <point x="516" y="440"/>
      <point x="516" y="358" type="qcurve" smooth="yes"/>
      <point x="516" y="236"/>
      <point x="429" y="129"/>
      <point x="326" y="129" type="qcurve" smooth="yes"/>
      <point x="234" y="129"/>
      <point x="149" y="222"/>
      <point x="149" y="323" type="qcurve" smooth="yes"/>
      <point x="149" y="422"/>
      <point x="245" y="515"/>
      <point x="347" y="515" type="qcurve" smooth="yes"/>
      <point x="453" y="515" type="line"/>
      <point x="440" y="603"/>
      <point x="369" y="674"/>
      <point x="284" y="674" type="qcurve" smooth="yes"/>
      <point x="210" y="674"/>
      <point x="127" y="646"/>
    </contour>
    <contour>
      <point x="229" y="322" type="qcurve" smooth="yes"/>
      <point x="229" y="258"/>
      <point x="276" y="200"/>
      <point x="330" y="200" type="qcurve" smooth="yes"/>
      <point x="404" y="200"/>
      <point x="461" y="269"/>
      <point x="461" y="356" type="qcurve" smooth="yes"/>
      <point x="461" y="375"/>
      <point x="460" y="416"/>
      <point x="459" y="444" type="qcurve"/>
      <point x="345" y="444" type="line" smooth="yes"/>
      <point x="283" y="444"/>
      <point x="229" y="387"/>
    </contour>
  </outline>
</glyph>
<glyph name="asciitilde_greater.liga" format="2">
  <advance width="614"/>
  <outline>
    <contour>
      <point x="-260" y="373" type="qcurve" smooth="yes"/>
      <point x="-219" y="342"/>
      <point x="-178" y="318"/>
      <point x="-162" y="318" type="qcurve" smooth="yes"/>
      <point x="-145" y="318"/>
      <point x="-110" y="337"/>
      <point x="-76" y="363" type="qcurve" smooth="yes"/>
      <point x="-22" y="404"/>
      <point x="31" y="432"/>
      <point x="56" y="432" type="qcurve" smooth="yes"/>
      <point x="72" y="432"/>
      <point x="112" y="412"/>
      <point x="158" y="380" type="qcurve" smooth="yes"/>
      <point x="192" y="355"/>
      <point x="221" y="339"/>
      <point x="232" y="339" type="qcurve" smooth="yes"/>
      <point x="246" y="339"/>
      <point x="290" y="349"/>
      <point x="352" y="366" type="qcurve"/>
      <point x="89" y="597" type="line"/>
      <point x="154" y="665" type="line"/>
      <point x="534" y="329" type="line"/>
      <point x="534" y="325" type="line"/>
      <point x="154" y="-11" type="line"/>
      <point x="89" y="57" type="line"/>
      <point x="341" y="278" type="line"/>
      <point x="289" y="259"/>
      <point x="236" y="244"/>
      <point x="220" y="244" type="qcurve" smooth="yes"/>
      <point x="201" y="244"/>
      <point x="162" y="263"/>
      <point x="122" y="292" type="qcurve" smooth="yes"/>
      <point x="96" y="311"/>
      <point x="65" y="326"/>
      <point x="51" y="326" type="qcurve" smooth="yes"/>
      <point x="35" y="326"/>
      <point x="4" y="309"/>
      <point x="-32" y="282" type="qcurve" smooth="yes"/>
      <point x="-86" y="241"/>
      <point x="-141" y="212"/>
      <point x="-166" y="212" type="qcurve" smooth="yes"/>
      <point x="-190" y="212"/>
      <point x="-245" y="243"/>
      <point x="-296" y="283" type="qcurve" smooth="yes"/>
      <point x="-343" y="318"/>
      <point x="-369" y="334"/>
      <point x="-379" y="334" type="qcurve" smooth="yes"/>
      <point x="-393" y="334"/>
      <point x="-424" y="285"/>
      <point x="-459" y="209" type="qcurve"/>
      <point x="-542" y="246" type="line"/>
      <point x="-495" y="353"/>
      <point x="-428" y="440"/>
      <point x="-389" y="440" type="qcurve" smooth="yes"/>
      <point x="-364" y="440"/>
      <point x="-318" y="416"/>
    </contour>
  </outline>
</glyph>
<glyph name="asciitilde_hyphen.liga" format="2">
  <advance width="614"/>
  <outline>
    <contour>
      <point x="-54" y="356" type="qcurve" smooth="yes"/>
      <point x="-22" y="367"/>
      <point x="20" y="374"/>
      <point x="42" y="374" type="qcurve" smooth="yes"/>
      <point x="443" y="374" type="line"/>
      <point x="443" y="283" type="line"/>
      <point x="53" y="283" type="line" smooth="yes"/>
      <point x="31" y="283"/>
      <point x="-8" y="275"/>
      <point x="-40" y="262" type="qcurve" smooth="yes"/>
      <point x="-65" y="252"/>
      <point x="-93" y="246"/>
      <point x="-106" y="246" type="qcurve" smooth="yes"/>
      <point x="-131" y="246"/>
      <point x="-184" y="273"/>
      <point x="-229" y="308" type="qcurve" smooth="yes"/>
      <point x="-274" y="341"/>
      <point x="-306" y="360"/>
      <point x="-318" y="360" type="qcurve" smooth="yes"/>
      <point x="-332" y="360"/>
      <point x="-359" y="309"/>
      <point x="-390" y="224" type="qcurve"/>
      <point x="-477" y="250" type="line"/>
      <point x="-440" y="371"/>
      <point x="-375" y="466"/>
      <point x="-323" y="466" type="qcurve" smooth="yes"/>
      <point x="-300" y="466"/>
      <point x="-256" y="443"/>
      <point x="-192" y="395" type="qcurve" smooth="yes"/>
      <point x="-150" y="363"/>
      <point x="-115" y="346"/>
      <point x="-97" y="346" type="qcurve" smooth="yes"/>
      <point x="-90" y="346"/>
      <point x="-73" y="350"/>
    </contour>
  </outline>
</glyph>
<glyph name="bar_bar_equal.liga" format="2">
  <advance width="614"/>
  <outline>
    <contour>
      <point x="527" y="270" type="line"/>
      <point x="527" y="179" type="line"/>
      <point x="-554" y="179" type="line"/>
      <point x="-554" y="-100" type="line"/>
      <point x="-656" y="-100" type="line"/>
      <point x="-656" y="755" type="line"/>
      <point x="-554" y="755" type="line"/>
      <point x="-554" y="478" type="line"/>
      <point x="527" y="478" type="line"/>
      <point x="527" y="387" type="line"/>
      <point x="-554" y="387" type="line"/>
      <point x="-554" y="270" type="line"/>
    </contour>
    <contour>
      <point x="-972" y="-100" type="line"/>
      <point x="-972" y="755" type="line"/>
      <point x="-870" y="755" type="line"/>
      <point x="-870" y="-100" type="line"/>
    </contour>
  </outline>
</glyph>
<glyph name="bar_bar_equal.start" format="2">
  <advance width="614"/>
  <outline>
    <contour>
      <point x="624" y="270" type="line"/>
      <point x="624" y="179" type="line"/>
      <point x="-554" y="179" type="line"/>
      <point x="-554" y="-100" type="line"/>
      <point x="-656" y="-100" type="line"/>
      <point x="-656" y="755" type="line"/>
      <point x="-554" y="755" type="line"/>
      <point x="-554" y="478" type="line"/>
      <point x="624" y="478" type="line"/>
      <point x="624" y="387" type="line"/>
      <point x="-554" y="387" type="line"/>
      <point x="-554" y="270" type="line"/>
    </contour>
    <contour>
      <point x="-972" y="-100" type="line"/>
      <point x="-972" y="755" type="line"/>
      <point x="-870" y="755" type="line"/>
      <point x="-870" y="-100" type="line"/>
    </contour>
  </outline>
</glyph>
<glyph name="bar_bar_greater.liga" format="2">
  <advance width="614"/>
  <outline>
    <contour>
      <point x="-710" y="783" type="line"/>
      <point x="-710" y="-129" type="line"/>
      <point x="-813" y="-129" type="line"/>
      <point x="-813" y="783" type="line"/>
    </contour>
    <contour>
      <point x="-398" y="783" type="line"/>
      <point x="-313" y="783" type="line"/>
      <point x="342" y="374" type="line"/>
      <point x="342" y="272" type="line"/>
      <point x="-313" y="-129" type="line"/>
      <point x="-398" y="-129" type="line"/>
    </contour>
    <contour>
      <point x="247" y="324" type="line"/>
      <point x="-296" y="655" type="line"/>
      <point x="-296" y="-1" type="line"/>
    </contour>
  </outline>
</glyph>
<glyph name="bar_braceright.liga" format="2">
  <advance width="614"/>
  <outline>
    <contour>
      <point x="349" y="-16" type="qcurve" smooth="yes"/>
      <point x="349" y="-63"/>
      <point x="287" y="-112"/>
      <point x="224" y="-115" type="qcurve" smooth="yes"/>
      <point x="-72" y="-130" type="line"/>
      <point x="-75" y="-36" type="line"/>
      <point x="189" y="-25" type="line" smooth="yes"/>
      <point x="207" y="-24"/>
      <point x="224" y="-11"/>
      <point x="224" y="2" type="qcurve" smooth="yes"/>
      <point x="224" y="9"/>
      <point x="212" y="28"/>
      <point x="196" y="46" type="qcurve" smooth="yes"/>
      <point x="148" y="100" type="line" smooth="yes"/>
      <point x="116" y="136"/>
      <point x="93" y="173"/>
      <point x="93" y="191" type="qcurve" smooth="yes"/>
      <point x="93" y="222"/>
      <point x="147" y="262"/>
      <point x="209" y="282" type="qcurve" smooth="yes"/>
      <point x="239" y="291"/>
      <point x="316" y="311"/>
      <point x="364" y="321" type="qcurve"/>
      <point x="364" y="337" type="line"/>
      <point x="316" y="347"/>
      <point x="239" y="367"/>
      <point x="209" y="377" type="qcurve" smooth="yes"/>
      <point x="147" y="397"/>
      <point x="93" y="436"/>
      <point x="93" y="468" type="qcurve" smooth="yes"/>
      <point x="93" y="486"/>
      <point x="116" y="523"/>
      <point x="148" y="559" type="qcurve" smooth="yes"/>
      <point x="196" y="613" type="line" smooth="yes"/>
      <point x="213" y="633"/>
      <point x="224" y="650"/>
      <point x="224" y="657" type="qcurve" smooth="yes"/>
      <point x="224" y="670"/>
      <point x="206" y="683"/>
      <point x="189" y="684" type="qcurve" smooth="yes"/>
      <point x="-76" y="695" type="line"/>
      <point x="-73" y="789" type="line"/>
      <point x="224" y="774" type="line" smooth="yes"/>
      <point x="287" y="771"/>
      <point x="349" y="721"/>
      <point x="349" y="675" type="qcurve" smooth="yes"/>
      <point x="349" y="653"/>
      <point x="324" y="606"/>
      <point x="297" y="576" type="qcurve" smooth="yes"/>
      <point x="249" y="522" type="line" smooth="yes"/>
      <point x="232" y="503"/>
      <point x="220" y="484"/>
      <point x="220" y="475" type="qcurve" smooth="yes"/>
      <point x="220" y="458"/>
      <point x="273" y="431"/>
      <point x="334" y="413" type="qcurve" smooth="yes"/>
      <point x="360" y="405"/>
      <point x="425" y="388"/>
      <point x="466" y="378" type="qcurve"/>
      <point x="466" y="281" type="line"/>
      <point x="425" y="271"/>
      <point x="360" y="253"/>
      <point x="334" y="246" type="qcurve" smooth="yes"/>
      <point x="272" y="227"/>
      <point x="220" y="201"/>
      <point x="220" y="184" type="qcurve" smooth="yes"/>
      <point x="220" y="175"/>
      <point x="233" y="155"/>
      <point x="249" y="137" type="qcurve" smooth="yes"/>
      <point x="297" y="83" type="line" smooth="yes"/>
      <point x="325" y="52"/>
      <point x="349" y="6"/>
    </contour>
    <contour>
      <point x="-255" y="-129" type="line"/>
      <point x="-358" y="-129" type="line"/>
      <point x="-358" y="783" type="line"/>
      <point x="-255" y="783" type="line"/>
    </contour>
  </outline>
</glyph>
<glyph name="bar_equal.liga" format="2">
  <advance width="614"/>
  <outline>
    <contour>
      <point x="527" y="270" type="line"/>
      <point x="527" y="179" type="line"/>
      <point x="-256" y="179" type="line"/>
      <point x="-256" y="-100" type="line"/>
      <point x="-358" y="-100" type="line"/>
      <point x="-358" y="755" type="line"/>
      <point x="-256" y="755" type="line"/>
      <point x="-256" y="478" type="line"/>
      <point x="527" y="478" type="line"/>
      <point x="527" y="387" type="line"/>
      <point x="-256" y="387" type="line"/>
      <point x="-256" y="270" type="line"/>
    </contour>
  </outline>
</glyph>
<glyph name="bar_hyphen.start" format="2">
  <advance width="614"/>
  <outline>
    <contour>
      <point x="624" y="374" type="line"/>
      <point x="624" y="283" type="line"/>
      <point x="-256" y="283" type="line"/>
      <point x="-256" y="-100" type="line"/>
      <point x="-358" y="-100" type="line"/>
      <point x="-358" y="755" type="line"/>
      <point x="-256" y="755" type="line"/>
      <point x="-256" y="374" type="line"/>
    </contour>
  </outline>
</glyph>
<glyph name="braceleft_bar.liga" format="2">
  <advance width="614"/>
  <outline>
    <contour>
      <point x="-348" y="-16" type="qcurve" smooth="yes"/>
      <point x="-348" y="6"/>
      <point x="-323" y="52"/>
      <point x="-295" y="83" type="qcurve" smooth="yes"/>
      <point x="-247" y="137" type="line" smooth="yes"/>
      <point x="-231" y="155"/>
      <point x="-218" y="175"/>
      <point x="-218" y="184" type="qcurve" smooth="yes"/>
      <point x="-218" y="201"/>
      <point x="-270" y="227"/>
      <point x="-332" y="246" type="qcurve" smooth="yes"/>
      <point x="-358" y="253"/>
      <point x="-423" y="271"/>
      <point x="-464" y="281" type="qcurve"/>
      <point x="-464" y="378" type="line"/>
      <point x="-423" y="388"/>
      <point x="-358" y="405"/>
      <point x="-332" y="413" type="qcurve" smooth="yes"/>
      <point x="-271" y="431"/>
      <point x="-218" y="458"/>
      <point x="-218" y="475" type="qcurve" smooth="yes"/>
      <point x="-218" y="484"/>
      <point x="-230" y="503"/>
      <point x="-247" y="522" type="qcurve" smooth="yes"/>
      <point x="-295" y="576" type="line" smooth="yes"/>
      <point x="-323" y="606"/>
      <point x="-348" y="653"/>
      <point x="-348" y="675" type="qcurve" smooth="yes"/>
      <point x="-348" y="721"/>
      <point x="-285" y="771"/>
      <point x="-222" y="774" type="qcurve" smooth="yes"/>
      <point x="73" y="789" type="line"/>
      <point x="77" y="695" type="line"/>
      <point x="-187" y="684" type="line" smooth="yes"/>
      <point x="-204" y="683"/>
      <point x="-222" y="670"/>
      <point x="-222" y="657" type="qcurve" smooth="yes"/>
      <point x="-222" y="650"/>
      <point x="-212" y="633"/>
      <point x="-195" y="613" type="qcurve" smooth="yes"/>
      <point x="-146" y="559" type="line" smooth="yes"/>
      <point x="-114" y="523"/>
      <point x="-91" y="486"/>
      <point x="-91" y="468" type="qcurve" smooth="yes"/>
      <point x="-91" y="436"/>
      <point x="-145" y="397"/>
      <point x="-208" y="377" type="qcurve" smooth="yes"/>
      <point x="-237" y="367"/>
      <point x="-315" y="347"/>
      <point x="-363" y="337" type="qcurve"/>
      <point x="-363" y="321" type="line"/>
      <point x="-315" y="311"/>
      <point x="-237" y="291"/>
      <point x="-208" y="282" type="qcurve" smooth="yes"/>
      <point x="-146" y="262"/>
      <point x="-91" y="222"/>
      <point x="-91" y="191" type="qcurve" smooth="yes"/>
      <point x="-91" y="173"/>
      <point x="-114" y="136"/>
      <point x="-146" y="100" type="qcurve" smooth="yes"/>
      <point x="-195" y="46" type="line" smooth="yes"/>
      <point x="-211" y="28"/>
      <point x="-222" y="9"/>
      <point x="-222" y="2" type="qcurve" smooth="yes"/>
      <point x="-222" y="-11"/>
      <point x="-205" y="-24"/>
      <point x="-187" y="-25" type="qcurve" smooth="yes"/>
      <point x="78" y="-36" type="line"/>
      <point x="74" y="-130" type="line"/>
      <point x="-222" y="-115" type="line" smooth="yes"/>
      <point x="-285" y="-112"/>
      <point x="-348" y="-63"/>
    </contour>
    <contour>
      <point x="256" y="783" type="line"/>
      <point x="358" y="783" type="line"/>
      <point x="358" y="-129" type="line"/>
      <point x="256" y="-129" type="line"/>
    </contour>
  </outline>
</glyph>
<glyph name="bracketright_numbersign.liga" format="2">
  <advance width="614"/>
  <outline>
    <contour>
      <point x="143" y="503" type="line"/>
      <point x="172" y="666" type="line"/>
      <point x="247" y="666" type="line"/>
      <point x="217" y="502" type="line"/>
      <point x="328" y="502" type="line"/>
      <point x="357" y="666" type="line"/>
      <point x="432" y="666" type="line"/>
      <point x="403" y="503" type="line"/>
      <point x="511" y="503" type="line"/>
      <point x="511" y="398" type="line"/>
      <point x="385" y="398" type="line"/>
      <point x="361" y="263" type="line"/>
      <point x="480" y="263" type="line"/>
      <point x="480" y="158" type="line"/>
      <point x="342" y="158" type="line"/>
      <point x="312" y="-12" type="line"/>
      <point x="236" y="-12" type="line"/>
      <point x="267" y="159" type="line"/>
      <point x="156" y="159" type="line"/>
      <point x="126" y="-12" type="line"/>
      <point x="52" y="-12" type="line"/>
      <point x="82" y="158" type="line"/>
      <point x="-156" y="158" type="line"/>
      <point x="-156" y="-141" type="line"/>
      <point x="-516" y="-141" type="line"/>
      <point x="-516" y="-47" type="line"/>
      <point x="-269" y="-47" type="line"/>
      <point x="-269" y="699" type="line"/>
      <point x="-516" y="699" type="line"/>
      <point x="-516" y="792" type="line"/>
      <point x="-156" y="792" type="line"/>
      <point x="-156" y="503" type="line"/>
    </contour>
    <contour>
      <point x="157" y="225" type="line"/>
      <point x="289" y="225" type="line"/>
      <point x="327" y="434" type="line"/>
      <point x="194" y="434" type="line"/>
    </contour>
    <contour>
      <point x="-156" y="404" type="line"/>
      <point x="-156" y="256" type="line"/>
      <point x="99" y="256" type="line"/>
      <point x="126" y="404" type="line"/>
    </contour>
  </outline>
</glyph>
<glyph name="brevecmb.cap" format="2">
  <outline>
    <contour>
      <point x="0" y="809" type="qcurve"/>
      <point x="44" y="809"/>
      <point x="104" y="862"/>
      <point x="123" y="918" type="qcurve"/>
      <point x="191" y="895" type="line"/>
      <point x="169" y="814"/>
      <point x="73" y="731"/>
      <point x="0" y="731" type="qcurve"/>
      <point x="-73" y="731"/>
      <point x="-169" y="814"/>
      <point x="-191" y="895" type="qcurve"/>
      <point x="-123" y="918" type="line"/>
      <point x="-103" y="862"/>
      <point x="-44" y="809"/>
    </contour>
  </outline>
</glyph>
<glyph name="brevegrave.cap" format="2">
  <outline>
    <contour>
      <point x="-174" y="1068" type="line"/>
      <point x="66" y="958" type="line"/>
      <point x="41" y="895" type="line"/>
      <point x="-206" y="990" type="line"/>
    </contour>
    <contour>
      <point x="0" y="809" type="qcurve"/>
      <point x="45" y="809"/>
      <point x="106" y="857"/>
      <point x="123" y="906" type="qcurve"/>
      <point x="191" y="883" type="line"/>
      <point x="171" y="808"/>
      <point x="74" y="731"/>
      <point x="0" y="731" type="qcurve"/>
      <point x="-74" y="731"/>
      <point x="-171" y="805"/>
      <point x="-191" y="876" type="qcurve"/>
      <point x="-123" y="900" type="line"/>
      <point x="-107" y="854"/>
      <point x="-46" y="809"/>
    </contour>
  </outline>
</glyph>
<glyph name="brevetilde.cap" format="2">
  <outline>
    <contour>
      <point x="-80" y="1094" type="qcurve"/>
      <point x="-63" y="1094"/>
      <point x="-27" y="1076"/>
      <point x="8" y="1052" type="qcurve"/>
      <point x="39" y="1030"/>
      <point x="64" y="1017"/>
      <point x="73" y="1017" type="qcurve"/>
      <point x="86" y="1017"/>
      <point x="109" y="1053"/>
      <point x="130" y="1104" type="qcurve"/>
      <point x="194" y="1080" type="line"/>
      <point x="167" y="1004"/>
      <point x="117" y="938"/>
      <point x="80" y="938" type="qcurve"/>
      <point x="63" y="938"/>
      <point x="28" y="955"/>
      <point x="-7" y="980" type="qcurve"/>
      <point x="-36" y="1000"/>
      <point x="-63" y="1015"/>
      <point x="-72" y="1015" type="qcurve"/>
      <point x="-85" y="1015"/>
      <point x="-107" y="980"/>
      <point x="-127" y="933" type="qcurve"/>
      <point x="-191" y="957" type="line"/>
      <point x="-165" y="1030"/>
      <point x="-117" y="1094"/>
    </contour>
    <contour>
      <point x="0" y="809" type="qcurve"/>
      <point x="45" y="809"/>
      <point x="106" y="857"/>
      <point x="123" y="906" type="qcurve"/>
      <point x="191" y="883" type="line"/>
      <point x="171" y="808"/>
      <point x="74" y="731"/>
      <point x="0" y="731" type="qcurve"/>
      <point x="-75" y="731"/>
      <point x="-171" y="803"/>
      <point x="-190" y="874" type="qcurve"/>
      <point x="-122" y="897" type="line"/>
      <point x="-106" y="853"/>
      <point x="-46" y="809"/>
    </contour>
  </outline>
</glyph>
<glyph name="circumflexcmb.cap" format="2">
  <outline>
    <contour>
      <point x="-156" y="731" type="line"/>
      <point x="-193" y="786" type="line"/>
      <point x="-20" y="920" type="line"/>
      <point x="20" y="920" type="line"/>
      <point x="194" y="786" type="line"/>
      <point x="157" y="731" type="line"/>
      <point x="0" y="834" type="line"/>
    </contour>
  </outline>
</glyph>
<glyph name="circumflexgrave.cap" format="2">
  <outline>
    <contour>
      <point x="80" y="1052" type="line"/>
      <point x="237" y="958" type="line"/>
      <point x="205" y="895" type="line"/>
      <point x="39" y="975" type="line"/>
    </contour>
    <contour>
      <point x="-156" y="731" type="line"/>
      <point x="-193" y="786" type="line"/>
      <point x="-20" y="907" type="line"/>
      <point x="20" y="907" type="line"/>
      <point x="194" y="786" type="line"/>
      <point x="157" y="731" type="line"/>
      <point x="0" y="821" type="line"/>
    </contour>
  </outline>
</glyph>
<glyph name="circumflexgrave" format="2">
  <outline>
    <contour>
      <point x="78" y="878" type="line"/>
      <point x="230" y="764" type="line"/>
      <point x="192" y="712" type="line"/>
      <point x="32" y="813" type="line"/>
    </contour>
    <contour>
      <point x="-146" y="547" type="line"/>
      <point x="-186" y="593" type="line"/>
      <point x="-26" y="735" type="line"/>
      <point x="26" y="735" type="line"/>
      <point x="186" y="593" type="line"/>
      <point x="146" y="547" type="line"/>
      <point x="0" y="651" type="line"/>
    </contour>
  </outline>
</glyph>
<glyph name="circumflexhook" format="2">
  <outline>
    <contour>
      <point x="300" y="832" type="qcurve"/>
      <point x="300" y="792"/>
      <point x="203" y="736"/>
      <point x="109" y="721" type="qcurve"/>
      <point x="85" y="769" type="line"/>
      <point x="85" y="771" type="line"/>
      <point x="150" y="785"/>
      <point x="202" y="807"/>
      <point x="202" y="821" type="qcurve"/>
      <point x="202" y="836"/>
      <point x="136" y="856"/>
      <point x="57" y="868" type="qcurve"/>
      <point x="57" y="870" type="line"/>
      <point x="102" y="923" type="line"/>
      <point x="214" y="906"/>
      <point x="300" y="868"/>
    </contour>
    <contour>
      <point x="-146" y="547" type="line"/>
      <point x="-186" y="593" type="line"/>
      <point x="-26" y="735" type="line"/>
      <point x="26" y="735" type="line"/>
      <point x="186" y="593" type="line"/>
      <point x="146" y="547" type="line"/>
      <point x="0" y="651" type="line"/>
    </contour>
  </outline>
</glyph>
<glyph name="circumflextilde" format="2">
  <outline>
    <contour>
      <point x="-69" y="924" type="qcurve"/>
      <point x="-53" y="924"/>
      <point x="-20" y="907"/>
      <point x="18" y="879" type="qcurve"/>
      <point x="56" y="851"/>
      <point x="73" y="841"/>
      <point x="80" y="841" type="qcurve"/>
      <point x="94" y="841"/>
      <point x="120" y="883"/>
      <point x="138" y="930" type="qcurve"/>
      <point x="201" y="909" type="line"/>
      <point x="172" y="829"/>
      <point x="122" y="763"/>
      <point x="88" y="763" type="qcurve"/>
      <point x="71" y="763"/>
      <point x="38" y="780"/>
      <point x="1" y="809" type="qcurve"/>
      <point x="-36" y="836"/>
      <point x="-54" y="846"/>
      <point x="-61" y="846" type="qcurve"/>
      <point x="-75" y="846"/>
      <point x="-101" y="805"/>
      <point x="-119" y="758" type="qcurve"/>
      <point x="-182" y="778" type="line"/>
      <point x="-153" y="858"/>
      <point x="-103" y="924"/>
    </contour>
    <contour>
      <point x="-146" y="547" type="line"/>
      <point x="-186" y="593" type="line"/>
      <point x="-26" y="735" type="line"/>
      <point x="26" y="735" type="line"/>
      <point x="186" y="593" type="line"/>
      <point x="146" y="547" type="line"/>
      <point x="0" y="651" type="line"/>
    </contour>
  </outline>
</glyph>
<glyph name="colon_colon_equal.liga" format="2">
  <advance width="614"/>
  <outline>
    <contour>
      <point x="-759" y="490" type="qcurve" smooth="yes"/>
      <point x="-759" y="447"/>
      <point x="-813" y="402"/>
      <point x="-864" y="402" type="qcurve" smooth="yes"/>
      <point x="-913" y="402"/>
      <point x="-966" y="447"/>
      <point x="-966" y="490" type="qcurve" smooth="yes"/>
      <point x="-966" y="531"/>
      <point x="-910" y="578"/>
      <point x="-862" y="578" type="qcurve" smooth="yes"/>
      <point x="-810" y="578"/>
      <point x="-759" y="534"/>
    </contour>
    <contour>
      <point x="-305" y="490" type="qcurve" smooth="yes"/>
      <point x="-305" y="447"/>
      <point x="-359" y="402"/>
      <point x="-409" y="402" type="qcurve" smooth="yes"/>
      <point x="-458" y="402"/>
      <point x="-511" y="447"/>
      <point x="-511" y="490" type="qcurve" smooth="yes"/>
      <point x="-511" y="531"/>
      <point x="-455" y="578"/>
      <point x="-407" y="578" type="qcurve" smooth="yes"/>
      <point x="-356" y="578"/>
      <point x="-305" y="534"/>
    </contour>
    <contour>
      <point x="396" y="387" type="line"/>
      <point x="-43" y="387" type="line"/>
      <point x="-43" y="478" type="line"/>
      <point x="396" y="478" type="line"/>
    </contour>
    <contour>
      <point x="396" y="179" type="line"/>
      <point x="-43" y="179" type="line"/>
      <point x="-43" y="270" type="line"/>
      <point x="396" y="270" type="line"/>
    </contour>
    <contour>
      <point x="-759" y="166" type="qcurve" smooth="yes"/>
      <point x="-759" y="124"/>
      <point x="-814" y="79"/>
      <point x="-864" y="79" type="qcurve" smooth="yes"/>
      <point x="-913" y="79"/>
      <point x="-966" y="125"/>
      <point x="-966" y="168" type="qcurve" smooth="yes"/>
      <point x="-966" y="208"/>
      <point x="-910" y="255"/>
      <point x="-862" y="255" type="qcurve" smooth="yes"/>
      <point x="-810" y="255"/>
      <point x="-759" y="211"/>
    </contour>
    <contour>
      <point x="-305" y="166" type="qcurve" smooth="yes"/>
      <point x="-305" y="124"/>
      <point x="-359" y="79"/>
      <point x="-409" y="79" type="qcurve" smooth="yes"/>
      <point x="-458" y="79"/>
      <point x="-511" y="125"/>
      <point x="-511" y="168" type="qcurve" smooth="yes"/>
      <point x="-511" y="208"/>
      <point x="-455" y="255"/>
      <point x="-407" y="255" type="qcurve" smooth="yes"/>
      <point x="-355" y="255"/>
      <point x="-305" y="211"/>
    </contour>
  </outline>
</glyph>
<glyph name="colon_equal.liga" format="2">
  <advance width="614"/>
  <outline>
    <contour>
      <point x="-250" y="490" type="qcurve" smooth="yes"/>
      <point x="-250" y="448"/>
      <point x="-304" y="402"/>
      <point x="-354" y="402" type="qcurve" smooth="yes"/>
      <point x="-404" y="402"/>
      <point x="-457" y="447"/>
      <point x="-457" y="490" type="qcurve" smooth="yes"/>
      <point x="-457" y="531"/>
      <point x="-401" y="578"/>
      <point x="-353" y="578" type="qcurve" smooth="yes"/>
      <point x="-301" y="578"/>
      <point x="-250" y="534"/>
    </contour>
    <contour>
      <point x="439" y="387" type="line"/>
      <point x="-47" y="387" type="line"/>
      <point x="-47" y="478" type="line"/>
      <point x="439" y="478" type="line"/>
    </contour>
    <contour>
      <point x="439" y="179" type="line"/>
      <point x="-47" y="179" type="line"/>
      <point x="-47" y="270" type="line"/>
      <point x="439" y="270" type="line"/>
    </contour>
    <contour>
      <point x="-250" y="166" type="qcurve" smooth="yes"/>
      <point x="-250" y="125"/>
      <point x="-305" y="79"/>
      <point x="-354" y="79" type="qcurve" smooth="yes"/>
      <point x="-404" y="79"/>
      <point x="-457" y="125"/>
      <point x="-457" y="168" type="qcurve" smooth="yes"/>
      <point x="-457" y="208"/>
      <point x="-401" y="255"/>
      <point x="-353" y="255" type="qcurve" smooth="yes"/>
      <point x="-301" y="255"/>
      <point x="-250" y="211"/>
    </contour>
  </outline>
</glyph>
<glyph name="colon_greater.liga" format="2">
  <advance width="614"/>
  <outline>
    <contour>
      <point x="-195" y="490" type="qcurve" smooth="yes"/>
      <point x="-195" y="448"/>
      <point x="-249" y="402"/>
      <point x="-299" y="402" type="qcurve" smooth="yes"/>
      <point x="-349" y="402"/>
      <point x="-401" y="447"/>
      <point x="-401" y="490" type="qcurve" smooth="yes"/>
      <point x="-401" y="531"/>
      <point x="-346" y="578"/>
      <point x="-298" y="578" type="qcurve" smooth="yes"/>
      <point x="-246" y="578"/>
      <point x="-195" y="534"/>
    </contour>
    <contour>
      <point x="477" y="374" type="line"/>
      <point x="477" y="272" type="line"/>
      <point x="0" y="69" type="line"/>
      <point x="0" y="173" type="line"/>
      <point x="371" y="323" type="line"/>
      <point x="0" y="472" type="line"/>
      <point x="0" y="577" type="line"/>
    </contour>
    <contour>
      <point x="-195" y="166" type="qcurve" smooth="yes"/>
      <point x="-195" y="125"/>
      <point x="-250" y="79"/>
      <point x="-299" y="79" type="qcurve" smooth="yes"/>
      <point x="-349" y="79"/>
      <point x="-401" y="124"/>
      <point x="-401" y="168" type="qcurve" smooth="yes"/>
      <point x="-401" y="208"/>
      <point x="-346" y="255"/>
      <point x="-298" y="255" type="qcurve" smooth="yes"/>
      <point x="-246" y="255"/>
      <point x="-195" y="211"/>
    </contour>
  </outline>
</glyph>
<glyph name="dieresisacute.cap" format="2">
  <outline>
    <contour>
      <point x="207" y="1000" type="line"/>
      <point x="-40" y="904" type="line"/>
      <point x="-65" y="968" type="line"/>
      <point x="175" y="1078" type="line"/>
    </contour>
    <contour>
      <point x="-62" y="811" type="qcurve"/>
      <point x="-62" y="783"/>
      <point x="-97" y="751"/>
      <point x="-129" y="751" type="qcurve"/>
      <point x="-160" y="751"/>
      <point x="-194" y="782"/>
      <point x="-194" y="811" type="qcurve"/>
      <point x="-194" y="839"/>
      <point x="-158" y="872"/>
      <point x="-128" y="872" type="qcurve"/>
      <point x="-96" y="872"/>
      <point x="-62" y="841"/>
    </contour>
    <contour>
      <point x="194" y="811" type="qcurve"/>
      <point x="194" y="783"/>
      <point x="159" y="751"/>
      <point x="127" y="751" type="qcurve"/>
      <point x="96" y="751"/>
      <point x="62" y="782"/>
      <point x="62" y="811" type="qcurve"/>
      <point x="62" y="839"/>
      <point x="98" y="872"/>
      <point x="128" y="872" type="qcurve"/>
      <point x="160" y="872"/>
      <point x="194" y="841"/>
    </contour>
  </outline>
</glyph>
<glyph name="dieresiscaron.cap" format="2">
  <outline>
    <contour>
      <point x="157" y="1078" type="line"/>
      <point x="190" y="1026" type="line"/>
      <point x="20" y="900" type="line"/>
      <point x="-19" y="900" type="line"/>
      <point x="-190" y="1026" type="line"/>
      <point x="-157" y="1078" type="line"/>
      <point x="0" y="982" type="line"/>
    </contour>
    <contour>
      <point x="-62" y="811" type="qcurve"/>
      <point x="-62" y="783"/>
      <point x="-97" y="751"/>
      <point x="-129" y="751" type="qcurve"/>
      <point x="-160" y="751"/>
      <point x="-194" y="782"/>
      <point x="-194" y="811" type="qcurve"/>
      <point x="-194" y="839"/>
      <point x="-158" y="872"/>
      <point x="-128" y="872" type="qcurve"/>
      <point x="-96" y="872"/>
      <point x="-62" y="841"/>
    </contour>
    <contour>
      <point x="194" y="811" type="qcurve"/>
      <point x="194" y="783"/>
      <point x="159" y="751"/>
      <point x="127" y="751" type="qcurve"/>
      <point x="96" y="751"/>
      <point x="62" y="782"/>
      <point x="62" y="811" type="qcurve"/>
      <point x="62" y="839"/>
      <point x="98" y="872"/>
      <point x="128" y="872" type="qcurve"/>
      <point x="160" y="872"/>
      <point x="194" y="841"/>
    </contour>
  </outline>
</glyph>
<glyph name="dieresiscmb.cap" format="2">
  <outline>
    <contour>
      <point x="-62" y="815" type="qcurve"/>
      <point x="-62" y="784"/>
      <point x="-97" y="751"/>
      <point x="-129" y="751" type="qcurve"/>
      <point x="-161" y="751"/>
      <point x="-195" y="784"/>
      <point x="-195" y="815" type="qcurve"/>
      <point x="-195" y="844"/>
      <point x="-159" y="880"/>
      <point x="-128" y="880" type="qcurve"/>
      <point x="-96" y="880"/>
      <point x="-62" y="847"/>
    </contour>
    <contour>
      <point x="195" y="815" type="qcurve"/>
      <point x="195" y="784"/>
      <point x="159" y="751"/>
      <point x="127" y="751" type="qcurve"/>
      <point x="95" y="751"/>
      <point x="61" y="784"/>
      <point x="61" y="815" type="qcurve"/>
      <point x="61" y="844"/>
      <point x="98" y="880"/>
      <point x="128" y="880" type="qcurve"/>
      <point x="160" y="880"/>
      <point x="195" y="846"/>
    </contour>
  </outline>
</glyph>
<glyph name="dieresismacron" format="2">
  <outline>
    <contour>
      <point x="161" y="748" type="line"/>
      <point x="-161" y="748" type="line"/>
      <point x="-161" y="827" type="line"/>
      <point x="161" y="827" type="line"/>
    </contour>
    <contour>
      <point x="-52" y="622" type="qcurve"/>
      <point x="-52" y="596"/>
      <point x="-86" y="567"/>
      <point x="-117" y="567" type="qcurve"/>
      <point x="-147" y="567"/>
      <point x="-180" y="595"/>
      <point x="-180" y="622" type="qcurve"/>
      <point x="-180" y="647"/>
      <point x="-145" y="678"/>
      <point x="-116" y="678" type="qcurve"/>
      <point x="-85" y="678"/>
      <point x="-52" y="649"/>
    </contour>
    <contour>
      <point x="181" y="622" type="qcurve"/>
      <point x="181" y="596"/>
      <point x="146" y="567"/>
      <point x="115" y="567" type="qcurve"/>
      <point x="85" y="567"/>
      <point x="52" y="595"/>
      <point x="52" y="622" type="qcurve"/>
      <point x="52" y="647"/>
      <point x="87" y="678"/>
      <point x="116" y="678" type="qcurve"/>
      <point x="147" y="678"/>
      <point x="181" y="649"/>
    </contour>
  </outline>
</glyph>
<glyph name="equal_asciitilde.liga" format="2">
  <advance width="614"/>
  <outline>
    <contour>
      <point x="129" y="451" type="qcurve" smooth="yes"/>
      <point x="148" y="451"/>
      <point x="182" y="499"/>
      <point x="223" y="580" type="qcurve"/>
      <point x="306" y="543" type="line"/>
      <point x="256" y="435"/>
      <point x="185" y="351"/>
      <point x="135" y="351" type="qcurve" smooth="yes"/>
      <point x="113" y="351"/>
      <point x="49" y="382"/>
      <point x="-10" y="420" type="qcurve" smooth="yes"/>
      <point x="-65" y="457"/>
      <point x="-112" y="482"/>
      <point x="-128" y="482" type="qcurve" smooth="yes"/>
      <point x="-146" y="482"/>
      <point x="-176" y="440"/>
      <point x="-217" y="359" type="qcurve"/>
      <point x="-300" y="396" type="line"/>
      <point x="-252" y="500"/>
      <point x="-183" y="581"/>
      <point x="-134" y="581" type="qcurve" smooth="yes"/>
      <point x="-111" y="581"/>
      <point x="-49" y="551"/>
      <point x="9" y="512" type="qcurve" smooth="yes"/>
      <point x="61" y="478"/>
      <point x="112" y="451"/>
    </contour>
    <contour>
      <point x="129" y="178" type="qcurve" smooth="yes"/>
      <point x="146" y="178"/>
      <point x="177" y="223"/>
      <point x="217" y="301" type="qcurve"/>
      <point x="299" y="263" type="line"/>
      <point x="252" y="159"/>
      <point x="183" y="78"/>
      <point x="135" y="78" type="qcurve" smooth="yes"/>
      <point x="112" y="78"/>
      <point x="47" y="109"/>
      <point x="-10" y="147" type="qcurve" smooth="yes"/>
      <point x="-63" y="182"/>
      <point x="-111" y="208"/>
      <point x="-128" y="208" type="qcurve" smooth="yes"/>
      <point x="-148" y="208"/>
      <point x="-183" y="159"/>
      <point x="-223" y="79" type="qcurve"/>
      <point x="-306" y="117" type="line"/>
      <point x="-256" y="225"/>
      <point x="-184" y="308"/>
      <point x="-134" y="308" type="qcurve" smooth="yes"/>
      <point x="-111" y="308"/>
      <point x="-49" y="278"/>
      <point x="9" y="239" type="qcurve" smooth="yes"/>
      <point x="61" y="205"/>
      <point x="112" y="178"/>
    </contour>
  </outline>
</glyph>
<glyph name="equal_bar_bar.end" format="2">
  <advance width="614"/>
  <outline>
    <contour>
      <point x="-65" y="755" type="line"/>
      <point x="38" y="755" type="line"/>
      <point x="38" y="-100" type="line"/>
      <point x="-65" y="-100" type="line"/>
      <point x="-65" y="179" type="line"/>
      <point x="-1238" y="179" type="line"/>
      <point x="-1238" y="270" type="line"/>
      <point x="-65" y="270" type="line"/>
      <point x="-65" y="387" type="line"/>
      <point x="-1238" y="387" type="line"/>
      <point x="-1238" y="478" type="line"/>
      <point x="-65" y="478" type="line"/>
    </contour>
    <contour>
      <point x="256" y="755" type="line"/>
      <point x="358" y="755" type="line"/>
      <point x="358" y="-100" type="line"/>
      <point x="256" y="-100" type="line"/>
    </contour>
  </outline>
</glyph>
<glyph name="equal_bar_bar_equal.middle" format="2">
  <advance width="614"/>
  <outline>
    <contour>
      <point x="-212" y="179" type="line"/>
      <point x="-624" y="179" type="line"/>
      <point x="-624" y="270" type="line"/>
      <point x="-212" y="270" type="line"/>
      <point x="-212" y="387" type="line"/>
      <point x="-624" y="387" type="line"/>
      <point x="-624" y="478" type="line"/>
      <point x="-212" y="478" type="line"/>
      <point x="-212" y="755" type="line"/>
      <point x="-109" y="755" type="line"/>
      <point x="-109" y="-100" type="line"/>
      <point x="-212" y="-100" type="line"/>
    </contour>
    <contour>
      <point x="109" y="755" type="line"/>
      <point x="212" y="755" type="line"/>
      <point x="212" y="478" type="line"/>
      <point x="624" y="478" type="line"/>
      <point x="624" y="387" type="line"/>
      <point x="212" y="387" type="line"/>
      <point x="212" y="270" type="line"/>
      <point x="624" y="270" type="line"/>
      <point x="624" y="179" type="line"/>
      <point x="212" y="179" type="line"/>
      <point x="212" y="-100" type="line"/>
      <point x="109" y="-100" type="line"/>
    </contour>
  </outline>
</glyph>
<glyph name="equal_colon_equal.middle" format="2">
  <advance width="614"/>
  <outline>
    <contour>
      <point x="410" y="490" type="qcurve" smooth="yes"/>
      <point x="410" y="447"/>
      <point x="356" y="402"/>
      <point x="306" y="402" type="qcurve" smooth="yes"/>
      <point x="257" y="402"/>
      <point x="204" y="447"/>
      <point x="204" y="490" type="qcurve" smooth="yes"/>
      <point x="204" y="531"/>
      <point x="259" y="578"/>
      <point x="307" y="578" type="qcurve" smooth="yes"/>
      <point x="359" y="578"/>
      <point x="410" y="534"/>
    </contour>
    <contour>
      <point x="12" y="387" type="line"/>
      <point x="-4" y="387" type="line"/>
      <point x="-4" y="478" type="line"/>
      <point x="12" y="478" type="line"/>
    </contour>
    <contour>
      <point x="618" y="387" type="line"/>
      <point x="602" y="387" type="line"/>
      <point x="602" y="478" type="line"/>
      <point x="618" y="478" type="line"/>
    </contour>
    <contour>
      <point x="12" y="179" type="line"/>
      <point x="-4" y="179" type="line"/>
      <point x="-4" y="270" type="line"/>
      <point x="12" y="270" type="line"/>
    </contour>
    <contour>
      <point x="618" y="179" type="line"/>
      <point x="602" y="179" type="line"/>
      <point x="602" y="270" type="line"/>
      <point x="618" y="270" type="line"/>
    </contour>
    <contour>
      <point x="410" y="166" type="qcurve" smooth="yes"/>
      <point x="410" y="124"/>
      <point x="356" y="79"/>
      <point x="306" y="79" type="qcurve" smooth="yes"/>
      <point x="257" y="79"/>
      <point x="204" y="125"/>
      <point x="204" y="168" type="qcurve" smooth="yes"/>
      <point x="204" y="208"/>
      <point x="259" y="255"/>
      <point x="307" y="255" type="qcurve" smooth="yes"/>
      <point x="359" y="255"/>
      <point x="410" y="211"/>
    </contour>
  </outline>
</glyph>
<glyph name="equal_equal.liga" format="2">
  <advance width="614"/>
  <outline>
    <contour>
      <point x="486" y="387" type="line"/>
      <point x="-486" y="387" type="line"/>
      <point x="-486" y="478" type="line"/>
      <point x="486" y="478" type="line"/>
    </contour>
    <contour>
      <point x="486" y="179" type="line"/>
      <point x="-486" y="179" type="line"/>
      <point x="-486" y="270" type="line"/>
      <point x="486" y="270" type="line"/>
    </contour>
  </outline>
</glyph>
<glyph name="equal_exclam_equal.middle" format="2">
  <advance width="614"/>
  <outline>
    <contour>
      <point x="344" y="258" type="line"/>
      <point x="270" y="258" type="line"/>
      <point x="203" y="710" type="line"/>
      <point x="412" y="710" type="line"/>
    </contour>
    <contour>
      <point x="26" y="387" type="line"/>
      <point x="-4" y="387" type="line"/>
      <point x="-4" y="478" type="line"/>
      <point x="26" y="478" type="line"/>
    </contour>
    <contour>
      <point x="618" y="387" type="line"/>
      <point x="588" y="387" type="line"/>
      <point x="588" y="478" type="line"/>
      <point x="618" y="478" type="line"/>
    </contour>
    <contour>
      <point x="26" y="179" type="line"/>
      <point x="-4" y="179" type="line"/>
      <point x="-4" y="270" type="line"/>
      <point x="26" y="270" type="line"/>
    </contour>
    <contour>
      <point x="618" y="179" type="line"/>
      <point x="588" y="179" type="line"/>
      <point x="588" y="270" type="line"/>
      <point x="618" y="270" type="line"/>
    </contour>
    <contour>
      <point x="401" y="59" type="qcurve" smooth="yes"/>
      <point x="401" y="22"/>
      <point x="352" y="-15"/>
      <point x="302" y="-15" type="qcurve" smooth="yes"/>
      <point x="252" y="-15"/>
      <point x="205" y="21"/>
      <point x="205" y="60" type="qcurve" smooth="yes"/>
      <point x="205" y="97"/>
      <point x="255" y="135"/>
      <point x="304" y="135" type="qcurve" smooth="yes"/>
      <point x="355" y="135"/>
      <point x="401" y="99"/>
    </contour>
  </outline>
</glyph>
<glyph name="equal_greater_greater.liga" format="2">
  <advance width="614"/>
  <outline>
    <contour>
      <point x="202" y="329" type="line"/>
      <point x="202" y="325" type="line"/>
      <point x="-177" y="-11" type="line"/>
      <point x="-242" y="57" type="line"/>
      <point x="-103" y="179" type="line"/>
      <point x="-1141" y="179" type="line"/>
      <point x="-1141" y="270" type="line"/>
      <point x="0" y="270" type="line"/>
      <point x="65" y="327" type="line"/>
      <point x="-3" y="387" type="line"/>
      <point x="-1141" y="387" type="line"/>
      <point x="-1141" y="478" type="line"/>
      <point x="-107" y="478" type="line"/>
      <point x="-242" y="597" type="line"/>
      <point x="-177" y="665" type="line"/>
    </contour>
    <contour>
      <point x="534" y="325" type="line"/>
      <point x="169" y="-11" type="line"/>
      <point x="104" y="57" type="line"/>
      <point x="399" y="327" type="line"/>
      <point x="104" y="597" type="line"/>
      <point x="169" y="665" type="line"/>
      <point x="534" y="329" type="line"/>
    </contour>
  </outline>
</glyph>
<glyph name="equal_greater_greater_equal.m" format="2">
  <advance width="614"/>
  <outline>
    <contour>
      <point x="-67" y="597" type="line"/>
      <point x="-2" y="665" type="line"/>
      <point x="201" y="478" type="line"/>
      <point x="624" y="478" type="line"/>
      <point x="624" y="387" type="line"/>
      <point x="164" y="387" type="line"/>
    </contour>
    <contour>
      <point x="31" y="329" type="line"/>
      <point x="31" y="325" type="line"/>
      <point x="-348" y="-11" type="line"/>
      <point x="-413" y="57" type="line"/>
      <point x="-274" y="179" type="line"/>
      <point x="-624" y="179" type="line"/>
      <point x="-624" y="270" type="line"/>
      <point x="-171" y="270" type="line"/>
      <point x="-106" y="327" type="line"/>
      <point x="-174" y="387" type="line"/>
      <point x="-624" y="387" type="line"/>
      <point x="-624" y="478" type="line"/>
      <point x="-278" y="478" type="line"/>
      <point x="-413" y="597" type="line"/>
      <point x="-348" y="665" type="line"/>
    </contour>
    <contour>
      <point x="205" y="179" type="line"/>
      <point x="-2" y="-11" type="line"/>
      <point x="-67" y="57" type="line"/>
      <point x="166" y="270" type="line"/>
      <point x="624" y="270" type="line"/>
      <point x="624" y="179" type="line"/>
    </contour>
  </outline>
</glyph>
<glyph name="equal_less.liga" format="2">
  <advance width="614"/>
  <outline>
    <contour>
      <point x="501" y="597" type="line"/>
      <point x="264" y="387" type="line"/>
      <point x="-527" y="387" type="line"/>
      <point x="-527" y="478" type="line"/>
      <point x="228" y="478" type="line"/>
      <point x="436" y="666" type="line"/>
    </contour>
    <contour>
      <point x="225" y="179" type="line"/>
      <point x="-527" y="179" type="line"/>
      <point x="-527" y="270" type="line"/>
      <point x="262" y="270" type="line"/>
      <point x="501" y="58" type="line"/>
      <point x="436" y="-10" type="line"/>
    </contour>
  </outline>
</glyph>
<glyph name="equal_less_equal.middle" format="2">
  <advance width="614"/>
  <outline>
    <contour>
      <point x="245" y="179" type="line"/>
      <point x="-10" y="179" type="line"/>
      <point x="-10" y="270" type="line"/>
      <point x="142" y="270" type="line"/>
      <point x="80" y="325" type="line"/>
      <point x="80" y="329" type="line"/>
      <point x="145" y="387" type="line"/>
      <point x="-10" y="387" type="line"/>
      <point x="-10" y="478" type="line"/>
      <point x="248" y="478" type="line"/>
      <point x="459" y="665" type="line"/>
      <point x="524" y="597" type="line"/>
      <point x="389" y="478" type="line"/>
      <point x="624" y="478" type="line"/>
      <point x="624" y="387" type="line"/>
      <point x="285" y="387" type="line"/>
      <point x="217" y="327" type="line"/>
      <point x="282" y="270" type="line"/>
      <point x="624" y="270" type="line"/>
      <point x="624" y="179" type="line"/>
      <point x="385" y="179" type="line"/>
      <point x="524" y="57" type="line"/>
      <point x="459" y="-11" type="line"/>
    </contour>
  </outline>
</glyph>
<glyph name="equal_slash.liga" format="2">
  <advance width="614"/>
  <outline>
    <contour>
      <point x="79" y="179" type="line"/>
      <point x="-527" y="179" type="line"/>
      <point x="-527" y="270" type="line"/>
      <point x="124" y="270" type="line"/>
      <point x="183" y="387" type="line"/>
      <point x="-527" y="387" type="line"/>
      <point x="-527" y="478" type="line"/>
      <point x="228" y="478" type="line"/>
      <point x="365" y="755" type="line"/>
      <point x="473" y="755" type="line"/>
      <point x="50" y="-100" type="line"/>
      <point x="-59" y="-100" type="line"/>
    </contour>
  </outline>
</glyph>
<glyph name="equal_slash_slash.end" format="2">
  <advance width="614"/>
  <outline>
    <contour>
      <point x="421" y="755" type="line"/>
      <point x="529" y="755" type="line"/>
      <point x="106" y="-100" type="line"/>
      <point x="-4" y="-100" type="line"/>
    </contour>
    <contour>
      <point x="95" y="755" type="line"/>
      <point x="203" y="755" type="line"/>
      <point x="-219" y="-100" type="line"/>
      <point x="-329" y="-100" type="line"/>
      <point x="-191" y="179" type="line"/>
      <point x="-1238" y="179" type="line"/>
      <point x="-1238" y="270" type="line"/>
      <point x="-146" y="270" type="line"/>
      <point x="-87" y="387" type="line"/>
      <point x="-1238" y="387" type="line"/>
      <point x="-1238" y="478" type="line"/>
      <point x="-42" y="478" type="line"/>
    </contour>
  </outline>
</glyph>
<glyph name="exclam_asciitilde.liga" format="2">
  <advance width="614"/>
  <outline>
    <contour>
      <point x="129" y="178" type="qcurve" smooth="yes"/>
      <point x="146" y="178"/>
      <point x="177" y="223"/>
      <point x="217" y="301" type="qcurve"/>
      <point x="299" y="263" type="line"/>
      <point x="252" y="161"/>
      <point x="185" y="78"/>
      <point x="141" y="78" type="qcurve" smooth="yes"/>
      <point x="118" y="78"/>
      <point x="52" y="111"/>
      <point x="-17" y="156" type="qcurve"/>
      <point x="-90" y="-100" type="line"/>
      <point x="-181" y="-100" type="line"/>
      <point x="-78" y="193" type="line"/>
      <point x="-97" y="203"/>
      <point x="-124" y="212"/>
      <point x="-135" y="212" type="qcurve" smooth="yes"/>
      <point x="-156" y="212"/>
      <point x="-195" y="159"/>
      <point x="-236" y="79" type="qcurve"/>
      <point x="-319" y="117" type="line"/>
      <point x="-268" y="224"/>
      <point x="-195" y="308"/>
      <point x="-144" y="308" type="qcurve" smooth="yes"/>
      <point x="-124" y="308"/>
      <point x="-80" y="292"/>
      <point x="-50" y="275" type="qcurve"/>
      <point x="-27" y="339" type="line"/>
      <point x="-5" y="417" type="line"/>
      <point x="-63" y="454"/>
      <point x="-114" y="481"/>
      <point x="-128" y="481" type="qcurve" smooth="yes"/>
      <point x="-146" y="481"/>
      <point x="-177" y="438"/>
      <point x="-217" y="358" type="qcurve"/>
      <point x="-300" y="395" type="line"/>
      <point x="-252" y="498"/>
      <point x="-185" y="580"/>
      <point x="-140" y="580" type="qcurve" smooth="yes"/>
      <point x="-113" y="580"/>
      <point x="-48" y="546"/>
      <point x="19" y="501" type="qcurve"/>
      <point x="92" y="755" type="line"/>
      <point x="181" y="755" type="line"/>
      <point x="80" y="465" type="line"/>
      <point x="97" y="456"/>
      <point x="122" y="447"/>
      <point x="136" y="447" type="qcurve" smooth="yes"/>
      <point x="157" y="447"/>
      <point x="194" y="499"/>
      <point x="235" y="579" type="qcurve"/>
      <point x="318" y="542" type="line"/>
      <point x="269" y="435"/>
      <point x="197" y="351"/>
      <point x="144" y="351" type="qcurve" smooth="yes"/>
      <point x="124" y="351"/>
      <point x="80" y="366"/>
      <point x="52" y="382" type="qcurve"/>
      <point x="29" y="317" type="line"/>
      <point x="7" y="239" type="line"/>
      <point x="73" y="199"/>
      <point x="116" y="178"/>
    </contour>
  </outline>
</glyph>
<glyph name="exclam_equal.liga" format="2">
  <advance width="614"/>
  <outline>
    <contour>
      <point x="-125" y="179" type="line"/>
      <point x="-486" y="179" type="line"/>
      <point x="-486" y="270" type="line"/>
      <point x="-79" y="270" type="line"/>
      <point x="-50" y="327" type="line"/>
      <point x="-21" y="387" type="line"/>
      <point x="-486" y="387" type="line"/>
      <point x="-486" y="478" type="line"/>
      <point x="23" y="478" type="line"/>
      <point x="158" y="755" type="line"/>
      <point x="266" y="755" type="line"/>
      <point x="126" y="478" type="line"/>
      <point x="485" y="478" type="line"/>
      <point x="485" y="387" type="line"/>
      <point x="80" y="387" type="line"/>
      <point x="50" y="327" type="line"/>
      <point x="22" y="270" type="line"/>
      <point x="485" y="270" type="line"/>
      <point x="485" y="179" type="line"/>
      <point x="-22" y="179" type="line"/>
      <point x="-157" y="-100" type="line"/>
      <point x="-266" y="-100" type="line"/>
    </contour>
  </outline>
</glyph>
<glyph name="five.den" format="2">
  <advance width="614"/>
  <outline>
    <contour>
      <point x="171" y="171" type="line"/>
      <point x="184" y="380" type="line"/>
      <point x="429" y="380" type="line"/>
      <point x="429" y="318" type="line"/>
      <point x="246" y="318" type="line"/>
      <point x="238" y="220" type="line"/>
      <point x="258" y="233"/>
      <point x="304" y="245"/>
      <point x="332" y="245" type="qcurve"/>
      <point x="387" y="245"/>
      <point x="453" y="184"/>
      <point x="453" y="132" type="qcurve"/>
      <point x="453" y="71"/>
      <point x="348" y="6"/>
      <point x="236" y="-4" type="qcurve"/>
      <point x="167" y="-10" type="line"/>
      <point x="159" y="56" type="line"/>
      <point x="232" y="62" type="line"/>
      <point x="310" y="69"/>
      <point x="379" y="101"/>
      <point x="379" y="132" type="qcurve"/>
      <point x="379" y="158"/>
      <point x="347" y="184"/>
      <point x="315" y="184" type="qcurve"/>
      <point x="294" y="184"/>
      <point x="250" y="172"/>
      <point x="225" y="160" type="qcurve"/>
      <point x="173" y="169" type="line"/>
    </contour>
  </outline>
</glyph>
<glyph name="four.den" format="2">
  <advance width="614"/>
  <outline>
    <contour>
      <point x="335" y="92" type="line"/>
      <point x="151" y="92" type="line"/>
      <point x="151" y="145" type="line"/>
      <point x="320" y="380" type="line"/>
      <point x="407" y="380" type="line"/>
      <point x="407" y="153" type="line"/>
      <point x="480" y="153" type="line"/>
      <point x="480" y="92" type="line"/>
      <point x="407" y="92" type="line"/>
      <point x="407" y="0" type="line"/>
      <point x="335" y="0" type="line"/>
    </contour>
    <contour>
      <point x="341" y="146" type="line"/>
      <point x="341" y="330" type="line"/>
      <point x="217" y="150" type="line"/>
      <point x="217" y="146" type="line"/>
    </contour>
  </outline>
</glyph>
<glyph name="greater_colon.liga" format="2">
  <advance width="614"/>
  <outline>
    <contour>
      <point x="406" y="490" type="qcurve" smooth="yes"/>
      <point x="406" y="448"/>
      <point x="352" y="402"/>
      <point x="302" y="402" type="qcurve" smooth="yes"/>
      <point x="252" y="402"/>
      <point x="199" y="447"/>
      <point x="199" y="490" type="qcurve" smooth="yes"/>
      <point x="199" y="531"/>
      <point x="255" y="578"/>
      <point x="303" y="578" type="qcurve" smooth="yes"/>
      <point x="355" y="578"/>
      <point x="406" y="534"/>
    </contour>
    <contour>
      <point x="53" y="374" type="line"/>
      <point x="53" y="272" type="line"/>
      <point x="-424" y="69" type="line"/>
      <point x="-424" y="173" type="line"/>
      <point x="-53" y="323" type="line"/>
      <point x="-424" y="472" type="line"/>
      <point x="-424" y="577" type="line"/>
    </contour>
    <contour>
      <point x="406" y="166" type="qcurve" smooth="yes"/>
      <point x="406" y="125"/>
      <point x="351" y="79"/>
      <point x="302" y="79" type="qcurve" smooth="yes"/>
      <point x="252" y="79"/>
      <point x="199" y="125"/>
      <point x="199" y="168" type="qcurve" smooth="yes"/>
      <point x="199" y="208"/>
      <point x="255" y="255"/>
      <point x="303" y="255" type="qcurve" smooth="yes"/>
      <point x="355" y="255"/>
      <point x="406" y="211"/>
    </contour>
  </outline>
</glyph>
<glyph name="greater_equal" format="2">
  <advance width="614"/>
  <outline>
    <contour>
      <point x="269" y="384" type="line"/>
      <point x="-254" y="198" type="line"/>
      <point x="-254" y="303" type="line"/>
      <point x="141" y="434" type="line"/>
      <point x="-254" y="565" type="line"/>
      <point x="-254" y="669" type="line"/>
      <point x="269" y="486" type="line"/>
    </contour>
    <contour>
      <point x="269" y="91" type="line"/>
      <point x="269" y="0" type="line"/>
      <point x="-254" y="0" type="line"/>
      <point x="-254" y="91" type="line"/>
    </contour>
  </outline>
</glyph>
